<svg width="46" height="46" viewBox="0 0 46 46" fill="none" xmlns="http://www.w3.org/2000/svg">
<path d="M20.9091 0H25.0909V2.09091H27.1818V4.18182H29.2727V6.27273H31.3636V8.36364H33.4545V10.4545H35.5455V12.5455H37.6364V14.6364H39.7273V16.7273H41.8182V18.8182H43.9091V20.9091H46V23H43.9091V25.0909H41.8182V27.1818H39.7273V25.0909H37.6364V23H35.5455V20.9091H33.4545V18.8182H31.3636V16.7273H29.2727V14.6364H27.1818V46H18.8182V14.6364H16.7273V16.7273H14.6364V18.8182H12.5455V20.9091H10.4545V23H8.36364V25.0909H6.27273V27.1818H4.18182V25.0909H2.09091V23H0V20.9091H2.09091V18.8182H4.18182V16.7273H6.27273V14.6364H8.36364V12.5455H10.4545V10.4545H12.5455V8.36364H14.6364V6.27273H16.7273V4.18182H18.8182V2.09091H20.9091V0Z" fill="#E97526"/>
</svg>
