<svg width="80" height="80" viewBox="0 0 80 80" fill="none" xmlns="http://www.w3.org/2000/svg">
<g clip-path="url(#clip0_22_294)">
<path d="M69.8594 13.4687C62.5469 5.21875 51.9062 0 40 0C17.9063 0 0 17.9063 0 40H10C10 23.4219 23.4219 10 40 10C49.1406 10 57.25 14.1406 62.7344 20.5938L53.3281 30H80V3.32812L69.8594 13.4687ZM40 70C30.8594 70 22.75 65.8594 17.2656 59.4063L26.6719 50H0V76.6719L10.1406 66.5312C17.4531 74.7812 28.1094 80 40 80C62.0937 80 80 62.0937 80 40H70C70 56.5781 56.5781 70 40 70Z" fill="#0098CD"/>
</g>
<defs>
<clipPath id="clip0_22_294">
<rect width="80" height="80" fill="white"/>
</clipPath>
</defs>
</svg>
