<svg width="45" height="45" viewBox="0 0 45 45" fill="none" xmlns="http://www.w3.org/2000/svg">
<g clip-path="url(#clip0_23_1549)">
<path d="M22.8717 44.9063C35.0043 44.9063 44.8396 35.0709 44.8396 22.9384C44.8396 10.8058 35.0043 0.970459 22.8717 0.970459C10.7392 0.970459 0.903809 10.8058 0.903809 22.9384C0.903809 35.0709 10.7392 44.9063 22.8717 44.9063Z" fill="black"/>
<path d="M14.2377 13.867V20.4246L11.8332 22.8291L14.2377 25.2335V32.119L15.3306 33.1026H17.5165V36.4907H13.3633L10.3031 33.6491V25.6707L8.22656 23.7034V22.064L10.3031 20.0967V12.4462L13.3633 9.60461H17.5165V12.9927H15.3306L14.2377 13.867Z" fill="white"/>
<path d="M30.4132 12.8834H28.2273V9.49536H32.3804L35.4406 12.337V19.9875L37.5172 21.9548V23.5942L35.4406 25.5614V33.5398L32.3804 36.3814H28.2273V32.9934H30.4132L31.5061 32.0097V25.1243L33.9105 22.7198L31.5061 20.4247V13.8671L30.4132 12.8834Z" fill="white"/>
</g>
<defs>
<clipPath id="clip0_23_1549">
<rect width="43.9358" height="43.9358" fill="white" transform="translate(0.903809 0.970459)"/>
</clipPath>
</defs>
</svg>
