<svg width="67" height="69" viewBox="0 0 67 69" fill="none" xmlns="http://www.w3.org/2000/svg">
<path d="M33.5076 46.575C30.3107 46.575 27.2447 45.3028 24.9842 43.0383C22.7236 40.7738 21.4537 37.7025 21.4537 34.5C21.4537 31.2975 22.7236 28.2262 24.9842 25.9617C27.2447 23.6972 30.3107 22.425 33.5076 22.425C36.7045 22.425 39.7705 23.6972 42.031 25.9617C44.2916 28.2262 45.5615 31.2975 45.5615 34.5C45.5615 37.7025 44.2916 40.7738 42.031 43.0383C39.7705 45.3028 36.7045 46.575 33.5076 46.575ZM59.0964 37.8465C59.2341 36.7425 59.3374 35.6385 59.3374 34.5C59.3374 33.3615 59.2341 32.223 59.0964 31.05L66.3632 25.4265C67.0175 24.909 67.1897 23.9775 66.7764 23.2185L59.8885 11.2815C59.4752 10.5225 58.5453 10.212 57.7876 10.5225L49.2121 13.9725C47.4213 12.627 45.5615 11.454 43.3918 10.5915L42.1175 1.44901C42.0476 1.04266 41.8363 0.674229 41.5211 0.409009C41.2059 0.143789 40.8072 -0.00110322 40.3956 6.32547e-06H26.6196C25.7587 6.32547e-06 25.0354 0.621007 24.8977 1.44901L23.6234 10.5915C21.4537 11.454 19.5939 12.627 17.8031 13.9725L9.22756 10.5225C8.46988 10.212 7.54001 10.5225 7.12673 11.2815L0.238776 23.2185C-0.208941 23.9775 -0.00230163 24.909 0.652054 25.4265L7.91885 31.05C7.78109 32.223 7.67777 33.3615 7.67777 34.5C7.67777 35.6385 7.78109 36.7425 7.91885 37.8465L0.652054 43.5735C-0.00230163 44.091 -0.208941 45.0225 0.238776 45.7815L7.12673 57.7185C7.54001 58.4775 8.46988 58.7535 9.22756 58.4775L17.8031 54.993C19.5939 56.373 21.4537 57.546 23.6234 58.4085L24.8977 67.551C25.0354 68.379 25.7587 69 26.6196 69H40.3956C41.2566 69 41.9798 68.379 42.1175 67.551L43.3918 58.4085C45.5615 57.5115 47.4213 56.373 49.2121 54.993L57.7876 58.4775C58.5453 58.7535 59.4752 58.4775 59.8885 57.7185L66.7764 45.7815C67.1897 45.0225 67.0175 44.091 66.3632 43.5735L59.0964 37.8465Z" fill="white"/>
</svg>
