<svg width="150" height="75" viewBox="0 0 150 75" fill="none" xmlns="http://www.w3.org/2000/svg">
<rect width="150" height="75" fill="none"/>
<path d="M30.5153 41.0011C30.5153 41.9025 30.3177 42.7113 29.9226 43.4275C29.5274 44.1437 28.9285 44.7117 28.1259 45.1315C27.3233 45.539 26.3355 45.7428 25.1624 45.7428C23.3967 45.7428 22.0631 45.3167 21.1617 44.4647C20.2603 43.6127 19.8096 42.4582 19.8096 41.0011V32.481H23.6251V40.89C23.6251 41.6185 23.7424 42.1557 23.977 42.5014C24.224 42.8348 24.6191 43.0015 25.1624 43.0015C25.7057 43.0015 26.0947 42.8348 26.3293 42.5014C26.5763 42.1557 26.6997 41.6185 26.6997 40.89V32.481H30.5153V41.0011Z" fill="#0098CD"/>
<path d="M42.3796 45.3723H37.6009L34.7856 35.9632L34.8411 36.3706C34.977 37.272 35.0819 38.0994 35.156 38.8526C35.2425 39.5935 35.2857 40.4331 35.2857 41.3716V45.3723H31.9147V32.481H36.6007L39.5272 41.9272L39.4716 41.5383C39.3235 40.6863 39.2062 39.896 39.1197 39.1675C39.0456 38.4266 39.0086 37.5746 39.0086 36.6114V32.481H42.3796V45.3723Z" fill="#0098CD"/>
<path d="M47.7948 32.481V45.3723H43.9793V32.481H47.7948Z" fill="#0098CD"/>
<path d="M59.7783 32.481L56.5185 45.3723H51.5916L48.128 32.481H52.1473L54.1106 42.7237L55.8702 32.481H59.7783Z" fill="#0098CD"/>
<path d="M68.5782 32.481L68.1892 35.1297H63.9291V37.5375H67.6706V40.1121H63.9291V42.7052H68.4855V45.3723H60.1136V32.481H68.5782Z" fill="#0098CD"/>
<path d="M74.2557 40.7789H73.5519V45.3723H69.7364V32.481H74.4594C76.324 32.481 77.7131 32.8144 78.6269 33.4812C79.5406 34.1357 79.9975 35.1667 79.9975 36.5744C79.9975 37.377 79.8185 38.0438 79.4604 38.5748C79.1023 39.1057 78.5219 39.6058 77.7193 40.075L80.868 45.3723H76.645L74.2557 40.7789ZM73.5519 38.2228H74.5521C75.0707 38.2228 75.4596 38.087 75.7189 37.8154C75.9782 37.5437 76.1079 37.13 76.1079 36.5744C76.1079 35.5865 75.5275 35.0926 74.3668 35.0926H73.5519V38.2228Z" fill="#0098CD"/>
<path d="M85.8552 32.1106C87.8186 32.1106 89.4053 32.6971 90.6154 33.8702L88.9299 35.852C88.0655 35.1605 87.1456 34.8148 86.1701 34.8148C85.7132 34.8148 85.3675 34.8951 85.1329 35.0556C84.8983 35.2161 84.781 35.4445 84.781 35.7409C84.781 35.9632 84.8427 36.1484 84.9662 36.2966C85.102 36.4324 85.3181 36.562 85.6144 36.6855C85.9231 36.809 86.4171 36.9819 87.0962 37.2041C88.4545 37.6363 89.43 38.1796 90.0227 38.8341C90.6277 39.4885 90.9302 40.3837 90.9302 41.5197C90.9302 42.3471 90.708 43.0818 90.2634 43.7239C89.8313 44.3536 89.2077 44.8475 88.3927 45.2056C87.5778 45.5637 86.6146 45.7428 85.5033 45.7428C84.3673 45.7428 83.3671 45.5637 82.5028 45.2056C81.6384 44.8475 80.9099 44.3783 80.3172 43.7979L82.1879 41.742C83.1634 42.5817 84.2191 43.0015 85.3551 43.0015C85.8861 43.0015 86.2874 42.8965 86.5591 42.6866C86.8307 42.4644 86.9665 42.1804 86.9665 41.8346C86.9665 41.5753 86.9048 41.3592 86.7813 41.1864C86.6702 41.0135 86.4665 40.853 86.1701 40.7048C85.8737 40.5566 85.4416 40.3961 84.8736 40.2232C83.3795 39.754 82.3361 39.1922 81.7434 38.5377C81.1506 37.8709 80.8543 37.0436 80.8543 36.0558C80.8543 35.2532 81.0704 34.5555 81.5026 33.9628C81.9347 33.3701 82.5275 32.9132 83.2807 32.5922C84.0462 32.2711 84.9044 32.1106 85.8552 32.1106Z" fill="#0098CD"/>
<path d="M95.818 32.481V45.3723H92.0025V32.481H95.818Z" fill="#0098CD"/>
<path d="M101.541 32.481C103.616 32.481 105.276 32.9441 106.524 33.8702C107.771 34.7839 108.394 36.4509 108.394 38.8711C108.394 41.2543 107.795 42.9336 106.598 43.9091C105.4 44.8846 103.788 45.3723 101.763 45.3723H97.4108V32.481H101.541ZM101.226 35.1667V42.6866H101.986C102.578 42.6866 103.054 42.5693 103.412 42.3347C103.77 42.1001 104.035 41.7111 104.208 41.1678C104.381 40.6122 104.468 39.8466 104.468 38.8711C104.468 37.908 104.375 37.1609 104.19 36.63C104.017 36.0866 103.751 35.71 103.393 35.5001C103.035 35.2778 102.572 35.1667 102.004 35.1667H101.226Z" fill="#0098CD"/>
<path d="M116.145 45.3723L115.645 42.8718H112.589L112.108 45.3723H108.125L111.885 32.481H116.442L120.183 45.3723H116.145ZM113.126 40.2047H115.108L114.108 35.1482L113.126 40.2047Z" fill="#0098CD"/>
<path d="M124.639 32.481C126.714 32.481 128.375 32.9441 129.622 33.8702C130.869 34.7839 131.492 36.4509 131.492 38.8711C131.492 41.2543 130.894 42.9336 129.696 43.9091C128.498 44.8846 126.887 45.3723 124.862 45.3723H120.509V32.481H124.639ZM124.324 35.1667V42.6866H125.084C125.677 42.6866 126.152 42.5693 126.51 42.3347C126.868 42.1001 127.134 41.7111 127.306 41.1678C127.479 40.6122 127.566 39.8466 127.566 38.8711C127.566 37.908 127.473 37.1609 127.288 36.63C127.115 36.0866 126.85 35.71 126.492 35.5001C126.133 35.2778 125.67 35.1667 125.102 35.1667H124.324Z" fill="#0098CD"/>
<path d="M5.53769 20L3.96333 31.2243H9.14947L8.74199 32.7616H2L3.79663 20H5.53769Z" fill="#0098CD"/>
<path d="M17.8768 32.7616L17.3767 29.5573H12.5795L11.1718 32.7616H9.37521L15.2281 20H17.4323L19.6734 32.7616H17.8768ZM13.1907 28.1311H17.1544L16.1172 21.4632L13.1907 28.1311Z" fill="#0098CD"/>
<path d="M137.159 42.8574L136.77 44.2651H131.862L131.269 48.4325H135.529L135.344 49.8402H131.084L130.473 54.2114H135.714L135.51 55.619H128.528L130.324 42.8574H137.159Z" fill="#0098CD"/>
<path d="M147.203 55.619H144.925L141.276 44.3762C141.264 45.8456 141.103 47.6608 140.795 49.8217L139.98 55.619H138.331L140.128 42.8574H142.425L146.092 54.1188C146.092 53.2791 146.111 52.5444 146.148 51.9147C146.197 51.2726 146.271 50.5564 146.37 49.7661L147.352 42.8574H149L147.203 55.619Z" fill="#0098CD"/>
</svg>
