<?xml version="1.0" encoding="utf-8"?>
<!-- Generator: Adobe Illustrator 26.0.1, SVG Export Plug-In . SVG Version: 6.00 Build 0)  -->
<svg version="1.1" xmlns="http://www.w3.org/2000/svg" xmlns:xlink="http://www.w3.org/1999/xlink" x="0px" y="0px"
	 viewBox="0 0 60.7 32" style="enable-background:new 0 0 60.7 32;" xml:space="preserve">
<style type="text/css">
	.st0{fill:#2196C2;}
	.st1{fill:#2497C2;}
	.st2{fill:#1F96C2;}
	.st3{fill:#1C95C2;}
	.st4{fill:#2296C2;}
	.st5{fill:#2B98C3;}
	.st6{fill:#2998C3;}
	.st7{fill:#1E96C2;}
	.st8{fill:#2A98C3;}
	.st9{fill:#2096C2;}
	.st10{fill:#2E99C4;}
	.st11{fill:#339AC4;}
	.st12{fill:#369AC5;}
	.st13{fill:#2897C3;}
	.st14{fill:#020203;}
	.st15{fill:#020304;}
	.st16{fill:#FEFFFF;}
	.st17{fill:#FFFFFF;}
	.st18{fill:#F2F7FB;}
	.st19{opacity:0.33;fill:#FFFFFF;}
	.st20{opacity:0.33;}
</style>
<g id="Capa_1">
	<path d="M50.1,32H10.6C4.7,32,0,27.3,0,21.4V10.6C0,4.7,4.7,0,10.6,0h39.5C56,0,60.7,4.7,60.7,10.6v10.8C60.7,27.3,56,32,50.1,32z"
		/>
	<g>
		<path class="st17" d="M8.2,24.5l-1.1-2.1l7.5-14.9h10.1l1.1,2.1l-4.3,8.5h-8l-3.2,6.4H8.2z M9.6,24l-0.8-1.6H7.7L8.5,24H9.6z
			 M13.3,17.6L12.5,16l-3.2,6.4l0.8,1.6L13.3,17.6z M20.8,17.6L20,16H13l0.8,1.6H20.8z M15.2,13.9l1.3-2.7l-0.8-1.6l-2.1,4.3H15.2z
			 M19.4,13.9l1.1-2.1h-3.7l-1.1,2.1H19.4z M20.8,11.2l0.8-1.6h-5.3l0.8,1.6H20.8z M25.3,9.6L24.5,8l-4,8l0.8,1.6L25.3,9.6z"/>
		<path class="st17" d="M22.1,24.5L21,22.4l7.5-14.9h2.1l1.1,2.1l-2.1,4.3h3.7l3.2-6.4h2.1l1.1,2.1l-7.5,14.9h-2.1L29,22.4l2.1-4.3
			h-3.7l-3.2,6.4H22.1z M23.4,24l-0.8-1.6h-1.1l0.8,1.6H23.4z M27.2,17.6L26.4,16l-3.2,6.4L24,24L27.2,17.6z M31.4,17.6l0.8-1.6
			h-5.3l0.8,1.6H31.4z M29,13.9l2.1-4.3L30.4,8l-2.9,5.9H29z M31.4,24l-0.8-1.6h-1.1l0.8,1.6H31.4z M39.1,9.6L38.3,8l-7.2,14.4
			L32,24L39.1,9.6z"/>
		<path class="st17" d="M36,24.5l-1.1-2.1l7.5-14.9h10.1l1.1,2.1l-4.3,8.5h-8l-3.2,6.4H36z M37.3,24l-0.8-1.6h-1.1l0.8,1.6H37.3z
			 M41,17.6L40.2,16L37,22.4l0.8,1.6L41,17.6z M48.5,17.6L47.7,16h-6.9l0.8,1.6H48.5z M42.9,13.9l1.3-2.7l-0.8-1.6l-2.1,4.3H42.9z
			 M47.1,13.9l1.1-2.1h-3.7l-1.1,2.1H47.1z M48.5,11.2l0.8-1.6h-5.3l0.8,1.6H48.5z M53,9.6L52.2,8l-4,8l0.8,1.6L53,9.6z"/>
	</g>
</g>
<g id="Capa_2">
</g>
</svg>
