<?xml version="1.0" encoding="utf-8"?>
<!-- Generator: Adobe Illustrator 26.0.1, SVG Export Plug-In . SVG Version: 6.00 Build 0)  -->
<svg version="1.1" xmlns="http://www.w3.org/2000/svg" xmlns:xlink="http://www.w3.org/1999/xlink" x="0px" y="0px"
	 viewBox="0 0 63.5 31.5" style="enable-background:new 0 0 63.5 31.5;" xml:space="preserve">
<style type="text/css">
	.st0{fill:#2196C2;}
	.st1{fill:#2497C2;}
	.st2{fill:#1F96C2;}
	.st3{fill:#1C95C2;}
	.st4{fill:#2296C2;}
	.st5{fill:#2B98C3;}
	.st6{fill:#2998C3;}
	.st7{fill:#1E96C2;}
	.st8{fill:#2A98C3;}
	.st9{fill:#2096C2;}
	.st10{fill:#2E99C4;}
	.st11{fill:#339AC4;}
	.st12{fill:#369AC5;}
	.st13{fill:#2897C3;}
	.st14{fill:#020203;}
	.st15{fill:#020304;}
	.st16{fill:#FEFFFF;}
	.st17{fill:#FFFFFF;}
	.st18{fill:#F2F7FB;}
	.st19{opacity:0.33;fill:#FFFFFF;}
	.st20{opacity:0.33;}
</style>
<g id="Capa_1">
	<path d="M54.4,31.5H9.2c-5.1,0-9.2-4.1-9.2-9.2V9.2C0,4.1,4.1,0,9.2,0h45.2c5.1,0,9.2,4.1,9.2,9.2v13.2
		C63.5,27.4,59.4,31.5,54.4,31.5z"/>
	<g>
		<path class="st17" d="M10.8,22.2c-0.8-0.4-1.5-1-2.1-1.8l0.9-0.8c0.6,0.7,1.1,1.3,1.7,1.6s1.4,0.5,2.3,0.5c1.2,0,2.1-0.2,2.8-0.7
			s1-1.1,1-1.9c0-0.5-0.1-0.9-0.4-1.3s-0.7-0.6-1.3-0.8s-1.5-0.5-2.7-0.7c-1.3-0.3-2.3-0.7-2.9-1.3c-0.6-0.6-1-1.4-1-2.4
			c0-1.2,0.4-2.1,1.3-2.8c0.8-0.7,2-1,3.5-1c1.1,0,2,0.2,2.7,0.5s1.4,0.9,1.8,1.6l-0.9,0.8c-0.4-0.6-0.9-1-1.5-1.3
			c-0.6-0.3-1.3-0.5-2.1-0.5c-1,0-1.8,0.2-2.4,0.7c-0.6,0.5-0.9,1.1-0.9,1.9c0,0.7,0.3,1.2,0.8,1.6c0.5,0.4,1.4,0.7,2.6,1
			c1.3,0.3,2.3,0.5,3,0.9c0.7,0.3,1.2,0.7,1.5,1.2c0.3,0.5,0.4,1.1,0.4,1.8c0,1.2-0.4,2.2-1.3,2.8s-2.1,1-3.8,1
			C12.5,22.7,11.6,22.5,10.8,22.2z"/>
		<path class="st17" d="M22.4,21.5c-0.9-0.8-1.4-2.1-1.4-3.7v-4.1c0-1.6,0.5-2.8,1.4-3.6s2.2-1.3,3.9-1.3c1.1,0,2.1,0.2,2.9,0.5
			c0.8,0.4,1.5,0.9,2,1.6l-1,0.7c-0.5-0.6-1-1.1-1.6-1.3s-1.3-0.4-2.2-0.4c-1.3,0-2.3,0.3-2.9,1s-1,1.6-1,2.8v4.1
			c0,1.2,0.3,2.2,1,2.8s1.7,1,3,1c0.9,0,1.6-0.1,2.3-0.4s1.2-0.8,1.6-1.4l1,0.8c-0.6,0.8-1.2,1.3-2,1.7s-1.7,0.5-2.8,0.5
			C24.7,22.7,23.3,22.3,22.4,21.5z"/>
		<path class="st17" d="M34.9,22.2c-0.8-0.4-1.5-1-2.1-1.8l0.9-0.8c0.6,0.7,1.1,1.3,1.7,1.6s1.4,0.5,2.3,0.5c1.2,0,2.1-0.2,2.8-0.7
			s1-1.1,1-1.9c0-0.5-0.1-0.9-0.4-1.3s-0.7-0.6-1.3-0.8c-0.6-0.2-1.5-0.5-2.7-0.7c-1.3-0.3-2.3-0.7-2.9-1.3c-0.6-0.6-1-1.4-1-2.4
			c0-1.2,0.4-2.1,1.3-2.8c0.8-0.7,2-1,3.5-1c1.1,0,2,0.2,2.7,0.5s1.4,0.9,1.8,1.6l-0.9,0.8c-0.4-0.6-0.9-1-1.5-1.3S38.8,9.9,38,9.9
			c-1,0-1.8,0.2-2.4,0.7c-0.6,0.5-0.9,1.1-0.9,1.9c0,0.7,0.3,1.2,0.8,1.6c0.5,0.4,1.4,0.7,2.6,1c1.3,0.3,2.3,0.5,3,0.9
			c0.7,0.3,1.2,0.7,1.5,1.2s0.4,1.1,0.4,1.8c0,1.2-0.4,2.2-1.3,2.8c-0.9,0.6-2.1,1-3.8,1C36.6,22.7,35.7,22.5,34.9,22.2z"/>
		<path class="st17" d="M46.8,22.2c-0.8-0.4-1.5-1-2.1-1.8l0.9-0.8c0.6,0.7,1.1,1.3,1.7,1.6c0.6,0.3,1.4,0.5,2.3,0.5
			c1.2,0,2.1-0.2,2.8-0.7s1-1.1,1-1.9c0-0.5-0.1-0.9-0.4-1.3s-0.7-0.6-1.3-0.8s-1.5-0.5-2.7-0.7c-1.3-0.3-2.3-0.7-2.9-1.3
			c-0.6-0.6-1-1.4-1-2.4c0-1.2,0.4-2.1,1.3-2.8c0.8-0.7,2-1,3.5-1c1.1,0,2,0.2,2.7,0.5s1.4,0.9,1.8,1.6l-0.9,0.8
			c-0.4-0.6-0.9-1-1.5-1.3c-0.6-0.3-1.3-0.5-2.1-0.5c-1,0-1.8,0.2-2.4,0.7c-0.6,0.5-0.9,1.1-0.9,1.9c0,0.7,0.3,1.2,0.8,1.6
			c0.5,0.4,1.4,0.7,2.6,1c1.3,0.3,2.3,0.5,3,0.9c0.7,0.3,1.2,0.7,1.5,1.2s0.4,1.1,0.4,1.8c0,1.2-0.4,2.2-1.3,2.8s-2.1,1-3.8,1
			C48.6,22.7,47.6,22.5,46.8,22.2z"/>
	</g>
</g>
<g id="Capa_2">
</g>
</svg>
