<?xml version="1.0" encoding="utf-8"?>
<!-- Generator: Adobe Illustrator 26.0.1, SVG Export Plug-In . SVG Version: 6.00 Build 0)  -->
<svg version="1.1" xmlns="http://www.w3.org/2000/svg" xmlns:xlink="http://www.w3.org/1999/xlink" x="0px" y="0px"
	 viewBox="0 0 402.4 384" style="enable-background:new 0 0 402.4 384;" xml:space="preserve">
<style type="text/css">
	.st0{fill:#2196C2;}
	.st1{fill:#2497C2;}
	.st2{fill:#1F96C2;}
	.st3{fill:#1C95C2;}
	.st4{fill:#2296C2;}
	.st5{fill:#2B98C3;}
	.st6{fill:#2998C3;}
	.st7{fill:#1E96C2;}
	.st8{fill:#2A98C3;}
	.st9{fill:#2096C2;}
	.st10{fill:#2E99C4;}
	.st11{fill:#339AC4;}
	.st12{fill:#369AC5;}
	.st13{fill:#2897C3;}
	.st14{fill:#020203;}
	.st15{fill:#020304;}
	.st16{fill:#FEFFFF;}
	.st17{fill:#FFFFFF;}
	.st18{fill:#F2F7FB;}
	.st19{opacity:0.33;fill:#FFFFFF;}
	.st20{opacity:0.33;}
</style>
<g id="Capa_1">
	<g>
		<path d="M381.2,299c0-0.1,0-0.1,0-0.2c0,0,0-0.1,0-0.2c-0.1-0.2-0.1-0.5-0.2-0.7c-0.2-0.6-0.4-1.2-0.6-1.8c-0.4-1-1-1.9-1.7-2.4
			c-0.2-0.1-0.3-0.2-0.4-0.3c-1.1-0.5-2.2-0.9-3.3-1.4c-0.5-0.2-3.2-1.3-4.3-1.8c-4.1-1.6-8.2-2.6-12.4-3.9
			c-2.4-0.8-4.6-1.7-6.8-2.8c-4-0.5-8-0.7-12-0.8c-0.9,0.5-1.8,0.9-2.8,1.2c-2.1,0.7-3.9,1.6-6.1,2.5c-4.8,1.9-9.9,3-14.5,5.4
			c-1.1,0.6-2.2,0.3-2.9-0.4c-1-0.3-1.7-1.2-1.7-2.4c0-2.7,1.5-4.8,2.4-7.2c1-2.5,1.9-4.8,3.3-7.1c1.1-1.9,1.3-3.8,0.9-6
			c-0.4-2.1-2-3.1-3.5-4.5c-5-0.5-10.1-1-16.3-1.6c3.7-2.1,6.3-3.6,8.9-5c3.6-1.9,6.4-4.3,4.1-8.7c-2.3-4.2-5.8-3.6-9.4-1.6
			c-0.6,0.3-1.2,0.6-2,1c-3.8-4.4-7.8-4.3-12-0.4c-0.7,0.6-2.3,1.1-3,0.7c-3.8-2.2-6.6-0.4-9.5,1.9c-5.2,4.2-10.6,8.1-15.8,12.3
			c-3.7,3-7.7,3.5-12.3,2.6c0.3-2,0.5-3.8,0.8-6.2h-73.7c2.2-7,4.1-13.1,6-19.3c2.6-8.8,5.1-17.6,7.8-26.3c0.3-1.1,1.1-2.4,2-3.1
			c4.9-3.7,5.2-5.1,1.6-10.1c-0.9-1.2-1.6-2.4-2.4-3.6c7.8-9.3,7.8-9.3-3.8-14.5c1-3.2,2.1-6.5,3.3-10.4c1.6,1.2,2.9,2.2,4.1,3.1
			c9.7,7.5,20.6,7.2,28.5-2.1c4.7-5.6,7.7-12.7,11.2-19.2c1.1-2,1.5-4.4,2.1-6.4c3.4-0.6,6.7-0.9,9.7-2c1.2-0.5,2.7-3.4,2.2-4.4
			c-3.2-6.7-2.3-13.1,0-19.7c1.5-4.2,0.6-7.1-4.7-7.2c-3,0-4.2-1.5-4.4-4.7c-0.3-4.8-1.4-9.5-2.2-14.8c2.5-1.1,5.4-1.9,7.8-3.5
			c6.5-4.5,13.1-8.9,19-14.2c1.9-1.7,1.7-5.8,2.5-8.9c-3.1-0.2-6.2-0.5-9.4-0.7c-0.9,0-1.8,0.5-3.4,1c0.4-1.3,0.6-2,0.8-2.7
			c2.1-7.6,0.3-10-7.5-9.3c-5.2,0.5-9.2-1-13.8-3.8c-22.2-13.1-45.6-22.6-72.1-17.7c-22,4.1-34,19-36.6,43.4
			c-2.9,27.4,1.7,54.1,7.6,80.7c1.9,8.6,4.2,17.1,6.4,25.6c-33.2,21.6-54.5,53.4-76.3,86.1c-2.3,4.7-5.3,9-8.3,13.3
			c-4.9,6.9-8.7,14-12.7,21.5c-4.5,8.4-9.1,16.7-13.5,25.2c-1,2-3.5,5.8-4.8,9.4c0,0.2,0,0.4,0,0.6c0,1.6,0.2,3.1,0.6,4.6
			c0.4,0,0.8,0.1,1.2,0.2c4.9-0.3,9.8-0.3,14.7,0c0.7-0.4,1.5-0.7,2.6-0.7c15.9-0.4,32,0.8,47.9,1.7c0.7-0.4,1.5-0.6,2.4-0.6
			c3.1,0,5.9-1.1,9-0.3c2.9,0.8,5.4,2.6,8.4,3.3c6.6,1.5,13.6,1.5,20.4,1.5c14-0.1,28.1-2.8,42-1.3c14.5,1.6,28.6,2.5,43.3,1.9
			c13.6-0.5,27.1-1.2,40.7-0.8c3.5-0.4,6.9-0.7,10.4-0.5c0.8-0.1,1.6-0.3,2.4-0.4c0.4-0.1,0.8-0.2,1.2-0.2c2.3-1.2,4.5-2.7,7-3.9
			c4.2-2,8.8-2.6,13.4-3.2c6.3-0.8,12.8-1.7,19.2-3.3c1.9-0.8,3.9-1.5,5.7-2.5c3-1.5,6-3.2,9.3-4c0.3-0.1,0.6-0.2,1-0.2
			c0.7-0.1,1.3-0.2,2-0.3c2.3-0.6,4.6-0.9,6.9-1.6c2.5-0.7,4.8-1.5,7.4-1.4c2.7,0,5,1.5,7.6,1.6c0.7,0,1.2,0.2,1.8,0.4
			c0.3,0,0.7,0.1,1,0.2c0.2,0.1,0.4,0.1,0.6,0.2c0.9-0.2,1.7-0.5,2.5-0.9c0,0,0.1,0,0.1-0.1c0.7-0.3,1.3-0.7,2-1.1
			c0-0.3,0.1-0.5,0.2-0.8c-0.7-1.3,0-3.4,1.5-3.6c1.2-0.2,2.5-0.3,3.7-0.4c0.8-0.1,1.7-0.3,2.1-0.5c0,0,0,0,0.1,0
			c0.1-0.2,0.2-0.4,0.4-0.6c0.1-0.1,0.3-0.2,0.4-0.3c0,0,0,0,0,0c0-0.1,0.1-0.2,0.1-0.3c0-0.1,0.1-0.1,0.1-0.2
			c0.2-1.3,1.6-2.5,3.1-2.2c1.4,0.3,3,0.9,4.5,0.4c1.1-1,2-2.3,2.7-3.8c0-0.2,0.1-0.5,0.1-0.7c0.1-1.6-0.1-3-1.5-4.1
			c-0.9-0.7-1.8-1.3-2.7-2c-0.1-0.1-0.3-0.3-0.4-0.4c-0.6-0.4-1.3-0.7-1.9-1.1c-0.1,0-0.3,0-0.4,0c0-0.1,0-0.2,0-0.2
			c-0.7-0.5-1.4-0.9-2.1-1.3c-1.8-1-1.6-4.3,0.6-4.6c1.8-0.3,3.4,0,5.1,0.6c1.3,0.4,2.6,0.8,4,0.8c0.7,0,1.5,0,2.2-0.1
			c0.4-0.1,0.7-0.1,1.1-0.2c0.2-0.1,0.4-0.1,0.6-0.2c0.3-0.1,0.3-0.1,0.2-0.1c0.2-0.1,0.4-0.2,0.7-0.4c0.1,0,0.1-0.1,0.1-0.1
			c0,0,0-0.1,0.1-0.1c0.1-0.1,0.5-0.6,0.4-0.5c0.1-0.1,0.2-0.3,0.3-0.4c0,0,0,0,0,0c0-0.1,0.1-0.2,0.1-0.3c0-0.2,0.1-0.4,0.1-0.6
			c0-0.1,0-0.4,0-0.4C381.2,299.5,381.2,299.3,381.2,299z M308.1,291.6c-0.5,1.2-2.1,2.5-3.5,2.9c-3.8,1.1-7.8,1.9-11.7,2.6
			c-4.8,0.9-9.7,3-14-1.9c4.6-2.7,9.5-5.4,14.3-8.3c4.3-2.5,5.7-5.8,3.6-8.9c-2.7-3.9-6-3.3-9.6-1.1c-2.8,1.8-5.7,3.3-8.6,5
			c-1.4-6.9,0.6-9.4,7-8.9c8.9,0.8,17.8,1.7,27.6,2.7C311.4,281.5,310,286.6,308.1,291.6z M304.2,248.7c1.2-0.6,3.3,0.8,5,1.3
			c-0.5,1.6-0.6,3.9-1.7,4.5c-7.6,4.2-14.6,10.6-25,5.8C289.9,256.3,296.9,252.3,304.2,248.7z M292.1,247.8c1-0.7,3.3,0.3,4.9,0.5
			c0,0.6,0,1.3-0.1,1.9c-7,3.8-14,7.6-21.1,11.5l-0.7-1.1C280.7,256.2,286.2,251.8,292.1,247.8z M282.9,250.2
			c-5.8,5.7-10.8,12.6-19.9,13.2C269.4,258.6,274.8,252.2,282.9,250.2z M273.2,264.2c10.7-0.5,21.5,0.8,32.3,1.4
			c2.7,0.1,5.4,0.1,7.9,0.9c1.5,0.5,2.5,2.5,3.7,3.8c-1.5,1-3,2.9-4.4,2.8c-8.8-0.5-17.6-1.5-26.3-2.4c-7-0.7-9.6,1.4-10.6,8.5
			c-0.4,2.5-1.3,4.9-2.2,8.4c4.6-2.7,8.7-5.1,12.7-7.4c1.4-0.8,2.8-2.1,4.4-2.3c1.4-0.2,3.9,0.3,4.1,1.1c0.5,1.3,0.1,4.1-0.8,4.6
			c-10.5,5.6-19.5,14.7-33.1,12.8c-6.7-0.9-13.5-0.2-20.7-0.2c2.1-9.7,4.1-18.8,6-27.4C255.3,267.2,264.2,264.7,273.2,264.2z
			 M180.1,260.9c21.5,0.4,43,0.1,65.4,0.1c-2.6,12-5,23.4-7.6,35h-75.6c3.1-9.8,6.4-19.1,8.9-28.7
			C172.6,262.3,174.9,260.8,180.1,260.9z M192.5,188.8c-1.4,1.8-2.8,3.7-4.6,6c-2-4-3.5-6.9-4.9-9.8l0.5-1
			C186.5,185.6,189.5,187.2,192.5,188.8z M245.1,117.1c-0.8,3.3-1.4,6.1-2.4,10.2c-1.5-4.5-2.5-7.6-3.7-11.4
			C241.3,116.4,242.9,116.7,245.1,117.1z M240.2,127.1c1.5,3.3,0.8,6.3-2,7.8c-2.4,1.3-5.8,2.1-8.2,1.4c-5.7-1.8-7.5-7.1-8.8-12.4
			c-0.8-3.4-1.2-7-1.7-10.5c-0.5,0.1-1,0.1-1.4,0.2c-0.1,7.3,0.9,14.5,5.6,20.5c5,6.6,11.6,6.7,18.8,0.1c1,2.8,1.8,5.3,3.1,9.1
			c-4.3,0.5-8,0.9-12.2,1.4c-0.6,2.1-1.3,4.6-2.2,7.1c-0.9,2.5-1.9,4.9-3.5,9c-4.2-4.8-7.6-8.8-11.1-12.7
			c0.9,6.2,4.8,10.3,10.5,13.5c-4.1,7.6-8.7,14.4-17.8,16c-9.4,1.6-15.5-4.3-21.2-10.7c-1.7,5.4-3.2,10.2-4.8,15.4
			c-1.5-0.6-2.7-1-4.1-1.5c9.6-23,19.1-45.7,28.8-68.3c0.4-1,2.6-2.1,3.7-1.9c7.4,1.2,14.8,2.6,22.1,4.3c1.4,0.3,2.9,2.1,3.5,3.5
			C238.4,121,238.9,124.2,240.2,127.1z M233.3,95c0.9,5.8,1.8,11.4,2.8,17.8c-9.2-1.8-17.6-3.4-26.1-5c0.7-4.6,2.4-7.4,7.3-8.2
			C222.5,98.7,227.5,96.8,233.3,95z M132.6,158c-4.9-21.1-8.4-42.5-8.4-64.2c0-6.5,0.7-13,1.6-19.4c3.8-29.1,24.5-39.1,46.7-38.8
			c20.7,0.3,39.2,7.9,57.5,18c-17.6,42-35.1,83.8-52.8,126.1c-13.4-5.3-25.5-2-38.2,3.7C136.8,174.7,134.5,166.4,132.6,158z
			 M268.6,345.5c-3,2.4-9.2,1-14,1c-45.3,0-90.7,0.1-136,0c-16.7,0-28.3-14.2-24.4-29.5c0.9-3.4,2.2-6.6,3.3-10
			c9.1-27.1,18.2-54.3,27.3-81.4c0.6-1.7,0.9-3.4,1.4-5c-0.4-0.2-0.9-0.3-1.3-0.5c-0.6,1.4-1.3,2.7-1.8,4.2
			c-10,29.8-20,59.6-30,89.5c-3.4,10.1-1.7,17.7,6.5,28.2H24.1c0.1-0.6,0.1-1.3,0.4-1.8C45.1,298.7,68,258.7,97.6,223
			c10.2-12.4,21.3-23.9,34.8-32.8c4.9-3.3,10.3-5.8,15.4-8.7c0.2,0.4,0.5,0.7,0.7,1.1c-1.7,1.5-3.3,3.1-5,4.6
			c0.2,0.3,0.4,0.6,0.6,0.9c0.9-0.4,1.8-0.8,2.7-1.3c0.6-0.3,1-0.8,1.6-1.2c8.2-5.8,17-9.2,26.6-4.1c9.8,5.2,12,14.8,11.3,24.9
			c-0.4,6.4-1.9,12.9-3.8,19c-9.3,29.9-18.9,59.7-28.4,89.5c-0.5,1.5-0.8,3.1-1.2,4.7c0.5,0.2,1.1,0.4,1.6,0.6
			c1.9-5.7,3.9-11.4,5.5-17.2c0.9-3.1,2.1-4.5,5.8-4.5c36.5,0.2,73,0.1,109.5,0.1c1.3,0,2.6,0.2,4.4,0.3
			c-2.4,11.3-4.7,22.4-7.2,33.4C271.5,336.7,271.6,343.1,268.6,345.5z M378.3,298c-0.9,3.7-3.8,2.9-6.5,2.1
			c-10.5-3.1-21-6.1-31.5-9.2c-0.3,0.3-0.5,0.6-0.8,1c1.4,1,2.7,2.1,4.1,3c8.4,5.2,16.7,10.3,25.1,15.4c2.2,1.4,5.2,2.8,3.1,6.1
			c-2.1,3.3-4.6,1.2-6.9-0.2c-8.2-5-16.3-10-24.5-15c-0.3,0.3-0.6,0.7-0.9,1c1.1,0.9,2,2.1,3.2,2.8c5.9,3.7,12,7.2,17.8,11.1
			c1.4,1,1.7,3.5,2.6,5.4c-2,0.1-4.5,1.1-6,0.3c-5.7-3-11.1-6.6-17.4-9.1c0.7,0.8,1.4,1.7,2.2,2.3c3.6,2.4,7.4,4.5,10.8,7.2
			c1.1,0.9,1,3.3,1.5,5c-1.8,0.2-4.4,1.3-5.1,0.6c-6.7-6.8-13.1-4.3-20.4-0.8c-16.3,7.8-33.9,11.8-51.8,13.9
			c-1.1,0.1-2.3,0.1-3.9,0.2c0.2-1.5,0.3-2.8,0.5-4c2.2-10.4,4.5-20.8,6.6-31.2c0.6-3.1,1.7-4.7,5.2-5.2
			c18.3-2.4,35.7-7.8,52.4-15.5c1.6-0.8,3.9-0.9,5.7-0.4c10.1,2.7,20.2,5.7,30.2,8.6C376.2,294,379.1,294.6,378.3,298z"/>
		<path class="st17" d="M154.5,320c1.9-5.7,3.9-11.4,5.5-17.2c0.9-3.1,2.1-4.5,5.8-4.5c36.5,0.2,73,0.1,109.5,0.1
			c1.3,0,2.6,0.2,4.4,0.3c-2.4,11.3-4.7,22.4-7.2,33.4c-1,4.7-0.9,11-3.9,13.5c-3,2.4-9.2,1-14,1c-45.3,0-90.7,0.1-136,0
			c-16.7,0-28.3-14.2-24.4-29.5c0.9-3.4,2.2-6.6,3.3-10c9.1-27.1,18.2-54.3,27.3-81.4c0.6-1.7,0.9-3.4,1.4-5
			c-0.4-0.2-0.9-0.3-1.3-0.5c-0.6,1.4-1.3,2.7-1.8,4.2c-10,29.8-20,59.6-30,89.5c-3.4,10.1-1.7,17.7,6.5,28.2c-25.3,0-50.3,0-75.5,0
			c0.1-0.6,0.1-1.3,0.4-1.8C45.1,298.7,68,258.7,97.6,223c10.2-12.4,21.3-23.9,34.8-32.8c4.9-3.3,10.3-5.8,15.4-8.7
			c0.2,0.4,0.5,0.7,0.7,1.1c-1.7,1.5-3.3,3.1-5,4.6c0.2,0.3,0.4,0.6,0.6,0.9c0.9-0.4,1.8-0.8,2.7-1.3c0.6-0.3,1-0.8,1.6-1.2
			c8.2-5.8,17-9.2,26.6-4.1c9.8,5.2,12,14.8,11.3,24.9c-0.4,6.4-1.9,12.9-3.8,19c-9.3,29.9-18.9,59.7-28.4,89.5
			c-0.5,1.5-0.8,3.1-1.2,4.7C153.4,319.6,154,319.8,154.5,320z"/>
		<path class="st17" d="M177.2,179.7c-13.4-5.3-25.5-2-38.2,3.7c-2.2-8.8-4.5-17.1-6.4-25.4c-4.9-21.1-8.4-42.5-8.4-64.2
			c0-6.5,0.7-13,1.6-19.4c3.8-29.1,24.5-39.1,46.7-38.8c20.7,0.3,39.2,7.9,57.5,18C212.4,95.6,194.9,137.5,177.2,179.7z"/>
		<path class="st17" d="M339.6,291.9c1.4,1,2.7,2.1,4.1,3c8.4,5.2,16.7,10.3,25.1,15.4c2.2,1.4,5.2,2.8,3.1,6.1
			c-2.1,3.3-4.6,1.2-6.9-0.2c-8.2-5-16.3-10-24.5-15c-0.3,0.3-0.6,0.7-0.9,1c1.1,0.9,2,2.1,3.2,2.8c5.9,3.7,12,7.2,17.8,11.1
			c1.4,1,1.7,3.5,2.6,5.4c-2,0.1-4.5,1.1-6,0.3c-5.7-3-11.1-6.6-17.4-9.1c0.7,0.8,1.4,1.7,2.2,2.3c3.6,2.4,7.4,4.5,10.8,7.2
			c1.1,0.9,1,3.3,1.5,5c-1.8,0.2-4.4,1.3-5.1,0.6c-6.7-6.8-13.1-4.3-20.4-0.8c-16.3,7.8-33.9,11.8-51.8,13.9
			c-1.1,0.1-2.3,0.1-3.9,0.2c0.2-1.5,0.3-2.8,0.5-4c2.2-10.4,4.5-20.8,6.6-31.2c0.6-3.1,1.7-4.7,5.2-5.2
			c18.3-2.4,35.7-7.8,52.4-15.5c1.6-0.8,3.9-0.9,5.7-0.4c10.1,2.7,20.2,5.7,30.2,8.6c2.4,0.7,5.4,1.3,4.5,4.7
			c-0.9,3.7-3.8,2.9-6.5,2.1c-10.5-3.1-21-6.1-31.5-9.2C340.1,291.2,339.9,291.6,339.6,291.9z"/>
		<path class="st17" d="M245.5,261c-2.6,12-5,23.4-7.6,35c-25.1,0-50,0-75.6,0c3.1-9.8,6.4-19.1,8.9-28.7c1.4-5.1,3.7-6.5,8.9-6.4
			C201.6,261.3,223.1,261,245.5,261z"/>
		<path class="st17" d="M217.9,113.5c-0.1,7.3,0.9,14.5,5.6,20.5c5,6.6,11.6,6.7,18.8,0.1c1,2.8,1.8,5.3,3.1,9.1
			c-4.3,0.5-8,0.9-12.2,1.4c-0.6,2.1-1.3,4.6-2.2,7.1c-0.9,2.5-1.9,4.9-3.5,9c-4.2-4.8-7.6-8.8-11.1-12.7
			c0.9,6.2,4.8,10.3,10.5,13.5c-4.1,7.6-8.7,14.4-17.8,16c-9.4,1.6-15.5-4.3-21.2-10.7c-1.7,5.4-3.2,10.2-4.8,15.4
			c-1.5-0.6-2.7-1-4.1-1.5c9.6-23,19.1-45.7,28.8-68.3c0.4-1,2.6-2.1,3.7-1.9c7.4,1.2,14.8,2.6,22.1,4.3c1.4,0.3,2.9,2.1,3.5,3.5
			c1.3,2.9,1.8,6.1,3.1,9c1.5,3.3,0.8,6.3-2,7.8c-2.4,1.3-5.8,2.1-8.2,1.4c-5.7-1.8-7.5-7.1-8.8-12.4c-0.8-3.4-1.2-7-1.7-10.5
			C218.9,113.4,218.4,113.4,217.9,113.5z M229.6,129.6c0.7,0.1,1.4,0.2,2.2,0.3c0.4-3,0.7-5.9,1.1-8.9c-0.7-0.1-1.3-0.2-2-0.3
			C227.9,123.3,227.8,126.3,229.6,129.6z"/>
		<path class="st17" d="M273.4,287.7c4.6-2.7,8.7-5.1,12.7-7.4c1.4-0.8,2.8-2.1,4.4-2.3c1.4-0.2,3.9,0.3,4.1,1.1
			c0.5,1.3,0.1,4.1-0.8,4.6c-10.5,5.6-19.5,14.7-33.1,12.8c-6.7-0.9-13.5-0.2-20.7-0.2c2.1-9.7,4.1-18.8,6-27.4
			c9.3-1.7,18.3-4.3,27.3-4.7c10.7-0.5,21.5,0.8,32.3,1.4c2.7,0.1,5.4,0.1,7.9,0.9c1.5,0.5,2.5,2.5,3.7,3.8c-1.5,1-3,2.9-4.4,2.8
			c-8.8-0.5-17.6-1.5-26.3-2.4c-7-0.7-9.6,1.4-10.6,8.5C275.3,281.8,274.4,284.2,273.4,287.7z"/>
		<path class="st17" d="M313.2,275.8c-1.8,5.8-3.3,10.9-5.2,15.8c-0.5,1.2-2.1,2.5-3.5,2.9c-3.8,1.1-7.8,1.9-11.7,2.6
			c-4.8,0.9-9.7,3.1-14-1.9c4.6-2.7,9.5-5.4,14.3-8.3c4.3-2.5,5.7-5.8,3.6-8.9c-2.7-3.9-6-3.3-9.6-1.1c-2.8,1.8-5.7,3.3-8.6,5
			c-1.4-6.9,0.6-9.4,7-8.9C294.6,273.8,303.5,274.8,313.2,275.8z"/>
		<path class="st17" d="M233.3,95c0.9,5.8,1.8,11.4,2.8,17.8c-9.2-1.8-17.6-3.4-26.1-5c0.7-4.6,2.4-7.4,7.3-8.2
			C222.5,98.7,227.5,96.8,233.3,95z"/>
		<path class="st17" d="M282.5,260.4c7.4-4,14.4-8,21.6-11.6c1.2-0.6,3.3,0.8,5,1.3c-0.5,1.6-0.6,3.9-1.7,4.5
			C300,258.7,292.9,265.2,282.5,260.4z"/>
		<path class="st17" d="M296.9,250.2c-7,3.8-14,7.6-21.1,11.5c-0.2-0.4-0.5-0.7-0.7-1.1c5.6-4.3,11.1-8.8,16.9-12.8
			c1-0.7,3.3,0.3,4.9,0.5C297,248.9,296.9,249.5,296.9,250.2z"/>
		<path class="st17" d="M263,263.3c6.5-4.7,11.8-11.1,19.9-13.2C277.1,255.9,272,262.8,263,263.3z"/>
		<path class="st17" d="M187.9,194.8c-2-4-3.5-6.9-4.9-9.8c0.2-0.3,0.4-0.7,0.5-1c3,1.6,6,3.2,9,4.8
			C191.1,190.6,189.7,192.4,187.9,194.8z"/>
		<path class="st17" d="M242.7,127.4c-1.5-4.5-2.5-7.6-3.7-11.4c2.3,0.4,4,0.7,6.1,1.2C244.3,120.4,243.7,123.2,242.7,127.4z"/>
		<path d="M229.6,129.6c-1.9-3.3-1.7-6.3,1.2-8.8c0.7,0.1,1.3,0.2,2,0.3c-0.4,3-0.7,5.9-1.1,8.9
			C231.1,129.8,230.4,129.7,229.6,129.6z"/>
	</g>
</g>
<g id="Capa_2">
</g>
</svg>
