<?xml version="1.0" encoding="utf-8"?>
<!-- Generator: Adobe Illustrator 26.0.1, SVG Export Plug-In . SVG Version: 6.00 Build 0)  -->
<svg version="1.1" xmlns="http://www.w3.org/2000/svg" xmlns:xlink="http://www.w3.org/1999/xlink" x="0px" y="0px"
	 viewBox="0 0 216 145.4" style="enable-background:new 0 0 216 145.4;" xml:space="preserve">
<style type="text/css">
	.st0{fill:#2196C2;}
	.st1{fill:#2497C2;}
	.st2{fill:#1F96C2;}
	.st3{fill:#1C95C2;}
	.st4{fill:#2296C2;}
	.st5{fill:#2B98C3;}
	.st6{fill:#2998C3;}
	.st7{fill:#1E96C2;}
	.st8{fill:#2A98C3;}
	.st9{fill:#2096C2;}
	.st10{fill:#2E99C4;}
	.st11{fill:#339AC4;}
	.st12{fill:#369AC5;}
	.st13{fill:#2897C3;}
	.st14{fill:#020203;}
	.st15{fill:#020304;}
	.st16{fill:#FEFFFF;}
	.st17{fill:#FFFFFF;}
	.st18{fill:#F2F7FB;}
	.st19{opacity:0.33;fill:#FFFFFF;}
	.st20{opacity:0.33;}
</style>
<g id="Capa_1">
	<g>
		<polygon points="73.9,11.5 192.2,11.5 157,121.8 37.3,121.8 		"/>
		<path d="M166.9,129.1c0,0,0.9,6.5-10.3,5.2L12,133.6c-1.3-10,5.5-8.2,5.5-8.2l132.5-0.3c11.1,2.1,11.6-8.5,11.6-8.5
			S191.2,29,193,18.2c1.8-10.8,11.1-6.5,11.1-6.5L166.9,129.1z"/>
		<rect x="96.9" y="47.7" class="st17" width="48.3" height="1.6"/>
		<rect x="93.8" y="62.2" class="st17" width="45.1" height="0.9"/>
		<rect x="94.8" y="54.9" class="st17" width="61.9" height="1.1"/>
		<rect x="142.3" y="61.9" class="st17" width="11.8" height="1.1"/>
		<rect x="125.1" y="69.3" class="st17" width="13.2" height="1.1"/>
		<rect x="102.7" y="69.1" class="st17" width="19.3" height="1.3"/>
		<rect x="104.8" y="76.1" class="st17" width="45.3" height="1"/>
		<rect x="118.9" y="83.3" class="st17" width="29.1" height="0.9"/>
		<rect x="133.1" y="90.9" class="st17" width="12" height="0.9"/>
		<rect x="109.3" y="98.7" class="st17" width="32.8" height="1.6"/>
		<rect x="116.8" y="106.3" class="st17" width="12.7" height="0.8"/>
		<polygon class="st17" points="128,22.1 129.9,22.7 124.8,38.3 123,37.8 		"/>
		<polygon class="st17" points="136.3,23.3 137.5,22.1 143.7,31 132.4,38.9 131.3,37.3 141.6,29.6 		"/>
		<polygon class="st17" points="120.3,21.8 121.6,23 111.3,30.3 116.4,37.7 115.1,39.2 107.6,29.7 		"/>
	</g>
</g>
<g id="Capa_2">
</g>
</svg>
