<?xml version="1.0" encoding="utf-8"?>
<!-- Generator: Adobe Illustrator 26.0.1, SVG Export Plug-In . SVG Version: 6.00 Build 0)  -->
<svg version="1.1" xmlns="http://www.w3.org/2000/svg" xmlns:xlink="http://www.w3.org/1999/xlink" x="0px" y="0px"
	 viewBox="0 0 91.3 45.2" style="enable-background:new 0 0 91.3 45.2;" xml:space="preserve">
<style type="text/css">
	.st0{fill:#2196C2;}
	.st1{fill:#2497C2;}
	.st2{fill:#1F96C2;}
	.st3{fill:#1C95C2;}
	.st4{fill:#2296C2;}
	.st5{fill:#2B98C3;}
	.st6{fill:#2998C3;}
	.st7{fill:#1E96C2;}
	.st8{fill:#2A98C3;}
	.st9{fill:#2096C2;}
	.st10{fill:#2E99C4;}
	.st11{fill:#339AC4;}
	.st12{fill:#369AC5;}
	.st13{fill:#2897C3;}
	.st14{fill:#020203;}
	.st15{fill:#020304;}
	.st16{fill:#FEFFFF;}
	.st17{fill:#FFFFFF;}
	.st18{fill:#F2F7FB;}
	.st19{opacity:0.33;fill:#FFFFFF;}
	.st20{opacity:0.33;}
</style>
<g id="Capa_1">
	<path d="M79.6,0h-68C5.2,0,0,5.2,0,11.6v13.4c0,6.4,5.2,11.6,11.6,11.6h64.8h1.3l7.2,8.5l1.8-10.9l0,0c2.8-2.1,4.6-5.5,4.6-9.3
		V11.6C91.3,5.2,86.1,0,79.6,0z"/>
	<g>
		<path class="st17" d="M22.9,15.1l0-3.5l0-1.6c0-0.4,0-0.7,0.1-0.8C23,9,23.2,9,23.4,9c0.3,0,0.5,0.3,0.5,0.8l0,0.9l0,2.8l0,4.5
			l0,4.7l0,3.3c0,0.3,0,0.5-0.1,0.6s-0.2,0.2-0.4,0.2c-0.2,0-0.3-0.1-0.4-0.2c-0.1-0.1-0.1-0.3-0.1-0.6l0-1.1l0-6.3v-2.3l-0.5,0
			L20,16l-5.4,0.1l0,3.5l0.1,6.8H7l0.1-10.9l0-2.9l0-2.6l0-0.7h7.7l0,0.7l-0.1,5.3c0.9,0.1,2.2,0.1,4.1,0.1
			C20.4,15.2,21.8,15.2,22.9,15.1z"/>
		<path class="st17" d="M37.8,10L37.8,14l0,3.7l0,8.6h-7.7l0.1-10l0-3.4l0-2.9l-1.7,0l-2.4,0.1l-0.4,0c-0.4,0-0.6-0.2-0.6-0.5
			c0-0.3,0.1-0.4,0.4-0.5c0.1,0,0.3,0,0.6,0h15.4c0.5,0,0.9,0,1,0.1c0.2,0.1,0.3,0.2,0.3,0.4c0,0.3-0.2,0.4-0.6,0.4l-1.1,0l-2.9,0
			H37.8z"/>
		<path class="st17" d="M61.6,8.6l2.7,9.3l1.2,4.1l1.1,3.8l0.2,0.5h-7.6l-2.4-8.9l-5.2,7.8l-5.3-7.4c-0.5,1.8-1.1,4-1.7,6.7
			c-0.2,1-0.4,1.6-0.5,1.8c-0.1,0.2-0.3,0.3-0.6,0.3c-0.4,0-0.6-0.1-0.6-0.4c0-0.1,0.1-0.5,0.4-1.3l0.8-2.7l1.4-4.6l2.7-9l6.9,10
			L61.6,8.6z"/>
		<path class="st17" d="M76.3,9.2l-0.1,2.6l0,4.2l0,3l0,6.5l0.9,0l5.4-0.1l1,0c0.5,0,0.7,0.1,0.7,0.4c0,0.3-0.1,0.4-0.4,0.4
			c-0.1,0-0.3,0-0.6,0H68.6l0-4.8l0-2.9l0-3.3l0-5l0-1.1H76.3z"/>
	</g>
</g>
<g id="Capa_2">
</g>
</svg>
