<?xml version="1.0" encoding="utf-8"?>
<!-- Generator: Adobe Illustrator 26.0.1, SVG Export Plug-In . SVG Version: 6.00 Build 0)  -->
<svg version="1.1" xmlns="http://www.w3.org/2000/svg" xmlns:xlink="http://www.w3.org/1999/xlink" x="0px" y="0px"
	 viewBox="0 0 50.8 47.5" style="enable-background:new 0 0 50.8 47.5;" xml:space="preserve">
<style type="text/css">
	.st0{fill:#2196C2;}
	.st1{fill:#2497C2;}
	.st2{fill:#1F96C2;}
	.st3{fill:#1C95C2;}
	.st4{fill:#2296C2;}
	.st5{fill:#2B98C3;}
	.st6{fill:#2998C3;}
	.st7{fill:#1E96C2;}
	.st8{fill:#2A98C3;}
	.st9{fill:#2096C2;}
	.st10{fill:#2E99C4;}
	.st11{fill:#339AC4;}
	.st12{fill:#369AC5;}
	.st13{fill:#2897C3;}
	.st14{fill:#020203;}
	.st15{fill:#020304;}
	.st16{fill:#FEFFFF;}
	.st17{fill:#FFFFFF;}
	.st18{fill:#F2F7FB;}
	.st19{opacity:0.33;fill:#FFFFFF;}
	.st20{opacity:0.33;}
</style>
<g id="Capa_1">
	<ellipse cx="25.4" cy="23.8" rx="25.4" ry="23.8"/>
	<g>
		<path class="st17" d="M15.9,17.4c0.4,0.1,0.8,0.3,1.1,0.6c0.3,0.3,0.5,0.7,0.6,1.1c0.1,0.4,0.2,0.8,0.2,1.3s0,0.8-0.1,1.2
			c-0.1,0.3-0.3,0.6-0.6,1s-0.7,0.7-1.2,1c-0.4,0.3-0.9,0.7-1.4,1c-0.5,0.3-0.8,0.6-1.1,0.8c0,0,0,0,0,0s0,0,0,0l0,0.1l0.1,0.1
			c0.5,0.4,0.9,0.8,1.2,1.3s0.7,0.9,0.9,1.3c0.2,0.5,0.4,0.9,0.4,1.5c0.1,0.5,0,1.1-0.1,1.7c0,0,0,0.1,0,0.2c0,0,0,0.1,0,0.1
			l-0.2,0.2l-0.8-0.2c-0.1,0-0.1,0.1-0.3,0c-0.3-0.1-0.6-0.2-1-0.4c-0.3-0.2-0.7-0.4-1-0.7s-0.7-0.5-1-0.8c-0.3-0.3-0.6-0.5-0.9-0.7
			c-0.1-0.1-0.3-0.2-0.5-0.4c-0.3-0.2-0.5-0.4-0.8-0.7c-0.3-0.2-0.5-0.4-0.8-0.7c-0.3-0.2-0.4-0.4-0.5-0.4c-0.1-0.1-0.1-0.2-0.2-0.5
			c-0.1-0.2-0.2-0.5-0.2-0.8c-0.1-0.3-0.1-0.5-0.2-0.8s-0.1-0.4,0-0.5c0-0.2,0.1-0.4,0.2-0.6c0.1-0.2,0.1-0.4,0.2-0.7
			s0.2-0.4,0.3-0.6c0.1-0.2,0.2-0.4,0.4-0.5c0.4-0.4,0.9-0.7,1.5-1c0.6-0.3,1.1-0.6,1.5-1c0.4-0.2,0.7-0.5,1-0.8
			c0.3-0.3,0.6-0.5,0.9-0.8c0.2-0.2,0.4-0.4,0.6-0.6c0.2-0.2,0.4-0.3,0.6-0.4c0.2-0.1,0.4-0.2,0.6-0.2
			C15.3,17.3,15.6,17.3,15.9,17.4z"/>
		<path class="st17" d="M23.3,36.8C23.3,36.8,23.3,36.9,23.3,36.8c-0.1,0-0.1,0-0.1,0c0,0-0.1,0-0.1-0.1c0,0-0.1-0.1-0.1-0.1
			c-0.2,0.2-0.3,0.3-0.5,0.3c-0.1,0-0.3,0-0.5,0c-0.3,0-0.5,0-0.7-0.1c-0.2-0.1-0.4-0.1-0.5-0.2s-0.3-0.2-0.5-0.4
			c-0.2-0.1-0.3-0.3-0.5-0.4c-0.3-0.2-0.4-0.3-0.5-0.4s-0.1-0.3-0.1-0.7c0-0.6,0.1-1.1,0.3-1.7c0.2-0.5,0.4-1,0.6-1.6
			c0-0.1,0.1-0.3,0.2-0.6c0.1-0.3,0.2-0.6,0.3-1s0.2-0.7,0.3-1s0.2-0.5,0.2-0.6c0-0.1,0-0.3,0-0.5s0.1-0.4,0.2-0.6s0.1-0.4,0.2-0.6
			c0.1-0.2,0.1-0.3,0.2-0.5l2.4-9.5v-0.1c0,0,0.1-0.1,0.1-0.2c0-0.1,0.1-0.2,0.1-0.2v-0.1c0-0.2,0.1-0.4,0.2-0.8
			c0.1-0.4,0.2-0.7,0.3-1.1c0.1-0.4,0.2-0.8,0.3-1.1c0.1-0.4,0.2-0.6,0.2-0.7c0,0,0-0.1,0-0.3c0-0.1,0-0.2,0-0.3
			c0-0.4,0.2-0.8,0.5-1s0.7-0.4,1.2-0.4c0,0.1,0,0.2-0.1,0.2l0.1,0c0.1,0,0.1,0,0.2-0.1c0,0,0.1-0.1,0.2-0.1h0.1c0.1,0,0.2,0,0.5,0
			c0.2,0,0.4,0,0.5,0c0.1,0.2,0.1,0.2,0.2,0.2s0.1,0,0.1,0c0,0,0.1,0,0.1,0.1s0.1,0.2,0.1,0.5v0.1c0,0,0.1,0,0.1,0c0,0,0,0,0,0
			c0,0,0-0.1,0-0.1s0-0.1,0-0.1c0.2,0.2,0.5,0.3,0.7,0.5c0.2,0.2,0.3,0.4,0.3,0.7v0.3c-0.2,0.6-0.3,1.2-0.5,1.7
			c-0.1,0.5-0.2,1.1-0.3,1.7c0,0.1-0.1,0.3-0.2,0.4c-0.1,0.2-0.1,0.3-0.2,0.5c-0.3,0.9-0.5,1.9-0.8,2.8s-0.5,1.9-0.7,2.8v0.1
			c0,0.2,0,0.3,0.1,0.4c0.1,0.1,0.1,0.3,0.1,0.4H28c0,0.1,0,0.2-0.1,0.2S27.8,24,27.8,24c0,0-0.1,0.1-0.1,0.1s-0.1,0.1-0.1,0.1
			c0,0,0,0.1,0.1,0.1c0,0,0,0,0.1,0v0.1c0,0.1,0,0.1,0,0.2s-0.1,0.1-0.1,0.1l-0.2-0.1c-0.2,0.1-0.3,0.2-0.4,0.4
			c-0.1,0.2-0.1,0.4-0.2,0.6c0,0.1-0.1,0.3-0.2,0.6s-0.2,0.7-0.3,1.1c-0.1,0.4-0.2,0.8-0.3,1.1c-0.1,0.3-0.1,0.6-0.2,0.7l0,0.1
			c0,0,0,0.1,0,0.1c0,0,0,0,0,0c0,0,0,0.2-0.1,0.3c0,0.2-0.1,0.4-0.1,0.6c-0.1,0.2-0.1,0.4-0.2,0.6c0,0.2-0.1,0.3-0.1,0.3
			c0,0,0,0.1,0,0.2c0,0.1-0.1,0.2-0.1,0.3c0,0.1-0.1,0.2-0.1,0.3s-0.1,0.2-0.1,0.2c0,0.1-0.1,0.3-0.1,0.5s-0.1,0.5-0.2,0.8
			c-0.1,0.3-0.1,0.5-0.2,0.7c-0.1,0.2-0.1,0.4-0.1,0.5c0,0.1-0.1,0.2-0.1,0.5c-0.1,0.2-0.1,0.5-0.2,0.8c-0.1,0.3-0.2,0.5-0.3,0.7
			c-0.1,0.2-0.2,0.3-0.4,0.3V36.8z M23.3,36.5c-0.1,0-0.1,0-0.1,0.1s0,0.1,0.1,0.1c0,0,0.1,0,0.1-0.1S23.4,36.5,23.3,36.5z"/>
		<path class="st17" d="M34.9,32.3c-0.4-0.1-0.8-0.3-1.1-0.6c-0.3-0.3-0.5-0.7-0.6-1.1c-0.1-0.4-0.2-0.8-0.2-1.3
			c0-0.4,0-0.9,0.1-1.2c0.1-0.3,0.3-0.6,0.6-1c0.3-0.4,0.7-0.7,1.2-1c0.4-0.3,0.9-0.7,1.4-1c0.5-0.3,0.8-0.6,1.1-0.8c0,0,0,0,0,0
			s0,0,0,0l0-0.1l-0.1-0.1c-0.5-0.4-0.9-0.8-1.2-1.2s-0.7-0.8-0.9-1.3c-0.2-0.5-0.4-0.9-0.4-1.5c-0.1-0.5,0-1.1,0.1-1.8
			c0,0,0,0,0-0.1s0-0.1,0-0.1l0-0.1l0.2-0.2L36,18c0.1,0,0.1-0.1,0.3,0c0.3,0.1,0.6,0.2,1,0.4c0.3,0.2,0.7,0.4,1,0.7
			c0.3,0.3,0.7,0.5,1,0.8s0.6,0.5,0.9,0.7c0.1,0.1,0.3,0.2,0.5,0.4c0.3,0.2,0.5,0.4,0.8,0.7s0.5,0.4,0.8,0.7
			c0.2,0.2,0.4,0.4,0.5,0.4c0.1,0.1,0.1,0.2,0.2,0.5s0.2,0.5,0.2,0.8c0.1,0.3,0.1,0.5,0.2,0.8s0,0.4,0,0.5c-0.1,0.4-0.2,0.8-0.4,1.3
			c-0.1,0.5-0.4,0.8-0.6,1.1c-0.4,0.4-0.9,0.7-1.5,1s-1.1,0.6-1.5,1c-0.3,0.3-0.7,0.5-1,0.8s-0.6,0.5-1,0.8
			c-0.2,0.2-0.4,0.4-0.6,0.6c-0.2,0.2-0.4,0.3-0.6,0.4c-0.2,0.1-0.4,0.2-0.6,0.2C35.5,32.4,35.2,32.4,34.9,32.3z"/>
	</g>
</g>
<g id="Capa_2">
</g>
</svg>
