<?xml version="1.0" encoding="utf-8"?>
<!-- Generator: Adobe Illustrator 26.0.1, SVG Export Plug-In . SVG Version: 6.00 Build 0)  -->
<svg version="1.1" xmlns="http://www.w3.org/2000/svg" xmlns:xlink="http://www.w3.org/1999/xlink" x="0px" y="0px"
	 viewBox="0 0 40.2 40.2" style="enable-background:new 0 0 40.2 40.2;" xml:space="preserve">
<style type="text/css">
	.st0{fill:#2196C2;}
	.st1{fill:#2497C2;}
	.st2{fill:#1F96C2;}
	.st3{fill:#1C95C2;}
	.st4{fill:#2296C2;}
	.st5{fill:#2B98C3;}
	.st6{fill:#2998C3;}
	.st7{fill:#1E96C2;}
	.st8{fill:#2A98C3;}
	.st9{fill:#2096C2;}
	.st10{fill:#2E99C4;}
	.st11{fill:#339AC4;}
	.st12{fill:#369AC5;}
	.st13{fill:#2897C3;}
	.st14{fill:#020203;}
	.st15{fill:#020304;}
	.st16{fill:#FEFFFF;}
	.st17{fill:#FFFFFF;}
	.st18{fill:#F2F7FB;}
	.st19{opacity:0.33;fill:#FFFFFF;}
	.st20{opacity:0.33;}
</style>
<g id="Capa_1">
	<circle cx="20.1" cy="20.1" r="20.1"/>
	<g>
		<path class="st17" d="M12.2,11.8v6L10,20l2.2,2.2v6.3l1,0.9h2v3.1h-3.8l-2.8-2.6v-7.3l-1.9-1.8v-1.5l1.9-1.8v-7l2.8-2.6h3.8v3.1
			h-2L12.2,11.8z"/>
		<path class="st17" d="M27,10.9h-2V7.8h3.8l2.8,2.6v7l1.9,1.8v1.5l-1.9,1.8v7.3l-2.8,2.6H25v-3.1h2l1-0.9v-6.3l2.2-2.2L28,17.8v-6
			L27,10.9z"/>
	</g>
</g>
<g id="Capa_2">
</g>
</svg>
