<?xml version="1.0" encoding="utf-8"?>
<!-- Generator: Adobe Illustrator 26.0.1, SVG Export Plug-In . SVG Version: 6.00 Build 0)  -->
<svg version="1.1" xmlns="http://www.w3.org/2000/svg" xmlns:xlink="http://www.w3.org/1999/xlink" x="0px" y="0px"
	 viewBox="0 0 68.7 34.4" style="enable-background:new 0 0 68.7 34.4;" xml:space="preserve">
<style type="text/css">
	.st0{fill:#2196C2;}
	.st1{fill:#2497C2;}
	.st2{fill:#1F96C2;}
	.st3{fill:#1C95C2;}
	.st4{fill:#2296C2;}
	.st5{fill:#2B98C3;}
	.st6{fill:#2998C3;}
	.st7{fill:#1E96C2;}
	.st8{fill:#2A98C3;}
	.st9{fill:#2096C2;}
	.st10{fill:#2E99C4;}
	.st11{fill:#339AC4;}
	.st12{fill:#369AC5;}
	.st13{fill:#2897C3;}
	.st14{fill:#020203;}
	.st15{fill:#020304;}
	.st16{fill:#FEFFFF;}
	.st17{fill:#FFFFFF;}
	.st18{fill:#F2F7FB;}
	.st19{opacity:0.33;fill:#FFFFFF;}
	.st20{opacity:0.33;}
</style>
<g id="Capa_1">
	<path d="M59.1,34.4H9.6C4.3,34.4,0,30,0,24.7V9.6C0,4.3,4.3,0,9.6,0h49.4c5.3,0,9.6,4.3,9.6,9.6v15.1C68.7,30,64.4,34.4,59.1,34.4z
		"/>
	<g>
		<path class="st17" d="M28,25.8c-1.1,0.6-2.8,0.9-4.9,0.9c-2.7,0-4.9-0.8-6.6-2.5c-1.7-1.6-2.5-3.9-2.5-6.9c0-2.9,0.9-5.2,2.7-7
			c1.8-1.8,4.1-2.7,7-2.7c1.8,0,3.3,0.3,4.4,0.8l-0.6,2c-1-0.5-2.3-0.8-3.7-0.8c-2.2,0-3.9,0.7-5.3,2c-1.3,1.3-2,3.2-2,5.6
			c0,2.3,0.6,4.1,1.9,5.4c1.3,1.3,3,2,5.2,2c1.6,0,2.9-0.3,3.9-0.8L28,25.8z"/>
		<path class="st17" d="M30.7,23.5c1.3,0.8,2.7,1.2,4.2,1.2c1.2,0,2.2-0.3,2.8-0.8c0.7-0.6,1-1.3,1-2.3c0-0.9-0.3-1.6-0.8-2.1
			s-1.4-1.1-2.7-1.5c-3.3-1.1-4.9-2.9-4.9-5.2c0-1.5,0.6-2.7,1.7-3.6c1.1-0.9,2.5-1.4,4.3-1.4c1.6,0,3,0.3,4.1,0.9l-0.7,2
			c-1-0.6-2.1-0.9-3.5-0.9c-1.2,0-2,0.3-2.6,0.8c-0.6,0.6-0.9,1.2-0.9,1.9c0,0.8,0.3,1.5,0.8,2s1.5,1,2.8,1.5
			c1.6,0.6,2.8,1.4,3.6,2.2c0.7,0.8,1.1,1.9,1.1,3.2c0,1.5-0.6,2.8-1.7,3.8c-1.1,1-2.7,1.5-4.8,1.5c-0.9,0-1.8-0.1-2.6-0.3
			c-0.9-0.2-1.6-0.5-2.1-0.9L30.7,23.5z"/>
		<path class="st17" d="M44.2,23.5c1.3,0.8,2.7,1.2,4.2,1.2c1.2,0,2.2-0.3,2.8-0.8c0.7-0.6,1-1.3,1-2.3c0-0.9-0.3-1.6-0.8-2.1
			s-1.4-1.1-2.7-1.5C45.6,16.8,44,15,44,12.7c0-1.5,0.6-2.7,1.7-3.6c1.1-0.9,2.5-1.4,4.3-1.4c1.6,0,3,0.3,4.1,0.9l-0.7,2
			c-1-0.6-2.1-0.9-3.5-0.9c-1.2,0-2,0.3-2.6,0.8c-0.6,0.6-0.9,1.2-0.9,1.9c0,0.8,0.3,1.5,0.8,2s1.5,1,2.8,1.5
			c1.6,0.6,2.8,1.4,3.6,2.2c0.7,0.8,1.1,1.9,1.1,3.2c0,1.5-0.6,2.8-1.7,3.8c-1.1,1-2.7,1.5-4.8,1.5c-0.9,0-1.8-0.1-2.6-0.3
			c-0.9-0.2-1.6-0.5-2.1-0.9L44.2,23.5z"/>
	</g>
</g>
<g id="Capa_2">
</g>
</svg>
