<?xml version="1.0" encoding="utf-8"?>
<!-- Generator: Adobe Illustrator 26.0.1, SVG Export Plug-In . SVG Version: 6.00 Build 0)  -->
<svg version="1.1" id="Capa_1" xmlns="http://www.w3.org/2000/svg" xmlns:xlink="http://www.w3.org/1999/xlink" x="0px" y="0px"
	 viewBox="0 0 435 193" style="enable-background:new 0 0 435 193;" xml:space="preserve">
<style type="text/css">
	.st0{fill:#2196C2;}
	.st1{fill:#2497C2;}
	.st2{fill:#1F96C2;}
	.st3{fill:#1C95C2;}
	.st4{fill:#2296C2;}
	.st5{fill:#2B98C3;}
	.st6{fill:#2998C3;}
	.st7{fill:#1E96C2;}
	.st8{fill:#2A98C3;}
	.st9{fill:#2096C2;}
	.st10{fill:#2E99C4;}
	.st11{fill:#339AC4;}
	.st12{fill:#369AC5;}
	.st13{fill:#2897C3;}
	.st14{fill:#020203;}
	.st15{fill:#020304;}
	.st16{fill:#FEFFFF;}
	.st17{fill:#FFFFFF;}
	.st18{fill:#F2F7FB;}
</style>
<g>
	<path class="st14" d="M113.7,100.6c0,10,0.1,19.9-0.1,29.9c0,2.2,0.4,3.3,2.8,2.9c0.5-0.1,1,0,1.5,0c7.7,0,7.7,0,7.7,7.9
		c0,9.3,0,9.4-9.1,10.3c-6.4,0.6-12.9,1.6-19.4,0.6c-4-0.6-7.5-2-9.3-5.9c-1.1-2.4-2.3-0.6-3.1,0c-9.4,6-19.6,9.2-30.9,8
		c-3.9-0.4-7.6-1.4-11.2-2.9c-9.9-4-14.6-11.6-15.7-21.8c-1.1-10.7-0.3-21.4-0.5-32.1c-0.1-6-0.1-12,0-17.9c0-2.2-0.4-3-2.8-3
		c-3,0-7.1,1.5-8.8-0.8c-1.4-1.9-0.4-5.7-0.5-8.7c0-8,0-7.9,8.1-8.5c6-0.5,11.9-1,17.9-0.7c9.5,0.5,13.2,4.3,13.3,13.9
		c0.1,15,0,29.9,0,44.9c0,11.8,2.9,14.6,14.9,14.7c5.1,0,10.2-0.7,15.3-1.4c2-0.3,2.7-1.1,2.7-3.1c-0.1-15.7-0.1-31.4,0-47.1
		c0-2.2-0.5-3.3-2.9-2.9c-0.1,0-0.2,0-0.4,0c-8.7-0.1-8.7-0.1-8.7-8.7c0-8.8,0-8.7,8.7-9.5c5.5-0.5,10.9-0.9,16.4-0.7
		c10.2,0.3,13.9,4.1,14,14.3C113.8,81.4,113.7,91,113.7,100.6L113.7,100.6z"/>
	<path class="st14" d="M169.4,65c11.4-8,24-10.9,37.4-9c14,2,22.7,12.3,23.1,27.4c0.5,15.3,0.3,30.7,0.2,46c0,3.4,0.9,4.2,4.1,4.1
		c7.7-0.2,7.7-0.1,7.7,7.8c0,9.2,0,9.3-9,10.4c-6.7,0.8-13.4,1.6-20.1,0.4c-5.6-1-8.3-3.6-9.2-9.3c-0.3-2.1-0.5-4.2-0.5-6.3
		c0-14.8,0-29.7,0-44.5c0-9.1-2.4-11.7-11.4-12.8c-6.3-0.8-12.4,0.1-18.6,1c-2.5,0.4-3.2,1.4-3.2,3.9c0.1,21.3,0,42.6,0.1,63.9
		c0,3.1-0.8,4-3.9,3.9c-6.6-0.2-13.2-0.2-19.8,0c-2.8,0.1-3.6-0.7-3.6-3.5c0.1-22.6,0-45.1,0.2-67.7c0-3.5-1-4.3-4.3-4.2
		c-9,0.2-9,0.1-9-9c0-8.4,0-8.3,8.5-9c6.3-0.5,12.7-1.1,19.1-0.8C162.4,57.9,167.1,59.4,169.4,65z"/>
	<path class="st14" d="M286.7,110.4c0,13-0.1,25.9,0.1,38.9c0,2.9-0.8,3.6-3.6,3.5c-6.7-0.2-13.5-0.3-20.2,0
		c-3.2,0.1-3.6-1.1-3.6-3.8c0.1-22.8,0-45.6,0.1-68.4c0-3.2-0.6-4.3-4-4.2c-8.7,0.3-8.7,0.1-8.7-8.6c0-8.8,0-8.7,8.8-9.4
		c6-0.4,11.9-1.2,17.9-0.8c9.4,0.5,13,4.1,13.2,13.6c0.2,8.1,0.1,16.2,0.1,24.3C286.7,100.4,286.7,105.4,286.7,110.4z"/>
	<path class="st15" d="M282.4,26.2c0,10.4-3.4,13.8-13.9,13.9c-1.9,0-3.7-0.1-5.6-0.4c-5.1-0.8-7.7-3.4-8.7-8.4
		c-0.6-3.2-0.5-6.4-0.1-9.6c0.5-4.5,3-7.5,7.4-8.8c3.9-1.2,7.9-1.3,11.8-0.3C280.4,14.2,282.4,17.5,282.4,26.2z"/>
	<path class="st14" d="M421,164.8c0.1-2.1-0.7-2.6-2.6-2.5c-3.2,0.1-6.5-0.1-9.7,0.1c-2,0.1-3.2-0.5-4.2-2.3
		c-7.1-12.2-14.3-24.2-21.6-36.3c-1.1-1.8-1.1-2.5,1.1-3.3c10.8-3.9,16.8-11.7,18.1-23c1.4-12.1-1-22.9-11.4-30.6
		c-8-5.9-17.2-8.1-27-8.6c-17.1-0.9-34.2-0.4-51.3-0.5c-3.2,0-7.5-1-9.4,0.6c-2.3,1.9-0.8,6.3-0.8,9.6c-0.1,8.5-0.1,8.6,8.3,8.6
		c2.5,0,3.1,0.8,3.1,3.2c-0.2,11.6-0.1,23.2-0.1,34.8c0,11.7,0,23.4,0.2,35c-0.1,2.2,0.3,3.2,2.8,3.1c7.2-0.1,14.5-0.1,21.7,0
		c2.1,0,2.7-0.7,2.7-2.8c-0.1-6.9,0.1-13.8-0.1-20.6c0-2.7,0.4-4.1,3.6-3.7c2.3,0.3,4.7,0.2,7.1,0c2.3-0.2,3.5,0.7,4.6,2.7
		c7.9,14.4,16.1,28.7,24,43.1c3.7,6.7,9,9.8,16.4,9.7c7.5,0,14.9-0.9,22.4-1.3c1.7-0.1,2.1-0.8,2.1-2.3
		C420.9,173.3,420.9,169,421,164.8z M363,106.9c-6.9,1.7-13.9,0.5-20.9,0.8c-1.5,0.1-1.5-1-1.5-2c0-9.2,0-18.4,0-27.7
		c0-1.5,0.5-1.9,2-1.9c2.9,0.2,5.8,0.1,9.3,0.1c3,0.1,6.8-0.2,10.5,0.5c8.5,1.6,12.5,5.9,12.8,13.6C375.5,98.6,370.9,105,363,106.9z
		"/>
</g>
</svg>
