<?xml version="1.0" encoding="utf-8"?>
<!-- Generator: Adobe Illustrator 26.0.1, SVG Export Plug-In . SVG Version: 6.00 Build 0)  -->
<svg version="1.1" xmlns="http://www.w3.org/2000/svg" xmlns:xlink="http://www.w3.org/1999/xlink" x="0px" y="0px"
	 viewBox="0 0 66.4 29.2" style="enable-background:new 0 0 66.4 29.2;" xml:space="preserve">
<style type="text/css">
	.st0{fill:#2196C2;}
	.st1{fill:#2497C2;}
	.st2{fill:#1F96C2;}
	.st3{fill:#1C95C2;}
	.st4{fill:#2296C2;}
	.st5{fill:#2B98C3;}
	.st6{fill:#2998C3;}
	.st7{fill:#1E96C2;}
	.st8{fill:#2A98C3;}
	.st9{fill:#2096C2;}
	.st10{fill:#2E99C4;}
	.st11{fill:#339AC4;}
	.st12{fill:#369AC5;}
	.st13{fill:#2897C3;}
	.st14{fill:#020203;}
	.st15{fill:#020304;}
	.st16{fill:#FEFFFF;}
	.st17{fill:#FFFFFF;}
	.st18{fill:#F2F7FB;}
	.st19{opacity:0.33;fill:#FFFFFF;}
	.st20{opacity:0.33;}
</style>
<g id="Capa_1">
	<path d="M56.7,29.2H9.6c-5.3,0-9.6-4.3-9.6-9.6V9.6C0,4.3,4.3,0,9.6,0h47.1c5.3,0,9.6,4.3,9.6,9.6v9.9C66.4,24.9,62,29.2,56.7,29.2
		z"/>
	<g>
		<path class="st17" d="M32.1,4.8c0.3,0,0.6,0.1,0.8,0.2c0.2,0.1,0.5,0.3,0.6,0.4c0.2,0.2,0.3,0.4,0.4,0.6c0.1,0.2,0.2,0.5,0.2,0.8
			V17c0,1-0.2,2-0.6,2.8c-0.4,0.9-0.9,1.7-1.6,2.3c-0.7,0.7-1.4,1.2-2.3,1.6s-1.8,0.6-2.9,0.6c-1,0-2-0.2-2.8-0.6s-1.7-0.9-2.3-1.6
			s-1.2-1.4-1.6-2.3C19.7,19,19.5,18,19.5,17c0-0.3,0.1-0.6,0.2-0.8c0.1-0.2,0.3-0.5,0.4-0.6c0.2-0.2,0.4-0.3,0.7-0.4
			C21,15,21.3,15,21.6,15c0.3,0,0.6,0.1,0.8,0.2c0.2,0.1,0.5,0.3,0.6,0.4c0.2,0.2,0.3,0.4,0.4,0.6c0.1,0.2,0.2,0.5,0.2,0.8
			c0,0.4,0.1,0.9,0.3,1.2s0.4,0.7,0.7,1c0.3,0.3,0.6,0.5,1,0.7s0.8,0.3,1.2,0.3s0.9-0.1,1.3-0.3c0.4-0.2,0.7-0.4,1-0.7
			c0.3-0.3,0.5-0.6,0.7-1c0.2-0.4,0.3-0.8,0.3-1.2V6.9c0-0.3,0.1-0.6,0.2-0.8s0.3-0.5,0.4-0.6c0.2-0.2,0.4-0.3,0.7-0.4
			C31.6,4.9,31.8,4.8,32.1,4.8z"/>
		<path class="st17" d="M43.5,13.1c0.5,0.2,1,0.6,1.4,0.9s0.8,0.8,1.1,1.3c0.3,0.5,0.5,1,0.7,1.5c0.2,0.5,0.2,1.1,0.2,1.7
			c0,0.8-0.2,1.6-0.5,2.3c-0.3,0.7-0.7,1.3-1.3,1.9c-0.5,0.5-1.2,1-1.9,1.3c-0.7,0.3-1.5,0.5-2.3,0.5c-0.8,0-1.6-0.1-2.3-0.4
			c-0.7-0.3-1.3-0.6-1.8-1s-1-0.8-1.3-1.3c-0.4-0.5-0.6-0.9-0.8-1.2h0c-0.3-0.5-0.4-1-0.2-1.6c0.1-0.5,0.5-1,1-1.3
			c0.2-0.1,0.5-0.2,0.8-0.3c0.3,0,0.5,0,0.8,0c0.3,0.1,0.5,0.2,0.7,0.3c0.2,0.2,0.4,0.4,0.5,0.6l0,0.1c0,0,0,0.1,0,0.1
			c0,0,0,0.1,0,0.1c0,0,0.1,0.1,0.2,0.3c0.1,0.2,0.3,0.4,0.5,0.6c0.2,0.2,0.5,0.4,0.8,0.6c0.3,0.2,0.7,0.3,1.1,0.3
			c0.2,0,0.5,0,0.7-0.1c0.2-0.1,0.4-0.2,0.6-0.4c0.2-0.2,0.3-0.4,0.4-0.6c0.1-0.2,0.1-0.4,0.1-0.7c0-0.3-0.1-0.7-0.3-1
			c-0.2-0.3-0.4-0.5-0.7-0.7l-3.5-1.5c0,0-0.1,0-0.1,0c-0.9-0.5-1.7-1.2-2.2-2.1c-0.5-0.9-0.8-1.9-0.8-2.9c0-0.8,0.1-1.5,0.4-2.2
			c0.3-0.7,0.7-1.3,1.2-1.8s1.1-0.9,1.8-1.2c0.7-0.3,1.4-0.4,2.2-0.4c0.8,0,1.4,0.1,2.1,0.4c0.6,0.3,1.2,0.6,1.6,0.9
			c0.5,0.3,0.8,0.7,1.1,1c0.3,0.3,0.4,0.5,0.5,0.6c0.2,0.2,0.3,0.5,0.4,0.7c0.1,0.3,0.1,0.5,0.1,0.8c0,0.3-0.1,0.5-0.3,0.8
			c-0.1,0.2-0.3,0.4-0.5,0.6s-0.5,0.3-0.7,0.4C44.5,11,44.3,11,44,11c-0.3,0-0.5-0.1-0.7-0.2s-0.4-0.3-0.6-0.5
			c-0.1-0.1-0.2-0.2-0.3-0.4c-0.2-0.2-0.3-0.3-0.5-0.4s-0.4-0.2-0.6-0.3C41,9,40.8,8.9,40.6,8.9c-0.4,0-0.7,0.1-1,0.4
			s-0.4,0.6-0.4,1c0,0.3,0.1,0.5,0.2,0.7c0.1,0.2,0.3,0.4,0.5,0.5L43.5,13.1C43.4,13.1,43.4,13.1,43.5,13.1
			C43.4,13.1,43.5,13.1,43.5,13.1z"/>
	</g>
</g>
<g id="Capa_2">
</g>
</svg>
