<svg width="150" height="75" viewBox="0 0 150 75" fill="none" xmlns="http://www.w3.org/2000/svg">
<rect width="150" height="75" fill="none"/>
<path d="M38.7719 38.9269C38.7719 42.4143 38.8068 45.8668 38.737 49.3542C38.737 50.1215 38.8765 50.5051 39.714 50.3656C39.888 50.3482 40.0633 50.3482 40.2374 50.3656C42.9241 50.3656 42.9241 50.3656 42.9241 53.1206C42.9241 56.3639 42.9241 56.3988 39.7489 56.7127C37.5157 56.9219 35.2477 57.2707 32.9797 56.9219C31.5839 56.7127 30.3627 56.2244 29.7346 54.8643C29.3508 54.0274 28.9321 54.6551 28.6529 54.8643C25.373 56.9568 21.8139 58.0728 17.871 57.6543C16.5256 57.5114 15.2087 57.1706 13.963 56.6429C10.5086 55.248 8.86868 52.5975 8.48486 49.0404C8.10104 45.3088 8.38018 41.5773 8.3104 37.8458C8.2755 35.7533 8.2755 33.6609 8.3104 31.6033C8.3104 30.8361 8.17082 30.5571 7.3334 30.5571C6.28661 30.5571 4.856 31.0802 4.26282 30.2781C3.77432 29.6155 4.12325 28.2903 4.08836 27.2441C4.08836 24.4541 4.08836 24.489 6.91468 24.2798C8.98884 24.0592 11.0754 23.9777 13.1605 24.0356C16.4753 24.21 17.7664 25.5352 17.8013 28.8831C17.8361 34.1143 17.8013 39.3105 17.8013 44.5416C17.8013 48.6568 18.8131 49.6332 23.0003 49.6681C24.7889 49.6266 26.5725 49.4635 28.3389 49.1799C29.0368 49.0752 29.281 48.7963 29.281 48.0988C29.2461 42.6235 29.2461 37.1483 29.281 31.6731C29.281 30.9058 29.1065 30.5222 28.2691 30.6617H28.1295C25.0939 30.6268 25.0939 30.6268 25.0939 27.6277C25.0939 24.5588 25.0939 24.5936 28.1295 24.3146C30.0299 24.1115 31.9412 24.03 33.852 24.0705C37.411 24.1751 38.7021 25.5004 38.737 29.0575C38.8068 32.2311 38.7719 35.579 38.7719 38.9269Z" fill="#161210"/>
<path d="M58.2072 26.5153C61.9767 23.7984 66.6636 22.6711 71.2571 23.3766C76.1421 24.0741 79.1778 27.6661 79.3174 32.9321C79.4918 38.2678 79.422 43.6384 79.3872 48.9742C79.3872 50.1599 79.7012 50.4389 80.8178 50.404C83.5045 50.3343 83.5045 50.3691 83.5045 53.1242C83.5045 56.3326 83.5045 56.3675 80.3642 56.7511C78.0263 57.0301 75.6885 57.3091 73.3507 56.8906C71.3967 56.5419 70.4546 55.6351 70.1405 53.6473C70.0304 52.92 69.9721 52.1858 69.9661 51.4502V35.9313C69.9661 32.7577 69.1286 31.851 65.9883 31.4674C63.79 31.1884 61.6616 31.5023 59.4982 31.8161C58.6259 31.9556 58.3816 32.3044 58.3816 33.1762C58.4165 40.6044 58.3816 48.0326 58.4165 55.4608C58.4165 56.5419 58.1374 56.8557 57.0557 56.8208C54.7528 56.7511 52.4499 56.7511 50.1469 56.8208C49.1699 56.8557 48.8908 56.5767 48.8908 55.6003C48.9257 47.7187 48.8908 39.872 48.9606 31.9905C48.9606 30.7699 48.6116 30.4909 47.4602 30.5258C44.3198 30.5955 44.3198 30.5607 44.3198 27.3871C44.3198 24.4577 44.3198 24.4926 47.2857 24.2484C49.4992 24.0156 51.7251 23.9224 53.9503 23.9694C55.7647 24.0357 57.4046 24.5588 58.2072 26.5153Z" fill="#161210"/>
<path d="M99.1366 42.3446C99.1366 46.8782 99.1017 51.377 99.1715 55.9106C99.1715 56.922 98.8924 57.1661 97.9154 57.1312C95.5775 57.0615 93.2048 57.0266 90.867 57.1312C89.7504 57.1661 89.6109 56.7476 89.6109 55.806C89.6457 47.8547 89.6109 39.9034 89.6457 31.9521C89.6457 30.8362 89.4364 30.4525 88.25 30.4874C85.2144 30.592 85.2144 30.5223 85.2144 27.4882C85.2144 24.4542 85.2144 24.4542 88.2849 24.2101C90.3785 24.0706 92.4372 23.7916 94.5307 23.9311C97.8107 24.1055 99.0668 25.3609 99.1366 28.674C99.2064 31.4988 99.1715 34.3236 99.1715 37.1484C99.1366 38.8572 99.1366 40.6009 99.1366 42.3446Z" fill="#161210"/>
<path d="M97.6361 12.9805C97.6361 16.6074 96.4498 17.7931 92.786 17.828C92.132 17.8336 91.4786 17.787 90.832 17.6885C89.0525 17.4095 88.1453 16.5028 87.7963 14.7591C87.6103 13.6517 87.5985 12.5222 87.7614 11.4112C87.8071 10.691 88.0825 10.0044 88.5472 9.45205C89.0119 8.89974 89.6415 8.51079 90.3435 8.34226C91.6794 7.9247 93.1055 7.88847 94.4609 8.23764C96.9383 8.79562 97.6361 9.94647 97.6361 12.9805Z" fill="#161210"/>
<path d="M146.008 61.316C146.043 60.5836 145.764 60.4093 145.101 60.4441C143.984 60.479 142.833 60.4093 141.716 60.479C141.418 60.5212 141.114 60.4659 140.85 60.3213C140.586 60.1768 140.376 59.9507 140.251 59.6769C137.773 55.4223 135.261 51.2374 132.714 47.0176C132.33 46.3899 132.33 46.1458 133.098 45.8668C136.866 44.5067 138.96 41.7865 139.413 37.8457C139.902 33.626 139.064 29.8596 135.436 27.1742C132.644 25.1167 129.434 24.3494 126.015 24.1751C120.048 23.8612 114.081 24.0356 108.114 24.0007C106.998 24.0007 105.497 23.652 104.835 24.2099C104.032 24.8726 104.555 26.407 104.555 27.5579C104.52 30.5222 104.52 30.557 107.451 30.557C108.324 30.557 108.533 30.836 108.533 31.673C108.463 35.7184 108.498 39.7638 108.498 43.8092C108.498 47.8546 108.498 51.9697 108.568 56.0151C108.533 56.7824 108.673 57.1311 109.545 57.0962C112.057 57.0613 114.605 57.0613 117.117 57.0962C117.85 57.0962 118.059 56.8521 118.059 56.1197C118.024 53.7134 118.094 51.3071 118.024 48.9357C118.024 47.9941 118.164 47.5058 119.28 47.6453C120.104 47.7325 120.934 47.7325 121.758 47.6453C122.56 47.5756 122.979 47.8895 123.363 48.5869C126.119 53.6088 128.98 58.5958 131.737 63.6177C133.028 65.9542 134.877 67.0353 137.459 67.0005C140.041 66.9656 142.658 66.6866 145.275 66.5471C145.869 66.5122 146.008 66.2681 146.008 65.745C145.963 64.2803 145.963 62.7842 146.008 61.316ZM125.77 41.1239C123.363 41.7167 120.92 41.2983 118.478 41.4029C117.954 41.4378 117.954 41.0541 117.954 40.7054V31.0488C117.954 30.5256 118.129 30.3861 118.652 30.3861C119.664 30.4559 120.676 30.421 121.897 30.421C122.944 30.4559 124.27 30.3513 125.561 30.5954C128.527 31.1534 129.923 32.653 130.027 35.3383C130.121 38.2293 128.516 40.4648 125.77 41.1239Z" fill="#161210"/>
</svg>
