<svg width="76" height="68" viewBox="0 0 76 68" fill="none" xmlns="http://www.w3.org/2000/svg">
<path d="M49.72 60.9759C47.2997 62.3439 45.0373 63.8171 42.6171 64.9746C34.1989 68.9206 25.7281 69.1311 17.3099 64.8694C12.943 62.6596 10.1544 59.1345 9.26001 54.3466C8.68126 51.2424 8.26035 48.0856 8.20774 44.9288C8.10251 34.7217 8.15513 24.462 8.20774 14.255C8.20774 13.0448 7.89206 12.6239 6.62933 12.6765C4.47217 12.7818 2.26239 12.7292 0 12.7292C0 8.78313 0 4.94233 0 0.996297C4.05126 0.680615 8.0499 0.259706 12.1012 0.0492508C14.574 -0.0559766 17.0995 -0.00336291 19.5197 0.312319C23.5709 0.785843 25.5177 2.943 25.9912 7.04688C26.149 8.52006 26.2542 9.99324 26.2542 11.4664C26.2542 22.0418 26.2542 32.6171 26.2542 43.1399C26.2542 44.0343 26.3069 44.9288 26.4121 45.7706C26.833 49.2431 28.4114 50.5584 31.8839 51.5055C34.8303 52.2947 37.8819 52.2421 40.9335 51.979C43.3011 51.7685 45.6161 51.3476 47.9311 51.0319C49.036 50.8741 49.5095 50.5058 49.5095 49.1905C49.4569 37.5628 49.4569 25.9352 49.5095 14.3602C49.5095 13.0975 49.1412 12.7818 47.9311 12.8344C45.7739 12.9396 43.6168 12.8344 41.407 12.8344C41.407 8.94097 41.407 5.15278 41.407 1.15414C42.7223 0.996297 44.0903 0.838456 45.4583 0.733229C50.0356 0.47016 54.6657 -0.0033645 59.1904 0.154477C63.7678 0.312318 65.8198 1.57505 66.872 5.15278C67.3456 6.83642 67.5034 8.62529 67.5034 10.4142C67.556 24.3568 67.556 38.2994 67.5034 52.2421C67.5034 53.5048 67.8191 53.9257 69.1344 53.8731C71.2916 53.7679 73.3961 53.8205 75.7112 53.8205C75.7112 56.8195 75.7112 59.6606 75.7112 62.5543C75.7112 65.185 75.7111 65.2903 73.1331 65.6059C67.9769 66.2899 62.7682 66.9739 57.5068 66.553C55.034 66.3425 52.6137 65.869 51.0353 63.6066C50.5618 62.7122 50.1935 61.8178 49.72 60.9759Z" fill="#FF0000"/>
</svg>
