<svg width="150" height="75" viewBox="0 0 150 75" fill="none" xmlns="http://www.w3.org/2000/svg">
<rect width="150" height="75" fill="none"/>
<path d="M5.27852 26V49H2V26H5.27852Z" fill="#161210"/>
<path d="M28.8467 49H24.4638L14.8008 29.4717C14.9388 31.0073 15.0424 32.4315 15.1114 33.7446C15.2034 35.0353 15.2494 36.6043 15.2494 38.4514V49H12.178V26H16.4573L26.2239 45.5617C26.1548 44.9831 26.0628 43.9705 25.9478 42.5239C25.8327 41.0774 25.7752 39.7533 25.7752 38.5515V26H28.8467V49Z" fill="#161210"/>
<path d="M49.7815 26L49.4364 28.7039H42.8449V49H39.5663V28.7039H32.8022V26H49.7815Z" fill="#161210"/>
<path d="M66.4365 26L66.0568 28.537H56.8425V36.0479H64.849V38.5849H56.8425V46.463H66.7126V49H53.5639V26H66.4365Z" fill="#161210"/>
<path d="M79.0038 39.2525H75.3111V49H72.0326V26H78.2791C81.247 26 83.4902 26.5452 85.0087 27.6357C86.5501 28.7262 87.3209 30.3507 87.3209 32.5094C87.3209 34.1118 86.8952 35.4136 86.044 36.4151C85.1927 37.4165 83.9043 38.1732 82.1788 38.6851L88.5978 49H84.6981L79.0038 39.2525ZM78.6242 36.8157C80.3497 36.8157 81.6496 36.4819 82.5239 35.8142C83.3982 35.1243 83.8353 34.0227 83.8353 32.5094C83.8353 31.0851 83.3867 30.0614 82.4894 29.4383C81.6151 28.7929 80.2002 28.4702 78.2445 28.4702H75.3111V36.8157H78.6242Z" fill="#161210"/>
<path d="M109.597 49H105.214L95.5506 29.4717C95.6887 31.0073 95.7922 32.4315 95.8612 33.7446C95.9532 35.0353 95.9993 36.6043 95.9993 38.4514V49H92.9278V26H97.2071L106.974 45.5617C106.905 44.9831 106.813 43.9705 106.698 42.5239C106.583 41.0774 106.525 39.7533 106.525 38.5515V26H109.597V49Z" fill="#161210"/>
<path d="M129.358 26L128.978 28.537H119.764V36.0479H127.77V38.5849H119.764V46.463H129.634V49H116.485V26H129.358Z" fill="#161210"/>
<path d="M149 26L148.655 28.7039H142.063V49H138.785V28.7039H132.021V26H149Z" fill="#161210"/>
</svg>
