<?xml version="1.0" encoding="utf-8"?>
<!-- Generator: Adobe Illustrator 26.0.1, SVG Export Plug-In . SVG Version: 6.00 Build 0)  -->
<svg version="1.1" id="Capa_1" xmlns="http://www.w3.org/2000/svg" xmlns:xlink="http://www.w3.org/1999/xlink" x="0px" y="0px"
	 viewBox="0 0 465.9 278.1" style="enable-background:new 0 0 465.9 278.1;" xml:space="preserve">
<style type="text/css">
	.st0{fill:#020203;}
	.st1{fill:#020304;}
	.st2{fill:#2196C2;}
	.st3{fill:#2497C2;}
	.st4{fill:#1F96C2;}
	.st5{fill:#1C95C2;}
	.st6{fill:#2096C2;}
	.st7{fill:#2296C2;}
	.st8{fill:#2B98C3;}
	.st9{fill:#2998C3;}
	.st10{fill:#1E96C2;}
	.st11{fill:#2A98C3;}
	.st12{fill:#2E99C4;}
	.st13{fill:#339AC4;}
	.st14{fill:#369AC5;}
	.st15{fill:#2897C3;}
	.st16{fill:#FFFFFF;}
	.st17{fill:#FEFFFF;}
	.st18{fill:#FBFCFE;}
	.st19{fill:#FCFDFE;}
	.st20{fill:#EFF4FA;}
	.st21{fill:#F2F7FB;}
</style>
<g>
	<path d="M-433.4,240.6c-4.6,2.6-8.9,5.4-13.5,7.6c-16,7.5-32.1,7.9-48.1-0.2c-8.3-4.2-13.6-10.9-15.3-20c-1.1-5.9-1.9-11.9-2-17.9
		c-0.2-19.4-0.1-38.9,0-58.3c0-2.3-0.6-3.1-3-3c-4.1,0.2-8.3,0.1-12.6,0.1c0-7.5,0-14.8,0-22.3c7.7-0.6,15.3-1.4,23-1.8
		c4.7-0.2,9.5-0.1,14.1,0.5c7.7,0.9,11.4,5,12.3,12.8c0.3,2.8,0.5,5.6,0.5,8.4c0,20.1,0,40.2,0,60.2c0,1.7,0.1,3.4,0.3,5
		c0.8,6.6,3.8,9.1,10.4,10.9c5.6,1.5,11.4,1.4,17.2,0.9c4.5-0.4,8.9-1.2,13.3-1.8c2.1-0.3,3-1,3-3.5c-0.1-22.1-0.1-44.2,0-66.2
		c0-2.4-0.7-3-3-2.9c-4.1,0.2-8.2,0-12.4,0c0-7.4,0-14.6,0-22.2c2.5-0.3,5.1-0.6,7.7-0.8c8.7-0.5,17.5-1.4,26.1-1.1
		c8.7,0.3,12.6,2.7,14.6,9.5c0.9,3.2,1.2,6.6,1.2,10c0.1,26.5,0.1,53,0,79.5c0,2.4,0.6,3.2,3.1,3.1c4.1-0.2,8.1-0.1,12.5-0.1
		c0,5.7,0,11.1,0,16.6c0,5,0,5.2-4.9,5.8c-9.8,1.3-19.7,2.6-29.7,1.8c-4.7-0.4-9.3-1.3-12.3-5.6
		C-431.9,243.9-432.6,242.1-433.4,240.6z"/>
</g>
<g>
	<path class="st0" d="M329,121.8c0-11.6-0.1-23.2,0.1-34.8c0-2.4-0.6-3.2-3.1-3.2c-8.4,0-8.4-0.1-8.3-8.6c0-3.3-1.5-7.7,0.8-9.6
		c1.9-1.6,6.2-0.6,9.4-0.6c17.1,0.1,34.2-0.4,51.3,0.5c9.8,0.5,19,2.7,27,8.6c10.4,7.7,12.8,18.5,11.4,30.6
		c-1.3,11.3-7.3,19.1-18.1,23c-2.2,0.8-2.2,1.5-1.1,3.3c7.3,12.1,14.5,24.1,21.6,36.3c1,1.8,2.2,2.4,4.2,2.3c3.2-0.2,6.5,0,9.7-0.1
		c1.9-0.1,2.7,0.4,2.6,2.5c-0.1,4.2-0.1,8.5,0,12.7c0,1.5-0.4,2.2-2.1,2.3c-7.5,0.4-14.9,1.3-22.4,1.3c-7.4,0.1-12.7-3-16.4-9.7
		c-7.9-14.4-16.1-28.7-24-43.1c-1.1-2-2.3-2.9-4.6-2.7c-2.4,0.2-4.8,0.3-7.1,0c-3.2-0.4-3.6,1-3.6,3.7c0.2,6.8,0,13.7,0.1,20.6
		c0,2.1-0.6,2.8-2.7,2.8c-7.2-0.1-14.5-0.1-21.7,0c-2.5,0.1-2.9-0.9-2.8-3.1C329,145.2,329,133.5,329,121.8z"/>
	<path class="st0" d="M129.2,107.8c0,10,0.1,19.9-0.1,29.9c0,2.2,0.4,3.3,2.8,2.9c0.5-0.1,1,0,1.5,0c7.7,0,7.7,0,7.7,7.9
		c0,9.3,0,9.4-9.1,10.3c-6.4,0.6-12.9,1.6-19.4,0.6c-4-0.6-7.5-2-9.3-5.9c-1.1-2.4-2.3-0.6-3.1,0c-9.4,6-19.6,9.2-30.9,8
		c-3.9-0.4-7.6-1.4-11.2-2.9c-9.9-4-14.6-11.6-15.7-21.8c-1.1-10.7-0.3-21.4-0.5-32.1c-0.1-6-0.1-12,0-17.9c0-2.2-0.4-3-2.8-3
		c-3,0-7.1,1.5-8.8-0.8c-1.4-1.9-0.4-5.7-0.5-8.7c0-8,0-7.9,8.1-8.5c6-0.5,11.9-1,17.9-0.7c9.5,0.5,13.2,4.3,13.3,13.9
		c0.1,15,0,29.9,0,44.9c0,11.8,2.9,14.6,14.9,14.7c5.1,0,10.2-0.7,15.3-1.4c2-0.3,2.7-1.1,2.7-3.1c-0.1-15.7-0.1-31.4,0-47.1
		c0-2.2-0.5-3.3-2.9-2.9c-0.1,0-0.2,0-0.4,0c-8.7-0.1-8.7-0.1-8.7-8.7c0-8.8,0-8.7,8.7-9.5c5.5-0.5,10.9-0.9,16.4-0.7
		c10.2,0.3,13.9,4.1,14,14.3C129.3,88.6,129.2,98.2,129.2,107.8C129.2,107.8,129.2,107.8,129.2,107.8z"/>
	<path class="st0" d="M184.9,72.2c11.4-8,24-10.9,37.4-9c14,2,22.7,12.3,23.1,27.4c0.5,15.3,0.3,30.7,0.2,46c0,3.4,0.9,4.2,4.1,4.1
		c7.7-0.2,7.7-0.1,7.7,7.8c0,9.2,0,9.3-9,10.4c-6.7,0.8-13.4,1.6-20.1,0.4c-5.6-1-8.3-3.6-9.2-9.3c-0.3-2.1-0.5-4.2-0.5-6.3
		c0-14.8,0-29.7,0-44.5c0-9.1-2.4-11.7-11.4-12.8c-6.3-0.8-12.4,0.1-18.6,1c-2.5,0.4-3.2,1.4-3.2,3.9c0.1,21.3,0,42.6,0.1,63.9
		c0,3.1-0.8,4-3.9,3.9c-6.6-0.2-13.2-0.2-19.8,0c-2.8,0.1-3.6-0.7-3.6-3.5c0.1-22.6,0-45.1,0.2-67.7c0-3.5-1-4.3-4.3-4.2
		c-9,0.2-9,0.1-9-9c0-8.4,0-8.3,8.5-9c6.3-0.5,12.7-1.1,19.1-0.8C177.9,65.1,182.6,66.6,184.9,72.2z"/>
	<path class="st0" d="M302.2,117.6c0,13-0.1,25.9,0.1,38.9c0,2.9-0.8,3.6-3.6,3.5c-6.7-0.2-13.5-0.3-20.2,0
		c-3.2,0.1-3.6-1.1-3.6-3.8c0.1-22.8,0-45.6,0.1-68.4c0-3.2-0.6-4.3-4-4.2c-8.7,0.3-8.7,0.1-8.7-8.6c0-8.8,0-8.7,8.8-9.4
		c6-0.4,11.9-1.2,17.9-0.8c9.4,0.5,13,4.1,13.2,13.6c0.2,8.1,0.1,16.2,0.1,24.3C302.2,107.6,302.2,112.6,302.2,117.6z"/>
	<path class="st1" d="M297.9,33.4c0,10.4-3.4,13.8-13.9,13.9c-1.9,0-3.7-0.1-5.6-0.4c-5.1-0.8-7.7-3.4-8.7-8.4
		c-0.6-3.2-0.5-6.4-0.1-9.6c0.5-4.5,3-7.5,7.4-8.8c3.9-1.2,7.9-1.3,11.8-0.3C295.9,21.4,297.9,24.7,297.9,33.4z"/>
	<path class="st2" d="M85.8,253c0-5.9,0-10.9,0-16c0-1-0.4-1.7-1.5-1.7c-1-0.1-1.8-0.5-1.5-1.6c0.3-1.1,1.3-0.9,2.2-0.9
		c1.2,0,2.5,0,3.7,0c1,0,2.2-0.3,2.6,0.9c0.5,1.4-0.8,1.5-1.7,1.8c-1.4,0.6-0.8,1.9-0.9,2.9c-0.1,5.5,0,11-0.1,16.4
		c0,1.3,0.9,3.3-1,3.9c-2,0.7-2.8-1.3-3.7-2.5c-4.4-5.7-8.7-11.5-13.8-17.1c0,5.2,0,10.5,0,15.7c0,1.4,0.9,1.6,2,1.7
		c0.7,0.1,1.1,0.6,1,1.3c-0.1,0.8-0.7,1-1.3,1c-1.6,0-3.2,0.1-4.9,0c-0.7,0-1.6,0.1-1.9-0.7c-0.4-1.1,0.3-1.5,1.3-1.8
		c1.5-0.4,1.1-1.8,1.1-2.8c0.1-4.6,0.1-9.2,0.1-13.8c0-1.9,1-4.5-2.5-4.7c-0.5,0-0.7-0.6-0.7-1.2c0.1-0.7,0.5-1.1,1.2-1.1
		c2.4-0.1,4.8-0.5,6.6,2.1c3.7,5.4,7.8,10.6,11.8,15.9C84.2,251.3,84.7,251.8,85.8,253z"/>
	<path class="st2" d="M138.3,252.1c0-5,0-10.1,0-15.1c0-1-0.4-1.6-1.4-1.8c-0.9-0.1-1.8-0.5-1.5-1.6c0.3-1.1,1.4-0.9,2.2-0.9
		c1.1,0,2.2-0.1,3.4,0c0.9,0.1,2.2-0.4,2.7,0.8c0.6,1.4-0.6,1.6-1.5,2c-1.3,0.6-0.8,2-0.8,3c-0.1,5.2,0,10.5-0.2,15.7
		c-0.1,1.6,1.1,3.9-1.1,4.6c-2.3,0.8-3-1.7-4.1-3.1c-4.2-5.5-8.4-11.1-13.4-16.5c0,5.3,0,10.5,0,15.8c0,1.4,1,1.5,2,1.6
		c0.7,0.1,1,0.6,1,1.3c-0.1,0.8-0.7,1-1.3,1c-1.1,0-2.3,0.1-3.4,0c-1.2-0.1-2.7,0.7-3.4-0.8c-0.7-1.7,1.3-1.3,1.9-2.1
		c0.7-0.8,0.4-1.9,0.4-2.9c0.1-4.5,0.1-9,0.1-13.4c0-1.9,0.9-4.5-2.5-4.7c-0.5,0-0.7-0.7-0.6-1.2c0.1-0.7,0.5-1.1,1.2-1.1
		c2.5-0.1,4.8-0.5,6.6,2.2c3.7,5.4,7.8,10.6,11.8,15.9C136.6,251.3,136.9,252.2,138.3,252.1z"/>
	<path class="st3" d="M238.1,252c0-4.7,0-9.4,0-14.2c0-1.3,0-2.5-1.8-2.6c-0.8-0.1-1.4-0.6-1.2-1.5c0.2-0.9,1-1,1.8-1
		c1.4,0,2.7,0,4.1,0c1,0,2.2-0.3,2.6,0.9c0.4,1.4-0.9,1.4-1.8,1.8c-1.4,0.6-0.8,2-0.8,3c-0.1,5.6,0,11.2-0.1,16.8c0,1.2,0.8,3-1,3.5
		c-1.8,0.5-2.6-1.1-3.5-2.3c-4.4-5.8-8.8-11.7-14.1-17.4c0,5.2,0,10.5,0,15.7c0,0.8,0.2,1.5,1.2,1.6c0.9,0.1,1.9,0.1,1.8,1.4
		c-0.2,1.4-1.5,1.1-2.4,1.1c-1.1,0.1-2.2,0.1-3.4,0c-0.9-0.1-2.2,0.4-2.5-1c-0.3-1.2,0.8-1.3,1.6-1.5c1.3-0.3,1.1-1.5,1.1-2.5
		c0-5.4,0-10.7,0.1-16.1c0-1.6-0.3-2.7-2.2-2.7c-0.8,0-1.4-0.6-1.2-1.5c0.2-0.7,0.8-0.9,1.4-1c2.5-0.1,4.7-0.4,6.5,2.3
		c4,5.9,8.5,11.6,12.8,17.3C237.5,252.2,237.8,252.1,238.1,252z"/>
	<path class="st4" d="M135.5,194.7c0,5.2,0,10.3,0,15.5c0,1.2,0.7,1.5,1.7,1.5c1,0.1,1.8,0.5,1.5,1.6c-0.3,1.1-1.3,1-2.2,1
		c-1.1,0-2.2,0.1-3.4,0c-1-0.1-2.5,0.3-2.9-1.1c-0.4-1.5,1.1-1.2,1.9-1.6c1-0.5,0.7-1.5,0.7-2.3c0.1-5.4,0-10.7,0.1-16.1
		c0-1.5-0.1-2.7-2.1-2.6c-0.9,0-1.4-0.4-1.3-1.4c0.1-0.8,0.8-0.9,1.4-0.9c2.8-0.2,5.2,0,7.1,2.8c3.8,5.7,8.1,11,13,16.4
		c0-5.2,0-10.4,0-15.7c0-0.5-0.2-0.9-0.8-1.1c-0.8-0.3-2.4,0.1-2.1-1.4c0.3-1.6,1.8-0.9,2.8-1c1.1-0.1,2.2-0.1,3.4,0
		c0.9,0.1,2.2-0.4,2.4,1c0.2,1.3-0.9,1.2-1.7,1.4c-1.5,0.5-1,1.8-1,2.9c-0.1,5.8,0,11.7-0.1,17.5c0,1,0.5,2.4-1,2.9
		c-1.4,0.4-2.3-0.5-3.1-1.6c-3.8-5.1-7.6-10.1-11.5-15.2c-0.7-0.9-1.5-1.8-2.3-2.7C136,194.5,135.7,194.6,135.5,194.7z"/>
	<path class="st3" d="M342.8,188.2c1.1,0,2.2,0,3.4,0c10.3,0.2,15.6,7.3,12.8,17.3c-1.3,4.5-4.3,7.3-8.8,8.2
		c-4.4,0.9-8.9,0.7-13.4,0.6c-0.8,0-1.6,0-1.9-0.9c-0.3-1.1,0.4-1.6,1.4-1.7c1.7-0.3,1.3-1.6,1.3-2.6c0.1-5,0.1-9.9,0.1-14.9
		c0-1.6,0.7-3.7-2.1-3.8c-0.5,0-0.7-0.6-0.7-1.1c0.1-0.8,0.7-1,1.3-1C338.3,188.2,340.6,188.2,342.8,188.2
		C342.8,188.2,342.8,188.2,342.8,188.2z"/>
	<path class="st5" d="M287.3,188.2c1.1,0,2.2,0,3.4,0c8.6,0.2,13,4.4,13.1,12.3c0.1,8.5-4.5,13.2-13,13.5c-3.4,0.1-6.7,0.6-10.1,0.1
		c-0.7-0.1-1.6-0.1-1.6-1.2c0-0.7,0.5-1.1,1.1-1.2c1.9-0.2,1.6-1.6,1.6-2.8c0-5.2,0.1-10.4,0.1-15.7c0-1.4,0.2-2.8-1.9-2.9
		c-0.8,0-1-0.6-0.9-1.3c0.1-0.8,0.8-0.9,1.4-0.9C282.8,188.2,285,188.2,287.3,188.2C287.3,188.2,287.3,188.2,287.3,188.2z"/>
	<path class="st6" d="M233.5,202.1c3.8,2.7,3.8,8.2,8.6,10c0.9,0.3,0.5,1.6-0.7,1.8c-2.4,0.4-4.1-0.4-5.3-2.5
		c-1.3-2.3-2.6-4.5-4-6.7c-1-1.6-2.6-2.5-4.5-1.9c-1.8,0.5-1.1,2.4-1,3.5c0.2,2-1.5,4.9,2.2,5.7c0.3,0.1,0.6,0.8,0.5,1.2
		c-0.1,0.7-0.7,1-1.4,1c-1.6,0-3.2,0.1-4.8-0.1c-0.9-0.1-2.2,0.3-2.5-1.1c-0.3-1.3,0.9-1.2,1.7-1.5c1.2-0.6,0.8-1.7,0.8-2.6
		c0.1-4.6,0.3-9.2,0.3-13.8c0-1.8,1.2-4.5-2.3-4.8c-0.5-0.1-0.6-0.7-0.4-1.3c0.2-0.6,0.7-0.7,1.1-0.7c4.2,0,8.5-0.7,12.6,0.6
		c4.7,1.4,5.8,7.7,2.1,11.2C235.7,200.7,234.8,201.3,233.5,202.1z"/>
	<path class="st2" d="M199.5,232.5c2,0.2,4,0.2,6,0.5c2.7,0.3,4.8,1.6,5.5,4.4c0.7,2.9,0.4,6-2.5,7.7c-2.2,1.3-1.8,2.2-0.4,3.8
		c2.3,2.6,2.8,6.6,6.7,8.1c1,0.4,0.3,1.7-1.1,1.8c-2.2,0.2-3.9-0.7-5-2.6c-1.3-2.3-2.6-4.5-4-6.7c-1-1.6-2.5-2.6-4.4-2.1
		c-2.2,0.5-1.3,2.5-1.2,3.8c0.1,2-1.5,4.8,2.3,5.6c1,0.2,0.7,1.8-0.7,1.9c-2.1,0.2-4.2,0.1-6.4,0c-0.7,0-1.2-0.3-1.3-1.1
		c0-0.7,0.3-1.2,1-1.3c2.1-0.2,1.7-1.8,1.7-3.1c0.1-4.7,0.1-9.5,0.1-14.2c0-1.7,0.7-3.9-2.2-4.2c-0.5-0.1-0.7-0.7-0.6-1.2
		c0.1-0.7,0.5-1.1,1.2-1.1c1.7,0,3.5,0,5.2,0C199.5,232.6,199.5,232.6,199.5,232.5z"/>
	<path class="st2" d="M75.6,204c-4.2,0-6.5,2.1-6.8,6.3c0,0.5-0.1,1,0.4,1.2c1,0.3,2.6,0.3,1.8,2c-0.6,1.2-2,0.7-3.1,0.7
		c-1,0.1-2,0-3-0.1c-0.8-0.1-1.9,0.2-2.2-1c-0.3-1.2,0.7-1.3,1.6-1.6c1.3-0.3,1.4-1.7,1.8-2.7c2.5-6.1,5.1-12.2,7.5-18.3
		c0.5-1.3,1-2.5,2.8-2.5c1.9,0,2.2,1.3,2.7,2.6c2,5.5,4,11,6.1,16.5c0.7,1.8,0.6,4.4,3.4,4.8c0.3,0,0.6,0.8,0.6,1.2
		c0,0.7-0.7,1-1.3,1c-1.7,0-3.5,0.1-5.2,0c-0.7,0-1.6,0-2-0.8c-0.5-1.1,0.4-1.4,1.2-1.8c1.9-1,0.3-2.5-0.1-3.5c-0.6-1.6-0.3-4-3-4.1
		C77.9,204,76.7,204,75.6,204z"/>
	<path class="st7" d="M318.9,204c-4.3,0-6.1,1.6-6.7,6c-0.1,0.6-0.3,1.3,0.4,1.6c0.9,0.3,2.2,0.5,1.6,1.9c-0.5,1-1.7,0.8-2.7,0.9
		c-0.9,0.1-1.8,0.1-2.6-0.1c-1-0.2-2.5,0.4-2.8-1.1c-0.3-1.5,1.4-1,1.9-1.7c0.7-0.9,1.2-1.9,1.6-2.9c2.4-5.9,4.8-11.8,7.2-17.6
		c0.6-1.4,1-2.8,3-2.7c1.9,0.1,2.1,1.4,2.6,2.7c2.2,5.8,4.3,11.7,6.5,17.5c0.5,1.4,0.7,3.3,2.8,3.5c0.7,0.1,1,0.7,0.9,1.4
		c-0.1,0.7-0.7,1-1.4,1c-1.7,0-3.5,0-5.2,0c-0.7,0-1.6,0-2-0.8c-0.4-1.1,0.4-1.4,1.3-1.8c1.8-0.9,0.3-2.3,0-3.1
		c-0.7-1.7-0.2-4.3-3.1-4.4C321.1,203.9,320,204,318.9,204z"/>
	<path class="st8" d="M255.4,258.8c-2.4,0-4.7,0-7.1,0c-0.6,0-1.3-0.1-1.4-0.9c-0.1-0.7,0.1-1.3,0.8-1.4c1.8-0.3,1.6-1.6,1.6-2.8
		c0-5.2,0.1-10.5,0.1-15.7c0-1.2,0.2-2.6-1.6-2.8c-0.9-0.1-1.4-0.7-1.1-1.6c0.2-0.9,1-1,1.8-1c4.6,0,9.2,0,13.8,0
		c1.2,0,2,0.4,1.9,1.7c-0.1,1.4,0.7,3.1-0.7,4.2c-0.9,0.7-1.8,0.3-2.2-1.1c-1-4.3-4.4-1.7-6.7-2c-2.7-0.3-1.7,2.2-1.8,3.6
		c-0.2,5.1-0.1,5.1,5.4,5.3c1,0.1,2.6-0.6,2.5,1.2c-0.1,1.4-1.5,0.9-2.4,1.1c-1.8,0.3-4.5-1-5.2,0.8c-0.8,2.3-0.3,5.1-0.3,7.8
		c0,0.7,0.6,1.3,1.2,1.1c2.7-0.9,7,2.8,8-3c0.2-1.2,1.7-1.2,2.3-0.2c0.9,1.5,0.1,3.2-0.1,4.7c-0.2,1.4-1.5,1-2.4,1
		C259.6,258.9,257.5,258.8,255.4,258.8C255.4,258.8,255.4,258.8,255.4,258.8z"/>
	<path class="st9" d="M180,258.8c-2.4,0-4.7,0-7.1,0c-0.6,0-1.3-0.1-1.4-0.9c-0.1-0.7,0.1-1.3,0.8-1.4c2.3-0.2,1.9-1.9,1.9-3.3
		c0-4.5,0.1-9,0-13.4c0-1.9,0.9-4.2-2.3-5c-1.2-0.3-0.6-1.9,0.6-2c5-0.2,10-0.1,14.9-0.1c1.3,0,1.6,1.1,1.5,2.1
		c-0.1,1.3,0.7,2.9-0.7,3.8c-1.1,0.7-1.8,0.1-2.1-1.2c-1-4.4-4.5-1.6-6.7-2c-2.4-0.4-1.7,2-1.7,3.3c-0.2,5.4-0.1,5.4,5.1,5.6
		c1,0.1,2.7-0.5,2.6,1.2c-0.1,1.6-1.7,0.9-2.7,1.1c-1.6,0.4-4-1-4.7,0.9c-0.9,2.4-0.8,5.1-0.4,7.7c0.2,1.1,1.2,1.3,2.1,1.1
		c2.6-0.5,6.6,2,7.2-3.2c0-0.3,0.8-0.6,1.2-0.6c0.7-0.1,1,0.4,1.3,1.1c1.1,3.2-0.3,5.2-3.7,5.2C183.8,258.9,181.9,258.9,180,258.8
		C180,258.8,180,258.8,180,258.8z"/>
	<path class="st10" d="M252.5,214.7c-1.3-0.2-2.9-0.3-4.4-0.7c-2.6-0.6-3.6-2.8-2.7-5.3c0.3-0.7,0.7-1,1.3-1
		c1.1-0.1,1.6,0.4,1.7,1.5c0.4,3.9,3.6,2.8,5.7,2.8c2.6,0,5-1.1,5.4-4.1c0.4-2.8-1.5-4-3.8-4.7c-2-0.7-4-1.2-6-2
		c-2.8-1.1-4.4-3.1-4.3-6.3c0.1-3.1,1.6-5.2,4.4-6.3c3.4-1.3,6.8-1.1,10.3-0.2c1.7,0.5,2.8,3.8,1.7,5.2c-0.2,0.3-0.8,0.5-1.2,0.6
		c-0.9,0.1-1.3-0.5-1.5-1.3c-0.8-3.9-3.9-2.2-6-2.2c-2.1,0-3.8,1.1-4.1,3.6c-0.3,2.9,1.8,3.8,4,4.6c1.4,0.5,2.9,0.8,4.3,1.2
		c4.2,1.4,6.2,4,5.9,7.6c-0.3,3.5-2.9,6.1-6.9,6.8C255.1,214.5,254,214.5,252.5,214.7z"/>
	<path class="st10" d="M104.5,199.8c0-2.4,0-4.7,0-7.1c0-1,0.1-2.1-1.3-2.2c-1-0.1-1.8-0.3-1.5-1.6c0.3-0.9,1.2-0.8,1.9-0.8
		c1.4,0,2.7-0.1,4.1,0c0.9,0,2.2-0.4,2.6,0.8c0.5,1.5-0.9,1.4-1.8,1.7c-1.1,0.4-0.8,1.4-0.8,2.2c0,4.5-0.1,9,0.1,13.4
		c0.2,4.1,2.3,5.8,6.7,5.8c4.5,0,6.6-1.8,6.8-6c0.2-3.7,0.3-7.5,0.3-11.2c0-1.9,1.1-4.5-2.5-4.5c-0.5,0-0.8-0.6-0.7-1.1
		c0.1-0.8,0.7-1,1.3-1c1.6,0,3.2-0.1,4.9,0c0.9,0,2.2-0.5,2.6,0.8c0.4,1.5-1,1.3-1.8,1.6c-1.2,0.5-0.8,1.7-0.8,2.6
		c-0.1,4.2,0,8.5-0.1,12.7c-0.2,5.9-3.5,8.7-10.3,8.6c-6.5-0.1-9.3-2.6-9.5-8.8C104.4,203.8,104.5,201.8,104.5,199.8z"/>
	<path class="st11" d="M52.1,258.8c-2.4,0-4.7,0-7.1,0c-0.7,0-1.6,0-1.7-1c-0.1-0.7,0.2-1.3,0.9-1.3c2.1-0.1,1.8-1.7,1.8-3
		c0-4.9,0.1-9.7,0.1-14.6c0-1.6,0.7-3.7-2.1-3.9c-0.7,0-0.8-0.9-0.7-1.5c0.2-0.7,0.8-0.9,1.4-0.9c4.9,0,9.7,0,14.6,0
		c1.3,0,1.7,0.9,1.6,2c-0.1,1.3,0.6,3-0.7,3.8c-1.2,0.8-1.8,0-2.3-1.4c-1.3-4.1-4.6-1.4-6.9-1.8c-2.3-0.3-1.6,2-1.7,3.3
		c-0.1,6.4-0.3,5.6,5.2,5.6c1,0,2.7-0.6,2.7,1c0,2-1.8,1-2.9,1.3c-1.6,0.4-4.2-0.9-4.8,0.9c-0.7,2.5-1,5.8,0.1,8
		c1,2.2,4.3,0.6,6.6,0.9c1.4,0.2,2-0.6,2-2c0-1.1,0.3-2,1.7-1.9c1.5,0.2,1.1,1.4,1.2,2.3c0.4,2.9-0.6,4.5-3.8,4
		C55.7,258.7,53.9,258.9,52.1,258.8C52.1,258.8,52.1,258.8,52.1,258.8z"/>
	<path class="st3" d="M207.7,188.2c2,0,4,0.2,6,0c2.6-0.3,3.3,1,3.1,3.3c-0.1,1.1,0.3,2.4-1.3,2.7c-1.8,0.3-1.4-1.2-1.7-2.2
		c-0.9-2.6-3.2-1-4.8-1.4c-4.6-1-3.7,2.4-3.9,5c-0.3,2.9,0.4,4.4,3.7,4.1c1.4-0.1,4.2-1.2,4.2,1.3c0,1.9-2.7,1-4.1,0.9
		c-2.8-0.2-4.3,0.5-3.8,3.7c0.2,1,0.1,2,0,3c-0.3,2.4,0.5,3.6,3.1,3.2c2.4-0.4,6.1,1.7,6.3-3.2c0-0.8,1.3-0.9,1.9-0.5
		c1.4,1.1,0.5,2.8,0.6,4.2c0.1,1.4-0.6,2.1-2,2.1c-4.6,0-9.2,0-13.8-0.1c-0.8,0-1.9,0-2-1.3c-0.1-1,0.7-1.2,1.5-1.3
		c1.7-0.3,1.2-1.6,1.3-2.7c0.1-5.2,0.1-10.5,0.1-15.7c0-1.4,0.1-2.8-1.9-2.9c-0.8,0-1-0.7-0.9-1.4c0.2-0.8,0.8-0.8,1.4-0.9
		C202.9,188.2,205.3,188.2,207.7,188.2C207.7,188.2,207.7,188.2,207.7,188.2z"/>
	<path class="st6" d="M184.6,209.8c2.1-5.9,4.3-11.8,6.4-17.7c0.4-1.2,0-1.6-1.1-1.7c-0.9-0.1-1.4-0.5-1.3-1.4
		c0.2-1,1.1-0.9,1.8-0.9c1,0,2-0.1,3,0c1.3,0.1,3.1-0.7,3.7,0.7c0.8,2-1.7,1.2-2.3,2.1c-0.4,0.7-0.7,1.6-1.1,2.4
		c-2.3,5.9-4.6,11.8-6.9,17.7c-0.6,1.4-0.7,3.3-3,3.2c-2-0.1-2.2-1.7-2.8-3c-2.3-5.8-4.5-11.6-6.8-17.4c-0.6-1.4-0.6-3.3-2.8-3.5
		c-0.8-0.1-0.9-0.7-0.8-1.4c0.1-0.6,0.7-0.7,1.1-0.7c1.5-0.1,3-0.1,4.5,0c1,0.1,2.4-0.6,3,0.8c0.6,1.5-1,1.3-1.7,1.8
		c-1,0.7-0.2,1.6,0.1,2.3c2,5.5,4,11,5.9,16.5C184,209.6,184.3,209.7,184.6,209.8z"/>
	<path class="st12" d="M157.8,232.6c3,0,6,0,9,0c1,0,2.1,0.1,2.2,1.5c0.1,1.6,0.8,3.4-0.4,4.7c-0.9,0.9-2.2,0.3-2.4-1.2
		c-0.4-4.2-3.6-2.1-5.5-2.2c-2.4-0.2-1.6,2.1-1.6,3.4c-0.2,4.8-0.2,9.7-0.3,14.5c0,1.5-0.3,3.1,2,3.1c0.7,0,1.2,0.4,1.2,1.2
		c0,1-0.7,1.2-1.5,1.2c-2.1,0-4.2,0-6.4,0c-0.7,0-1.2-0.3-1.3-1c-0.1-0.7,0.3-1.3,1-1.3c2.1-0.2,1.7-1.8,1.7-3
		c0.1-5.1,0.1-10.2,0.1-15.3c0-1.3,0.3-3.1-1.9-2.8c-1.8,0.3-4.5-1.6-5.1,1.8c-0.2,1.1-0.4,2-1.7,1.9c-1.5-0.1-1.1-1.4-1.2-2.3
		c-0.3-2.8,0.3-4.6,3.7-4.2C152.3,232.8,155,232.6,157.8,232.6z"/>
	<path class="st12" d="M278.9,232.6c2.9,0,5.7,0,8.6,0c1.1,0,2.5-0.2,2.6,1.4c0.2,1.6,0.9,3.5-0.3,4.7c-1.1,1.1-2.2,0.3-2.5-1.3
		c-0.5-3.8-3.5-1.7-5.3-2c-2.1-0.3-1.7,1.7-1.7,2.9c-0.1,5-0.2,9.9-0.3,14.9c0,1.4-0.4,3.2,2,3.2c0.9,0,1.4,0.5,1.3,1.4
		c-0.1,0.8-0.7,0.9-1.4,1c-2.1,0-4.2,0-6.4,0c-0.6,0-1.3-0.1-1.4-0.9c-0.2-0.9,0.3-1.4,1.2-1.5c1.7-0.1,1.5-1.4,1.5-2.5
		c0-5.4,0.1-10.7,0.1-16.1c0-1.2,0.2-2.8-1.7-2.6c-1.7,0.2-3.9-1.1-5.1,1c-0.6,1,0,3.3-2.1,2.6c-1.8-0.6-0.8-2.6-0.9-3.9
		c-0.2-1.8,0.7-2.4,2.4-2.4C272.7,232.7,275.8,232.6,278.9,232.6z"/>
	<path class="st8" d="M52.2,214.2c-2.4,0-4.7,0-7.1,0c-0.7,0-1.6,0-1.8-1c-0.2-0.9,0.2-1.5,1.1-1.5c1.9-0.2,1.6-1.6,1.6-2.8
		c0-5.2,0-10.5,0.1-15.7c0-1.4,0.1-2.8-1.9-2.8c-0.8,0-1-0.7-0.9-1.3c0.1-0.8,0.8-0.9,1.4-0.9c1.2,0,2.5-0.1,3.7,0
		c1.2,0.1,2.8-0.6,3.4,0.7c0.7,1.7-1.2,1.3-2,1.9c-0.7,0.5-0.5,1.3-0.5,2.1c0,5.3,0,10.7-0.1,16c-0.1,2.1,0.7,3.2,2.8,2.7
		c2.3-0.5,6.1,2,6.4-3c0.1-1.1,1.6-1.1,2.1-0.5c1.2,1.3,0.5,3.1,0.5,4.7c0,1.3-1,1.5-2.1,1.6C56.7,214.3,54.4,214.3,52.2,214.2
		C52.2,214.3,52.2,214.3,52.2,214.2z"/>
	<path class="st13" d="M162.8,201c0-2.6,0-5.2,0-7.8c0-0.9,0.3-2.1-1-2.5c-1-0.3-2.2-0.2-1.7-1.7c0.4-1,1.5-0.7,2.3-0.7
		c1.1-0.1,2.2-0.1,3.4,0c1,0.1,2.5-0.6,2.9,0.9c0.4,1.5-1.1,1.3-1.9,1.6c-1.1,0.5-0.7,1.5-0.7,2.3c-0.1,5.4-0.1,10.7-0.1,16.1
		c0,1.3-0.1,2.5,1.7,2.7c0.9,0.1,1.3,0.8,1.1,1.6c-0.2,0.7-0.8,0.9-1.5,0.9c-1.2,0-2.5,0.1-3.7,0c-1.2-0.1-2.8,0.5-3.4-0.9
		c-0.7-1.7,1.3-1.3,1.9-2.1c0.5-0.6,0.5-1.6,0.5-2.5c0.1-2.6,0-5.2,0-7.8C162.6,201,162.7,201,162.8,201z"/>
	<path class="st14" d="M269.5,200.7c0-2.5,0-5,0-7.5c0-1.2,0.4-2.6-1.6-2.7c-0.9,0-1.4-0.6-1.1-1.5c0.2-0.7,0.9-0.8,1.5-0.8
		c1.4,0,2.7-0.1,4.1,0c1,0.1,2.5-0.6,3,0.8c0.6,1.5-0.9,1.3-1.7,1.8c-0.9,0.5-0.6,1.5-0.6,2.4c-0.1,4.9-0.3,9.7-0.3,14.6
		c0,1.7-0.8,3.9,2.2,4.2c0.5,0,0.7,0.6,0.6,1.2c-0.1,0.7-0.7,1-1.3,1.1c-1.5,0.1-3,0.1-4.5,0.1c-1.1,0-2.5,0.4-2.9-1
		c-0.4-1.3,0.9-1.5,1.8-1.8c1.1-0.4,0.8-1.4,0.8-2.2C269.4,206.4,269.4,203.5,269.5,200.7C269.4,200.7,269.4,200.7,269.5,200.7z"/>
	<path class="st15" d="M109.3,232.6c0.9,0,1.7,0,2.6,0c0.6,0,1.3,0.1,1.5,0.8c0.2,0.9-0.1,1.5-1,1.6c-2,0.3-1.6,1.9-1.7,3.2
		c0,4.6-0.1,9.2-0.1,13.8c0,1.7-1.1,4.2,2.2,4.5c0.2,0,0.5,0.8,0.5,1.2c0,0.8-0.7,0.9-1.3,1c-2,0-4,0-6,0c-0.6,0-1.2-0.2-1.3-1
		c-0.1-0.7,0.2-1.3,1-1.3c2.1-0.2,1.8-1.7,1.8-3c0-4.9,0.1-9.7,0.1-14.6c0-1.7,0.5-3.6-2.1-4c-0.3,0-0.6-0.7-0.7-1.2
		c-0.1-0.7,0.5-1.1,1.2-1.1C107.1,232.6,108.2,232.7,109.3,232.6C109.3,232.7,109.3,232.6,109.3,232.6z"/>
	<path class="st16" d="M367.4,83.4c3,0.1,6.8-0.2,10.5,0.5c8.5,1.6,12.5,5.9,12.8,13.6c0.3,8.3-4.3,14.7-12.2,16.6
		c-6.9,1.7-13.9,0.5-20.9,0.8c-1.5,0.1-1.5-1-1.5-2c0-9.2,0-18.4,0-27.7c0-1.5,0.5-1.9,2-1.9C361,83.5,363.9,83.4,367.4,83.4z"/>
	<path class="st17" d="M340.8,201.4c0-1.2-0.2-2.5,0-3.7c0.4-2.4-1.3-5.7,1.6-7c4.3-1.8,10.6,0.8,12.4,4.6c2.1,4.4,1.9,8.8-0.9,12.8
		c-2.9,4-7.3,3.7-11.6,3.6c-1.7,0-1.6-1.3-1.6-2.4C340.7,206.6,340.7,204,340.8,201.4C340.7,201.4,340.7,201.4,340.8,201.4z"/>
	<path class="st16" d="M285.1,200.7c0-1.9,0.2-3.7,0-5.6c-0.5-3.7,0.8-5.1,4.6-4.7c4,0.4,7.8,1,9.5,5.2c1.7,4.4,1.7,8.8-1.3,12.7
		c-2.9,3.8-7.2,3.4-11.3,3.3c-1.6,0-1.6-1.2-1.6-2.4C285,206.4,285,203.6,285.1,200.7C285,200.7,285,200.7,285.1,200.7z"/>
	<path class="st18" d="M226.5,195.3c0.4-2.1-1.2-5.2,3.1-4.9c3.9,0.3,5.9,1.7,5.9,4.7c0,3.2-2.4,5.1-6.3,5.1
		C224.7,200.3,227.4,196.9,226.5,195.3z"/>
	<path class="st19" d="M198.9,240.1c0.5-2-1.3-5.2,3-4.9c4,0.2,5.9,1.5,6,4.6c0,3.3-2.5,5.2-6.4,5.2
		C197.4,244.9,199.6,241.8,198.9,240.1z"/>
	<path class="st20" d="M76.2,191.4c0.9,2.6,1.7,4.2,2.1,5.8c0.3,1.3,2.1,2.9,0.8,4c-1.4,1.1-3.6,0.5-5.4,0.3
		c-1.5-0.1-0.9-1.2-0.6-1.9C73.9,197.2,74.8,194.8,76.2,191.4z"/>
	<path class="st21" d="M319.5,191.5c0.9,2.5,1.4,4,2,5.5c1.7,4.6,1.2,5.2-3.8,4.6c-1.5-0.2-2-0.6-1.4-2.1
		C317.2,197.2,318.1,194.8,319.5,191.5z"/>
</g>
</svg>
