<?xml version="1.0" encoding="utf-8"?>
<!-- Generator: Adobe Illustrator 26.0.1, SVG Export Plug-In . SVG Version: 6.00 Build 0)  -->
<svg version="1.1" id="Capa_1" xmlns="http://www.w3.org/2000/svg" xmlns:xlink="http://www.w3.org/1999/xlink" x="0px" y="0px"
	 viewBox="0 0 198.4 198.4" style="enable-background:new 0 0 198.4 198.4;" xml:space="preserve">
<g>
	<path d="M117.2,152.7c-4.6,2.6-8.9,5.4-13.5,7.6c-16,7.5-32.1,7.9-48.1-0.2c-8.3-4.2-13.6-10.9-15.3-20c-1.1-5.9-1.9-11.9-2-17.9
		c-0.2-19.4-0.1-38.9,0-58.3c0-2.3-0.6-3.1-3-3c-4.1,0.2-8.3,0.1-12.6,0.1c0-7.5,0-14.8,0-22.3c7.7-0.6,15.3-1.4,23-1.8
		c4.7-0.2,9.5-0.1,14.1,0.5c7.7,0.9,11.4,5,12.3,12.8c0.3,2.8,0.5,5.6,0.5,8.4c0,20.1,0,40.2,0,60.2c0,1.7,0.1,3.4,0.3,5
		c0.8,6.6,3.8,9.1,10.4,10.9c5.6,1.5,11.4,1.4,17.2,0.9c4.5-0.4,8.9-1.2,13.3-1.8c2.1-0.3,3-1,3-3.5c-0.1-22.1-0.1-44.2,0-66.2
		c0-2.4-0.7-3-3-2.9c-4.1,0.2-8.2,0-12.4,0c0-7.4,0-14.6,0-22.2c2.5-0.3,5.1-0.6,7.7-0.8c8.7-0.5,17.5-1.4,26.1-1.1
		c8.7,0.3,12.6,2.7,14.6,9.5c0.9,3.2,1.2,6.6,1.2,10c0.1,26.5,0.1,53,0,79.5c0,2.4,0.6,3.2,3.1,3.1c4.1-0.2,8.1-0.1,12.5-0.1
		c0,5.7,0,11.1,0,16.6c0,5,0,5.2-4.9,5.8c-9.8,1.3-19.7,2.6-29.7,1.8c-4.7-0.4-9.3-1.3-12.3-5.6C118.8,156,118.1,154.3,117.2,152.7z
		"/>
</g>
</svg>
