<svg width="101" height="51" viewBox="0 0 101 51" fill="none" xmlns="http://www.w3.org/2000/svg">
<g clip-path="url(#clip0_11_181)">
<path d="M87.2988 0.926025H13.4075C6.453 0.926025 0.80249 6.63279 0.80249 13.6565V28.3624C0.80249 35.3861 6.453 41.0929 13.4075 41.0929H83.8215H85.2341L93.0579 50.4212L95.0139 38.459C98.0565 36.1543 100.012 32.423 100.012 28.2526V13.6565C100.012 6.63279 94.3619 0.926025 87.2988 0.926025Z" fill="black"/>
<path d="M25.6865 17.4976V13.6565V11.9006C25.6865 11.4616 25.6865 11.1323 25.7951 11.0226C25.7951 10.8031 26.0124 10.8031 26.2298 10.8031C26.5558 10.8031 26.7731 11.1323 26.7731 11.6811V12.6688V15.7416V20.6802V25.8382V29.4598C26.7731 29.7891 26.7731 30.0086 26.6644 30.1183C26.5558 30.228 26.4471 30.3378 26.2298 30.3378C26.0124 30.3378 25.9038 30.228 25.7951 30.1183C25.6865 30.0086 25.6865 29.7891 25.6865 29.4598V28.2526V21.3387V18.8145H25.1431L22.5352 18.4853L16.6674 18.595V22.4361L16.776 29.8988H8.40894L8.5176 17.9366V14.7539V11.9006V11.1323H16.8847V11.9006L16.776 17.7171C17.754 17.8268 19.1666 17.8268 21.2312 17.8268C22.9699 17.6073 24.4912 17.6073 25.6865 17.4976Z" fill="white"/>
<path d="M41.8774 11.9006V16.2904V20.3509V29.7891H33.5103L33.619 18.8145V15.0832V11.9006H31.7717L29.1638 12.0103H28.7291C28.2945 12.0103 28.0771 11.7908 28.0771 11.4616C28.0771 11.1323 28.1858 11.0226 28.5118 10.9128C28.6205 10.9128 28.8378 10.9128 29.1638 10.9128H45.898C46.4413 10.9128 46.876 10.9128 46.9846 11.0226C47.202 11.1323 47.3106 11.2421 47.3106 11.4616C47.3106 11.7908 47.0933 11.9006 46.6586 11.9006H45.4633H42.3121H41.8774Z" fill="white"/>
<path d="M67.7393 10.3641L70.6732 20.5705L71.9772 25.07L73.1725 29.2404L73.3898 29.7891H65.1314L62.5234 20.0217L56.8729 28.5819L51.1138 20.4607C50.5704 22.4361 49.9185 24.8505 49.2665 27.8137C49.0491 28.9111 48.8318 29.5696 48.7232 29.7891C48.6145 30.0086 48.3972 30.1183 48.0712 30.1183C47.6365 30.1183 47.4192 30.0086 47.4192 29.6793C47.4192 29.5696 47.5279 29.1306 47.8538 28.2526L48.7232 25.2895L50.2444 20.2412L53.1784 10.3641L60.6762 21.3387L67.7393 10.3641Z" fill="white"/>
<path d="M83.7128 11.0226L83.6041 13.876V18.4853V21.7776V28.9111H84.5821L90.45 28.8013H91.5366C92.0799 28.8013 92.2972 28.9111 92.2972 29.2403C92.2972 29.5696 92.1886 29.6793 91.8626 29.6793C91.7539 29.6793 91.5366 29.6793 91.2106 29.6793H75.3457V24.4115V21.2289V17.6073V12.12V10.9128H83.7128V11.0226Z" fill="white"/>
</g>
<defs>
<clipPath id="clip0_11_181">
<rect width="99.2099" height="49.6049" fill="white" transform="translate(0.80249 0.926025)"/>
</clipPath>
</defs>
</svg>
