<svg width="275" height="186" viewBox="0 0 275 186" fill="none" xmlns="http://www.w3.org/2000/svg">
<path d="M94.5827 15.4146H244.782L200.091 155.184H48.1135L94.5827 15.4146Z" fill="black"/>
<path d="M212.66 164.434C212.66 164.434 213.803 172.671 199.583 171.023L15.9915 170.136C14.3409 157.465 22.9745 159.745 22.9745 159.745L191.203 159.365C205.296 162.026 205.931 148.594 205.931 148.594C205.931 148.594 243.513 37.59 245.798 23.9046C248.084 10.2191 259.891 15.6679 259.891 15.6679L212.66 164.434Z" fill="black"/>
<path d="M185.109 61.2861H123.785V63.3136H185.109V61.2861Z" fill="white"/>
<path d="M177.11 79.6602H119.849V80.8006H177.11V79.6602Z" fill="white"/>
<path d="M199.71 70.4098H121.119V71.8037H199.71V70.4098Z" fill="white"/>
<path d="M196.409 79.28H181.427V80.6739H196.409V79.28Z" fill="white"/>
<path d="M176.348 88.6571H159.589V90.051H176.348V88.6571Z" fill="white"/>
<path d="M155.653 88.4037H131.149V90.051H155.653V88.4037Z" fill="white"/>
<path d="M191.33 97.2739H133.815V98.5411H191.33V97.2739Z" fill="white"/>
<path d="M188.664 106.397H151.717V107.538H188.664V106.397Z" fill="white"/>
<path d="M184.982 116.028H169.746V117.169H184.982V116.028Z" fill="white"/>
<path d="M181.173 125.912H139.529V127.939H181.173V125.912Z" fill="white"/>
<path d="M165.175 135.542H149.051V136.556H165.175V135.542Z" fill="white"/>
<path d="M163.271 28.8466L165.683 29.6069L159.208 49.3748L156.923 48.7412L163.271 28.8466Z" fill="white"/>
<path d="M173.809 30.3672L175.333 28.8466L183.204 40.1244L168.857 50.1351L167.461 48.1076L180.538 38.3504L173.809 30.3672Z" fill="white"/>
<path d="M153.495 28.4664L155.145 29.987L142.068 39.2374L148.543 48.6145L146.892 50.5152L137.37 38.4771L153.495 28.4664Z" fill="white"/>
</svg>
