<svg width="70" height="36" viewBox="0 0 70 36" fill="none" xmlns="http://www.w3.org/2000/svg">
<g clip-path="url(#clip0_23_1564)">
<path d="M59.6158 35.6544H10.1827C4.60507 35.6544 0.121094 31.1348 0.121094 25.5129V11.0724C0.121094 5.45047 4.60507 0.930908 10.1827 0.930908H59.6158C65.1934 0.930908 69.6774 5.45047 69.6774 11.0724V25.6231C69.568 31.1348 65.0841 35.6544 59.6158 35.6544Z" fill="black"/>
<path d="M11.9327 25.4027C11.0577 24.9618 10.2922 24.3004 9.63599 23.4185L10.6203 22.5367C11.2765 23.3083 11.8233 23.9697 12.4795 24.3004C13.1357 24.6311 14.0106 24.8516 14.9949 24.8516C16.3073 24.8516 17.2916 24.6311 18.0571 24.0799C18.8227 23.5288 19.1508 22.8674 19.1508 21.9855C19.1508 21.4343 19.0414 20.9934 18.7133 20.5525C18.3852 20.1115 17.9477 19.8911 17.2916 19.6706C16.6354 19.4501 15.6511 19.1194 14.3387 18.899C12.9169 18.5683 11.8233 18.1273 11.1671 17.4659C10.5109 16.8045 10.0734 15.9227 10.0734 14.8203C10.0734 13.4975 10.5109 12.5054 11.4952 11.7338C12.3701 10.9622 13.6825 10.6315 15.323 10.6315C16.526 10.6315 17.5103 10.8519 18.2758 11.1826C19.0414 11.5133 19.807 12.1747 20.2444 12.9464L19.2601 13.8282C18.8227 13.1668 18.2758 12.7259 17.6196 12.3952C16.9635 12.0645 16.1979 11.844 15.323 11.844C14.2293 11.844 13.3544 12.0645 12.6982 12.6157C12.042 13.1668 11.7139 13.8282 11.7139 14.7101C11.7139 15.4817 12.042 16.0329 12.5888 16.4738C13.1357 16.9148 14.12 17.2455 15.4323 17.5762C16.8541 17.9069 17.9477 18.1273 18.7133 18.5683C19.4789 18.899 20.0257 19.3399 20.3538 19.8911C20.6819 20.4422 20.7912 21.1036 20.7912 21.8753C20.7912 23.1981 20.3538 24.3004 19.3695 24.9618C18.3852 25.6232 17.0728 26.0641 15.2136 26.0641C13.7919 25.9539 12.8076 25.7334 11.9327 25.4027Z" fill="white"/>
<path d="M24.619 24.6311C23.6347 23.7492 23.0879 22.3162 23.0879 20.5525V16.0329C23.0879 14.2692 23.6347 12.9464 24.619 12.0645C25.6033 11.1826 27.025 10.6315 28.8842 10.6315C30.0873 10.6315 31.1809 10.8519 32.0558 11.1826C32.9308 11.6236 33.6963 12.1747 34.2431 12.9464L33.1495 13.718C32.6027 13.0566 32.0558 12.5054 31.3997 12.285C30.7435 12.0645 29.9779 11.844 28.9936 11.844C27.5719 11.844 26.4782 12.1747 25.822 12.9464C25.1658 13.718 24.7284 14.7101 24.7284 16.0329V20.5525C24.7284 21.8753 25.0565 22.9776 25.822 23.639C26.5876 24.3004 27.6812 24.7413 29.103 24.7413C30.0873 24.7413 30.8528 24.6311 31.6184 24.3004C32.3839 23.9697 32.9308 23.4185 33.3682 22.7571L34.4619 23.639C33.8057 24.5209 33.1495 25.072 32.2746 25.513C31.3997 25.9539 30.4154 26.0641 29.2123 26.0641C27.1344 25.9539 25.6033 25.513 24.619 24.6311Z" fill="white"/>
<path d="M38.2896 25.4027C37.4147 24.9618 36.6491 24.3004 35.9929 23.4185L36.9772 22.5367C37.6334 23.3083 38.1802 23.9697 38.8364 24.3004C39.4926 24.6311 40.3675 24.8516 41.3518 24.8516C42.6642 24.8516 43.6485 24.6311 44.414 24.0799C45.1796 23.5288 45.5077 22.8674 45.5077 21.9855C45.5077 21.4343 45.3983 20.9934 45.0702 20.5525C44.7421 20.1115 44.3047 19.8911 43.6485 19.6706C42.9923 19.4501 42.008 19.1194 40.6956 18.899C39.2739 18.5683 38.1802 18.1273 37.524 17.4659C36.8678 16.8045 36.4304 15.9227 36.4304 14.8203C36.4304 13.4975 36.8678 12.5054 37.8521 11.7338C38.7271 10.9622 40.0394 10.6315 41.6799 10.6315C42.8829 10.6315 43.8672 10.8519 44.6328 11.1826C45.3983 11.5133 46.1639 12.1747 46.6014 12.9464L45.6171 13.8282C45.1796 13.1668 44.6328 12.7259 43.9766 12.3952C43.3204 12.0645 42.5548 11.844 41.6799 11.844C40.5863 11.844 39.7113 12.0645 39.0551 12.6157C38.399 13.1668 38.0709 13.8282 38.0709 14.7101C38.0709 15.4817 38.399 16.0329 38.9458 16.4738C39.4926 16.9148 40.4769 17.2455 41.7893 17.5762C43.211 17.9069 44.3047 18.1273 45.0702 18.5683C45.8358 18.899 46.3826 19.3399 46.7107 19.8911C47.0388 20.4422 47.1482 21.1036 47.1482 21.8753C47.1482 23.1981 46.7107 24.3004 45.7264 24.9618C44.7421 25.6232 43.4298 26.0641 41.5706 26.0641C40.1488 25.9539 39.1645 25.7334 38.2896 25.4027Z" fill="white"/>
<path d="M51.3042 25.4027C50.4293 24.9618 49.6638 24.3004 49.0076 23.4185L49.9919 22.5367C50.648 23.3083 51.1949 23.9697 51.8511 24.3004C52.5073 24.6311 53.3822 24.8516 54.3665 24.8516C55.6788 24.8516 56.6631 24.6311 57.4287 24.0799C58.1943 23.5288 58.5223 22.8674 58.5223 21.9855C58.5223 21.4343 58.413 20.9934 58.0849 20.5525C57.7568 20.1115 57.3193 19.8911 56.6631 19.6706C56.0069 19.4501 55.0227 19.1194 53.7103 18.899C52.2885 18.5683 51.1949 18.1273 50.5387 17.4659C49.8825 16.8045 49.445 15.9227 49.445 14.8203C49.445 13.4975 49.8825 12.5054 50.8668 11.7338C51.7417 10.9622 53.0541 10.6315 54.6946 10.6315C55.8976 10.6315 56.8819 10.8519 57.6474 11.1826C58.413 11.5133 59.1785 12.1747 59.616 12.9464L58.6317 13.8282C58.1942 13.1668 57.6474 12.7259 56.9912 12.3952C56.335 12.0645 55.5695 11.844 54.6946 11.844C53.6009 11.844 52.726 12.0645 52.0698 12.6157C51.4136 13.1668 51.0855 13.8282 51.0855 14.7101C51.0855 15.4817 51.4136 16.0329 51.9604 16.4738C52.5073 16.9148 53.4915 17.2455 54.8039 17.5762C56.2257 17.9069 57.3193 18.1273 58.0849 18.5683C58.8504 18.899 59.3973 19.3399 59.7254 19.8911C60.0535 20.4422 60.1628 21.1036 60.1628 21.8753C60.1628 23.1981 59.7254 24.3004 58.7411 24.9618C57.7568 25.6232 56.4444 26.0641 54.5852 26.0641C53.2728 25.9539 52.1792 25.7334 51.3042 25.4027Z" fill="white"/>
</g>
<defs>
<clipPath id="clip0_23_1564">
<rect width="69.4469" height="34.7235" fill="white" transform="translate(0.121094 0.930908)"/>
</clipPath>
</defs>
</svg>
