<svg width="74" height="33" viewBox="0 0 74 33" fill="none" xmlns="http://www.w3.org/2000/svg">
<g clip-path="url(#clip0_23_1586)">
<path d="M62.4657 32.5482H11.1937C5.42429 32.5482 0.743408 27.8522 0.743408 22.0642V11.1433C0.743408 5.35527 5.42429 0.659302 11.1937 0.659302H62.4657C68.2352 0.659302 72.9161 5.35527 72.9161 11.1433V21.955C73.0249 27.8522 68.2352 32.5482 62.4657 32.5482Z" fill="black"/>
<path d="M35.6868 5.90137C36.0133 5.90137 36.3399 6.01058 36.5576 6.11978C36.7754 6.22899 37.1019 6.44741 37.2108 6.55662C37.4285 6.77504 37.5374 6.99345 37.6462 7.21187C37.7551 7.43029 37.8639 7.75791 37.8639 8.08554V19.2248C37.8639 20.3169 37.6462 21.409 37.2108 22.2826C36.7753 23.2655 36.2311 24.1392 35.4691 24.7944C34.7071 25.5589 33.945 26.1049 32.9653 26.5418C31.9856 26.9786 31.0059 27.197 29.8085 27.197C28.7199 27.197 27.6313 26.9786 26.7604 26.5418C25.8896 26.1049 24.9099 25.5589 24.2567 24.7944C23.6036 24.03 22.9504 23.2655 22.515 22.2826C22.1884 21.409 21.9707 20.3169 21.9707 19.2248C21.9707 18.8972 22.0796 18.5696 22.1884 18.3511C22.2973 18.1327 22.515 17.8051 22.6238 17.6959C22.8416 17.4775 23.0593 17.3683 23.3859 17.2591C23.6036 17.0406 23.9301 17.0406 24.2567 17.0406C24.5833 17.0406 24.9099 17.1498 25.1276 17.2591C25.3453 17.3683 25.6719 17.5867 25.7807 17.6959C25.9984 17.9143 26.1073 18.1327 26.2162 18.3511C26.325 18.5696 26.4339 18.8972 26.4339 19.2248C26.4339 19.6616 26.5427 20.2077 26.7604 20.5353C26.9782 20.8629 27.1959 21.2998 27.5224 21.6274C27.849 21.955 28.1756 22.1734 28.611 22.3919C29.0465 22.6103 29.4819 22.7195 29.9173 22.7195C30.3527 22.7195 30.897 22.6103 31.3325 22.3919C31.7679 22.1734 32.0945 21.955 32.421 21.6274C32.7476 21.2998 32.9653 20.9721 33.183 20.5353C33.4008 20.0985 33.5096 19.6616 33.5096 19.2248V8.19475C33.5096 7.86712 33.6185 7.53949 33.7273 7.32108C33.8362 7.10266 34.0539 6.77504 34.1628 6.66583C34.3805 6.44741 34.5982 6.3382 34.9248 6.22899C35.1425 6.01058 35.3602 5.90137 35.6868 5.90137Z" fill="white"/>
<path d="M48.0965 14.9657C48.6408 15.1841 49.1851 15.6209 49.6205 15.9486C50.0559 16.2762 50.4914 16.8222 50.8179 17.3683C51.1445 17.9143 51.3622 18.4603 51.5799 19.0064C51.7977 19.5524 51.7977 20.2077 51.7977 20.8629C51.7977 21.7366 51.5799 22.6103 51.2534 23.3747C50.9268 24.1392 50.4914 24.7944 49.8382 25.4497C49.2939 25.9957 48.5319 26.5418 47.7699 26.8694C47.0079 27.197 46.1371 27.4154 45.2662 27.4154C44.3953 27.4154 43.5245 27.3062 42.7625 26.9786C42.0005 26.651 41.3473 26.3234 40.803 25.8865C40.2587 25.4497 39.7145 25.0129 39.3879 24.4668C38.9524 23.9208 38.7347 23.4839 38.517 23.1563C38.1904 22.6103 38.0816 22.0642 38.2993 21.409C38.4082 20.8629 38.8436 20.3169 39.3879 19.9893C39.6056 19.8801 39.9322 19.7708 40.2587 19.6616C40.5853 19.6616 40.803 19.6616 41.1296 19.6616C41.4562 19.7708 41.6739 19.8801 41.8916 19.9893C42.1093 20.2077 42.327 20.4261 42.4359 20.6445V20.7537V20.8629V20.9721C42.4359 20.9721 42.5448 21.0814 42.6536 21.2998C42.7625 21.5182 42.9802 21.7366 43.1979 21.955C43.4156 22.1734 43.7422 22.3919 44.0688 22.6103C44.3953 22.8287 44.8308 22.9379 45.2662 22.9379C45.4839 22.9379 45.8105 22.9379 46.0282 22.8287C46.2459 22.7195 46.4636 22.6103 46.6813 22.3919C46.8991 22.1734 47.0079 21.955 47.1168 21.7366C47.2256 21.5182 47.2256 21.2998 47.2256 20.9721C47.2256 20.6445 47.1168 20.2077 46.8991 19.8801C46.6813 19.5524 46.4636 19.334 46.1371 19.1156L42.327 17.4775H42.2182C41.2385 16.9314 40.3676 16.167 39.8233 15.1841C39.279 14.2012 38.9524 13.1091 38.9524 12.017C38.9524 11.1434 39.0613 10.3789 39.3879 9.61446C39.7145 8.85 40.1499 8.19475 40.6942 7.6487C41.2385 7.10266 41.8916 6.66583 42.6536 6.3382C43.4156 6.01058 44.1776 5.90137 45.0485 5.90137C45.9193 5.90137 46.5725 6.01058 47.3345 6.3382C47.9876 6.66583 48.6408 6.99345 49.0762 7.32108C49.6205 7.6487 49.9471 8.08554 50.2736 8.41316C50.6002 8.74079 50.7091 8.95921 50.8179 9.06841C51.0357 9.28683 51.1445 9.61446 51.2534 9.83287C51.3622 10.1605 51.3622 10.3789 51.3622 10.7065C51.3622 11.0342 51.2534 11.2526 51.0357 11.5802C50.9268 11.7986 50.7091 12.017 50.4914 12.2355C50.2737 12.4539 49.9471 12.5631 49.7294 12.6723C49.1851 12.6723 48.9674 12.6723 48.6408 12.6723C48.3142 12.6723 48.0965 12.5631 47.8788 12.4539C47.6611 12.3447 47.4434 12.1263 47.2256 11.9078C47.1168 11.7986 47.0079 11.6894 46.8991 11.471C46.6813 11.2526 46.5725 11.1434 46.3548 11.0342C46.1371 10.925 45.9193 10.8158 45.7016 10.7065C45.3751 10.4881 45.1573 10.3789 44.9396 10.3789C44.5042 10.3789 44.1776 10.4881 43.851 10.8158C43.5245 11.1434 43.4156 11.471 43.4156 11.9078C43.4156 12.2355 43.5245 12.4539 43.6333 12.6723C43.7422 12.8907 43.9599 13.1091 44.1776 13.2183L48.0965 14.9657C47.9876 14.9657 47.9876 14.9657 48.0965 14.9657Z" fill="white"/>
</g>
<defs>
<clipPath id="clip0_23_1586">
<rect width="72.2815" height="31.8889" fill="white" transform="translate(0.743408 0.659302)"/>
</clipPath>
</defs>
</svg>
