<svg width="55" height="52" viewBox="0 0 55 52" fill="none" xmlns="http://www.w3.org/2000/svg">
<g clip-path="url(#clip0_23_1572)">
<path d="M27.5173 51.8769C42.5852 51.8769 54.8001 40.2722 54.8001 25.957C54.8001 11.6418 42.5852 0.0371094 27.5173 0.0371094C12.4495 0.0371094 0.234619 11.6418 0.234619 25.957C0.234619 40.2722 12.4495 51.8769 27.5173 51.8769Z" fill="black"/>
<path d="M17.3132 18.987C17.7428 19.0959 18.1725 19.3137 18.4947 19.6404C18.8169 19.9672 19.0318 20.4028 19.1392 20.8384C19.2466 21.274 19.354 21.7097 19.354 22.2542C19.354 22.7987 19.354 23.1255 19.2466 23.5611C19.1392 23.8878 18.9243 24.2145 18.6021 24.6502C18.2799 25.0858 17.8502 25.4125 17.3132 25.7392C16.8835 26.066 16.3464 26.5016 15.8094 26.8283C15.2723 27.155 14.9501 27.4818 14.6278 27.6996V27.8085L14.7353 27.9174C15.2723 28.353 15.702 28.7886 16.0242 29.3332C16.3464 29.8777 16.7761 30.3133 16.9909 30.749C17.2057 31.2935 17.4206 31.7291 17.4206 32.3826C17.528 32.9271 17.4206 33.5805 17.3132 34.234C17.3132 34.234 17.3132 34.3429 17.3132 34.4518V34.5607L17.0983 34.7785L16.239 34.5607C16.1316 34.5607 16.1316 34.6696 15.9168 34.5607C15.5946 34.4518 15.2723 34.3429 14.8427 34.1251C14.5204 33.9073 14.0908 33.6895 13.7685 33.3627C13.4463 33.036 13.0167 32.8182 12.6944 32.4915C12.3722 32.1648 12.05 31.9469 11.7277 31.7291C11.6203 31.6202 11.4055 31.5113 11.1907 31.2935C10.8684 31.0757 10.6536 30.8579 10.3314 30.5312C10.0091 30.3133 9.79429 30.0955 9.47206 29.7688C9.14982 29.551 9.04241 29.3332 8.93499 29.3332C8.82758 29.2243 8.82758 29.1154 8.72017 28.7886C8.61276 28.5708 8.50534 28.2441 8.50534 27.9174C8.39793 27.5907 8.39793 27.3728 8.29052 27.0461C8.18311 26.7194 8.18311 26.6105 8.29052 26.5016C8.29052 26.2838 8.39793 26.066 8.50534 25.8481C8.61276 25.6303 8.61276 25.4125 8.72017 25.0858C8.82758 24.7591 8.93499 24.6502 9.04241 24.4324C9.14982 24.2145 9.25723 23.9967 9.47206 23.8878C9.90171 23.4522 10.4388 23.1255 11.0832 22.7987C11.7277 22.472 12.2648 22.1453 12.6944 21.7097C13.1241 21.4919 13.4463 21.1651 13.7685 20.8384C14.0908 20.5117 14.413 20.2939 14.7353 19.9672C14.9501 19.7493 15.1649 19.5315 15.3797 19.3137C15.5946 19.0959 15.8094 18.987 16.0242 18.8781C16.239 18.7692 16.4539 18.6603 16.6687 18.6603C16.6687 18.8781 16.9909 18.8781 17.3132 18.987Z" fill="white"/>
<path d="M25.2616 40.1149C25.1542 40.1149 25.1542 40.1149 25.1542 40.1149C25.1542 40.1149 25.0467 40.1149 25.0467 40.006L24.9393 39.8971C24.7245 40.1149 24.6171 40.2238 24.4023 40.2238C24.2949 40.2238 24.08 40.2238 23.8652 40.2238C23.543 40.2238 23.3281 40.2238 23.1133 40.1149C22.8985 40.006 22.6837 40.006 22.5763 39.8971C22.4688 39.7882 22.254 39.6793 22.0392 39.4615C21.8244 39.3526 21.717 39.1347 21.5021 39.0258C21.1799 38.808 21.0725 38.6991 20.9651 38.5902C20.8577 38.4813 20.8577 38.2635 20.8577 37.8279C20.8577 37.1744 20.9651 36.6299 21.1799 35.9764C21.3947 35.4319 21.6096 34.8874 21.8244 34.2339C21.8244 34.125 21.9318 33.9072 22.0392 33.5805C22.1466 33.2538 22.254 32.927 22.3614 32.4914C22.4689 32.0558 22.5763 31.7291 22.6837 31.4023C22.7911 31.0756 22.8985 30.8578 22.8985 30.7489C22.8985 30.64 22.8985 30.4222 22.8985 30.2044C22.8985 29.9866 23.0059 29.7687 23.1133 29.5509C23.2207 29.3331 23.2207 29.1153 23.3281 28.8975C23.4356 28.6797 23.4356 28.5708 23.543 28.3529L26.1209 18.0068V17.8979C26.1209 17.8979 26.2283 17.789 26.2283 17.6801C26.2283 17.5711 26.3357 17.4622 26.3357 17.4622V17.3533C26.3357 17.1355 26.4431 16.9177 26.5505 16.4821C26.6579 16.0464 26.7653 15.7197 26.8728 15.2841C26.9802 14.8485 27.0876 14.4128 27.195 14.0861C27.3024 13.6505 27.4098 13.4327 27.4098 13.3238C27.4098 13.3238 27.4098 13.2149 27.4098 12.9971C27.4098 12.8881 27.4098 12.7792 27.4098 12.6703C27.4098 12.2347 27.6246 11.7991 27.9469 11.5813C28.2691 11.3634 28.6988 11.1456 29.2358 11.1456C29.2358 11.2545 29.2358 11.3634 29.1284 11.3634H29.2358C29.3432 11.3634 29.3432 11.3634 29.4507 11.2545C29.4507 11.2545 29.5581 11.1456 29.6655 11.1456H29.7729C29.8803 11.1456 29.9877 11.1456 30.3099 11.1456C30.5248 11.1456 30.7396 11.1456 30.847 11.1456C30.9544 11.3634 30.9544 11.3634 31.0618 11.3634C31.1692 11.3634 31.1692 11.3634 31.1692 11.3634C31.1692 11.3634 31.2767 11.3634 31.2767 11.4724C31.2767 11.5813 31.3841 11.6902 31.3841 12.0169V12.1258H31.4915V12.0169V11.908C31.7063 12.1258 32.0285 12.2347 32.2434 12.4525C32.4582 12.6703 32.5656 12.8881 32.5656 13.2149V13.5416C32.3508 14.195 32.2434 14.8485 32.0285 15.393C31.9211 15.9375 31.8137 16.591 31.7063 17.2444C31.7063 17.3533 31.5989 17.5711 31.4915 17.6801C31.3841 17.8979 31.3841 18.0068 31.2767 18.2246C30.9544 19.2048 30.7396 20.2938 30.4174 21.274C30.0951 22.2542 29.8803 23.3432 29.6655 24.3234V24.4323C29.6655 24.6501 29.6655 24.759 29.7729 24.8679C29.8803 24.9768 29.8803 25.1946 29.8803 25.3036H30.3099C30.3099 25.4125 30.3099 25.5214 30.2025 25.5214C30.0951 25.5214 30.0951 26.1748 30.0951 26.1748L29.9877 26.2837L29.8803 26.3926C29.8803 26.3926 29.8803 26.5015 29.9877 26.5015C29.9877 26.5015 29.9877 26.5015 30.0951 26.5015V26.6104C30.0951 26.7193 30.0951 26.7193 30.0951 26.8282C30.0951 26.9372 29.9877 26.9372 29.9877 26.9372L29.7729 26.8282C29.5581 26.9372 29.4507 27.0461 29.3432 27.2639C29.2358 27.4817 29.2358 27.6995 29.1284 27.9173C29.1284 28.0262 29.021 28.244 28.9136 28.5708C28.8062 28.8975 28.6988 29.3331 28.5914 29.7687C28.4839 30.2044 28.3765 30.64 28.2691 30.9667C28.1617 31.2934 28.1617 31.6202 28.0543 31.7291V31.838V31.9469C28.0543 31.9469 28.0543 32.1647 27.9469 32.2736C27.9469 32.4914 27.8395 32.7092 27.8395 32.927C27.7321 33.1449 27.7321 33.3627 27.6246 33.5805C27.6246 33.7983 27.5172 33.9072 27.5172 33.9072C27.5172 33.9072 27.5172 34.0161 27.5172 34.125C27.5172 34.2339 27.4098 34.3428 27.4098 34.4517C27.4098 34.5607 27.3024 34.6696 27.3024 34.7785C27.3024 34.8874 27.195 34.9963 27.195 34.9963C27.195 35.1052 27.0876 35.323 27.0876 35.5408C27.0876 35.7586 26.9802 36.0854 26.8728 36.4121C26.7653 36.7388 26.7653 36.9566 26.6579 37.1744C26.5505 37.3922 26.5505 37.61 26.5505 37.719C26.5505 37.8279 26.4431 37.9368 26.4431 38.2635C26.3357 38.4813 26.3357 38.808 26.2283 39.1348C26.1209 39.4615 26.0135 39.6793 25.906 39.8971C25.7986 40.1149 25.6912 40.2238 25.4764 40.2238V40.1149H25.2616ZM25.2616 39.7882C25.1542 39.7882 25.1542 39.7882 25.1542 39.8971C25.1542 40.006 25.1542 40.006 25.2616 40.006C25.2616 40.006 25.369 40.006 25.369 39.8971C25.369 39.7882 25.369 39.7882 25.2616 39.7882Z" fill="white"/>
<path d="M37.7215 35.2141C37.2919 35.1052 36.8622 34.8874 36.54 34.5607C36.2177 34.234 36.0029 33.7983 35.8955 33.3627C35.7881 32.9271 35.6807 32.4915 35.6807 31.9469C35.6807 31.5113 35.6807 30.9668 35.7881 30.64C35.8955 30.3133 36.1103 29.9866 36.4326 29.551C36.7548 29.1153 37.1844 28.7886 37.7215 28.4619C38.1511 28.1352 38.6882 27.6995 39.2253 27.3728C39.7623 27.0461 40.0846 26.7194 40.4068 26.5016V26.3927L40.2994 26.2838C39.7623 25.8481 39.3327 25.4125 39.0104 24.9769C38.6882 24.5412 38.2586 24.1056 38.0437 23.5611C37.8289 23.0165 37.6141 22.5809 37.6141 21.9275C37.5067 21.3829 37.6141 20.7295 37.7215 19.9671C37.7215 19.9671 37.7215 19.9671 37.7215 19.8582C37.7215 19.7493 37.7215 19.7493 37.7215 19.7493V19.6404L37.9363 19.4226L38.903 19.6404C39.0104 19.6404 39.0104 19.5315 39.2253 19.6404C39.5475 19.7493 39.8697 19.8582 40.2994 20.0761C40.6216 20.2939 41.0513 20.5117 41.3735 20.8384C41.6958 21.1651 42.1254 21.3829 42.4476 21.7097C42.7699 22.0364 43.0921 22.2542 43.4144 22.472C43.5218 22.5809 43.7366 22.6898 43.9514 22.9076C44.2737 23.1254 44.4885 23.3433 44.8107 23.67C45.1329 23.9967 45.3478 24.1056 45.67 24.4323C45.8848 24.6501 46.0997 24.868 46.2071 24.868C46.3145 24.9769 46.3145 25.0858 46.4219 25.4125C46.5293 25.7392 46.6367 25.957 46.6367 26.2838C46.7441 26.6105 46.7441 26.8283 46.8515 27.155C46.959 27.4817 46.8515 27.5906 46.8515 27.6995C46.7441 28.1352 46.6367 28.5708 46.4219 29.1153C46.3145 29.6599 45.9922 29.9866 45.7774 30.3133C45.3478 30.7489 44.8107 31.0757 44.1662 31.4024C43.5218 31.7291 42.9847 32.0558 42.5551 32.4915C42.2328 32.8182 41.8032 33.036 41.4809 33.3627C41.1587 33.6894 40.8365 33.9073 40.4068 34.234C40.192 34.4518 39.9772 34.6696 39.7623 34.8874C39.5475 35.1052 39.3327 35.2141 39.1179 35.323C38.903 35.432 38.6882 35.5409 38.4734 35.5409C38.366 35.323 38.0437 35.323 37.7215 35.2141Z" fill="white"/>
</g>
<defs>
<clipPath id="clip0_23_1572">
<rect width="54.5655" height="51.7309" fill="white" transform="translate(0.234619 0.0371094)"/>
</clipPath>
</defs>
</svg>
