<svg width="75" height="38" viewBox="0 0 75 38" fill="none" xmlns="http://www.w3.org/2000/svg">
<g clip-path="url(#clip0_23_1579)">
<path d="M64.358 37.9902H10.7457C5.00538 37.9902 0.348145 33.1862 0.348145 27.3997V10.9134C0.348145 5.12688 5.00538 0.432129 10.7457 0.432129H64.2497C69.99 0.432129 74.6473 5.12688 74.6473 10.9134V27.3997C74.7556 33.1862 70.0983 37.9902 64.358 37.9902Z" fill="black"/>
<path d="M30.6743 28.6007C29.4829 29.2558 27.6417 29.5833 25.3672 29.5833C22.4429 29.5833 20.0602 28.7099 18.2189 26.8538C16.3777 25.1069 15.5112 22.5958 15.5112 19.3203C15.5112 16.1541 16.486 13.643 18.4355 11.6777C20.3851 9.71248 22.8762 8.72986 26.0171 8.72986C27.9666 8.72986 29.5912 9.0574 30.7826 9.6033L30.1328 11.7869C29.0497 11.241 27.6417 10.9135 26.1254 10.9135C23.7426 10.9135 21.9014 11.6777 20.3851 13.0971C18.9771 14.5164 18.2189 16.5908 18.2189 19.2112C18.2189 21.7223 18.8688 23.6876 20.2768 25.1069C21.6848 26.5262 23.526 27.2905 25.9088 27.2905C27.6417 27.2905 29.0497 26.963 30.1328 26.4171L30.6743 28.6007Z" fill="white"/>
<path d="M33.5986 26.0895C35.0066 26.963 36.5229 27.3997 38.1475 27.3997C39.4472 27.3997 40.5302 27.0722 41.1801 26.5263C41.9382 25.8712 42.2632 25.1069 42.2632 24.0151C42.2632 23.0325 41.9382 22.2682 41.3967 21.7223C40.8552 21.1764 39.8804 20.5214 38.4724 20.0846C34.8982 18.8836 33.1653 16.9184 33.1653 14.4073C33.1653 12.7696 33.8152 11.4594 35.0066 10.4768C36.1979 9.49414 37.7142 8.94824 39.6638 8.94824C41.3967 8.94824 42.913 9.27578 44.1044 9.93086L43.3462 12.1145C42.2632 11.4594 41.0718 11.1318 39.5555 11.1318C38.2558 11.1318 37.3893 11.4594 36.7395 12.0053C36.0896 12.6604 35.7647 13.3155 35.7647 14.0797C35.7647 14.9532 36.0896 15.7174 36.6312 16.2633C37.1727 16.8092 38.2558 17.3551 39.6638 17.901C41.3967 18.5561 42.6964 19.4296 43.5629 20.303C44.321 21.1764 44.7543 22.3774 44.7543 23.7968C44.7543 25.4345 44.1044 26.8538 42.913 27.9456C41.7216 29.0374 39.9887 29.5833 37.7142 29.5833C36.7395 29.5833 35.7647 29.4741 34.8982 29.2558C33.9235 29.0374 33.1653 28.7099 32.6238 28.2732L33.5986 26.0895Z" fill="white"/>
<path d="M48.2201 26.0895C49.6281 26.9629 51.1444 27.3996 52.769 27.3996C54.0687 27.3996 55.1518 27.0721 55.8016 26.5262C56.5598 25.8711 56.8847 25.1069 56.8847 24.0151C56.8847 23.0324 56.5598 22.2682 56.0182 21.7223C55.4767 21.1764 54.5019 20.5213 53.0939 20.0846C49.7364 18.7744 48.0035 16.8092 48.0035 14.298C48.0035 12.6603 48.6533 11.3501 49.8447 10.3675C51.0361 9.38489 52.5524 8.83899 54.5019 8.83899C56.2348 8.83899 57.7512 9.16653 58.9425 9.82161L58.1844 12.0052C57.1013 11.3501 55.9099 11.0226 54.3936 11.0226C53.0939 11.0226 52.2275 11.3501 51.5776 11.896C50.9278 12.5511 50.6028 13.2062 50.6028 13.9705C50.6028 14.8439 50.9278 15.6082 51.4693 16.1541C52.0108 16.7 53.0939 17.2459 54.5019 17.7918C56.2348 18.4469 57.5345 19.3203 58.401 20.1937C59.1592 21.0672 59.5924 22.2682 59.5924 23.6875C59.5924 25.3252 58.9425 26.7446 57.7512 27.8364C56.5598 28.9282 54.8268 29.4741 52.5524 29.4741C51.5776 29.4741 50.6028 29.3649 49.7364 29.1465C48.7616 28.9282 48.0035 28.6006 47.4619 28.1639L48.2201 26.0895Z" fill="white"/>
</g>
<defs>
<clipPath id="clip0_23_1579">
<rect width="74.4074" height="37.558" fill="white" transform="translate(0.348145 0.432129)"/>
</clipPath>
</defs>
</svg>
