<svg width="67" height="36" viewBox="0 0 67 36" fill="none" xmlns="http://www.w3.org/2000/svg">
<g clip-path="url(#clip0_23_1592)">
<path d="M54.6667 35.2025H11.7805C5.37465 35.2025 0.271729 30.1025 0.271729 23.7003V11.9811C0.271729 5.57901 5.37465 0.479004 11.7805 0.479004H54.6667C61.0725 0.479004 66.1755 5.57901 66.1755 11.9811V23.7003C66.1755 30.1025 61.0725 35.2025 54.6667 35.2025Z" fill="black"/>
<path d="M9.17477 27.0641L7.98047 24.7854L16.1234 8.61731H27.0893L28.2836 10.896L23.615 20.1195H14.9291L11.4548 27.0641H9.17477ZM10.6948 26.5216L9.82621 24.7854H8.63191L9.50049 26.5216H10.6948ZM14.712 19.5769L13.8434 17.8407L10.3691 24.7854L11.2377 26.5216L14.712 19.5769ZM22.8549 19.5769L21.9864 17.8407H14.3863L15.2549 19.5769H22.8549ZM16.7749 15.562L18.1863 12.6322L17.3177 10.896L15.0377 15.562H16.7749ZM21.3349 15.562L22.5292 13.2833H18.512L17.3177 15.562H21.3349ZM22.8549 12.6322L23.7235 10.896H17.9692L18.8378 12.6322H22.8549ZM27.7407 10.896L26.8721 9.15986L22.5292 17.8407L23.3978 19.5769L27.7407 10.896Z" fill="white"/>
<path d="M24.2663 27.0641L23.072 24.7854L31.215 8.61731H33.495L34.6893 10.896L32.4093 15.562H36.4265L39.9008 8.61731H42.1808L43.3751 10.896L35.2322 27.0641H32.9522L31.7579 24.7854L34.0379 20.1195H30.0207L26.5464 27.0641H24.2663ZM25.6778 26.5216L24.8092 24.7854H23.6149L24.4835 26.5216H25.6778ZM29.8035 19.5769L28.935 17.8407L25.4606 24.7854L26.3292 26.5216L29.8035 19.5769ZM34.3636 19.5769L35.2322 17.8407H29.4778L30.3464 19.5769H34.3636ZM31.7579 15.562L34.0379 10.896L33.2779 9.15986L30.1293 15.562H31.7579ZM34.3636 26.5216L33.495 24.7854H32.3007L33.1693 26.5216H34.3636ZM42.7237 10.896L41.8551 9.15986L34.0379 24.7854L35.015 26.5216L42.7237 10.896Z" fill="white"/>
<path d="M39.3581 27.0641L38.1638 24.7854L46.3068 8.61731H57.2726L58.4669 10.896L53.7983 20.1195H45.1125L41.6381 27.0641H39.3581ZM40.7696 26.5216L39.901 24.7854H38.7067L39.5753 26.5216H40.7696ZM44.7868 19.5769L43.9182 17.8407L40.4438 24.7854L41.3124 26.5216L44.7868 19.5769ZM52.9297 19.5769L52.0611 17.8407H44.5696L45.4382 19.5769H52.9297ZM46.8496 15.562L48.2611 12.6322L47.3925 10.896L45.1125 15.562H46.8496ZM51.4097 15.562L52.604 13.2833H48.5868L47.3925 15.562H51.4097ZM52.9297 12.6322L53.7983 10.896H48.0439L48.9125 12.6322H52.9297ZM57.8155 10.896L56.9469 9.15986L52.604 17.8407L53.4726 19.5769L57.8155 10.896Z" fill="white"/>
</g>
<defs>
<clipPath id="clip0_23_1592">
<rect width="65.9037" height="34.7235" fill="white" transform="translate(0.271729 0.479004)"/>
</clipPath>
</defs>
</svg>
