<svg width="77" height="77" viewBox="0 0 77 77" fill="none" xmlns="http://www.w3.org/2000/svg">
<path d="M67.375 52.9375C67.375 54.1567 66.7013 55.2154 65.6746 55.7608L40.3288 70.0059C39.8154 70.3909 39.1738 70.5834 38.5 70.5834C37.8263 70.5834 37.1846 70.3909 36.6713 70.0059L11.3254 55.7608C10.8108 55.4908 10.3802 55.0848 10.0804 54.587C9.78055 54.0892 9.62305 53.5186 9.62502 52.9375V24.0625C9.62502 22.8434 10.2988 21.7846 11.3254 21.2392L36.6713 6.99419C37.1846 6.60919 37.8263 6.41669 38.5 6.41669C39.1738 6.41669 39.8154 6.60919 40.3288 6.99419L65.6746 21.2392C66.7013 21.7846 67.375 22.8434 67.375 24.0625V52.9375ZM38.5 13.3146L19.3784 24.0625L38.5 34.8104L57.6217 24.0625L38.5 13.3146ZM16.0417 51.0446L35.2917 61.8888V40.3609L16.0417 29.5488V51.0446ZM60.9584 51.0446V29.5488L41.7084 40.3609V61.8888L60.9584 51.0446Z" fill="#EE6946"/>
</svg>
