<svg width="429" height="378" viewBox="0 0 429 378" fill="none" xmlns="http://www.w3.org/2000/svg">
<path d="M428.133 315.668C428.133 315.549 428.133 315.549 428.133 315.43C428.133 315.43 428.133 315.311 428.133 315.193C428.014 314.955 428.014 314.598 427.895 314.361C427.657 313.648 427.42 312.935 427.182 312.222C426.707 311.033 425.993 309.963 425.161 309.369C424.923 309.25 424.805 309.132 424.686 309.013C423.378 308.418 422.071 307.943 420.763 307.349C420.169 307.111 416.959 305.804 415.652 305.21C410.778 303.308 405.904 302.12 400.912 300.575C398.059 299.624 395.444 298.554 392.829 297.247C388.074 296.653 383.319 296.415 378.564 296.296C377.494 296.891 376.424 297.366 375.236 297.722C372.739 298.554 370.6 299.624 367.985 300.694C362.279 302.952 356.217 304.259 350.748 307.111C349.441 307.824 348.133 307.468 347.301 306.636C346.113 306.279 345.28 305.21 345.28 303.784C345.28 300.575 347.064 298.079 348.133 295.227C349.322 292.256 350.392 289.522 352.056 286.789C353.364 284.531 353.601 282.273 353.126 279.658C352.65 277.162 350.748 275.974 348.965 274.31C343.022 273.716 336.96 273.121 329.59 272.408C333.988 269.913 337.078 268.13 340.169 266.466C344.448 264.208 347.777 261.356 345.043 256.127C342.309 251.135 338.148 251.848 333.869 254.225C333.156 254.582 332.442 254.938 331.492 255.414C326.974 250.184 322.22 250.303 317.227 254.938C316.395 255.651 314.493 256.245 313.661 255.77C309.144 253.155 305.816 255.295 302.368 258.028C296.187 263.02 289.768 267.655 283.587 272.646C279.189 276.211 274.434 276.806 268.966 275.736C269.322 273.359 269.56 271.22 269.917 268.368H182.309C184.925 260.049 187.183 252.799 189.442 245.431C192.532 234.972 195.504 224.514 198.714 214.174C199.07 212.867 200.021 211.322 201.091 210.49C206.916 206.093 207.272 204.429 202.993 198.487C201.923 197.061 201.091 195.634 200.14 194.208C209.412 183.156 209.412 183.156 195.623 176.976C196.812 173.173 198.119 169.251 199.546 164.616C201.448 166.042 202.993 167.23 204.419 168.3C215.95 177.213 228.907 176.857 238.297 165.804C243.884 159.149 247.45 150.711 251.611 142.986C252.918 140.609 253.394 137.757 254.107 135.38C258.149 134.667 262.071 134.31 265.637 133.003C267.064 132.409 268.847 128.962 268.253 127.774C264.449 119.811 265.519 112.205 268.253 104.361C270.036 99.3698 268.966 95.9233 262.666 95.8045C259.1 95.8045 257.673 94.0218 257.435 90.2188C257.079 84.5142 255.771 78.9285 254.82 72.6297C257.792 71.3224 261.239 70.3716 264.092 68.4701C271.819 63.1221 279.664 57.8929 286.677 51.5941C288.936 49.5737 288.698 44.7011 289.649 41.0169C285.964 40.7792 282.279 40.4226 278.475 40.1849C277.406 40.1849 276.336 40.7792 274.434 41.3734C274.909 39.8284 275.147 38.9965 275.385 38.1646C277.881 29.1323 275.741 26.2801 266.47 27.112C260.288 27.7062 255.533 25.9235 250.065 22.5959C223.676 7.02714 195.861 -4.26315 164.36 1.56026C138.209 6.43292 123.944 24.1408 120.854 53.1391C117.406 85.7026 122.874 117.434 129.888 149.047C132.146 159.268 134.88 169.37 137.495 179.471C98.0305 205.142 72.7112 242.935 46.7975 281.797C44.0635 287.383 40.4974 292.493 36.9313 297.604C31.1066 305.804 26.5896 314.242 21.8348 323.155C16.4856 333.138 11.0176 343.002 5.78731 353.104C4.59861 355.481 1.62685 359.997 0.081543 364.276C0.081543 364.513 0.081543 364.751 0.081543 364.989C0.081543 366.89 0.319284 368.673 0.794764 370.456C1.27024 370.456 1.74572 370.574 2.2212 370.693C8.04584 370.337 13.8705 370.337 19.6951 370.693C20.5272 370.218 21.4782 369.861 22.7857 369.861C41.6861 369.386 60.8242 370.812 79.7245 371.882C80.5566 371.406 81.5076 371.169 82.5774 371.169C86.2624 371.169 89.5908 369.861 93.2757 370.812C96.723 371.763 99.6947 373.902 103.261 374.734C111.106 376.517 119.427 376.517 127.51 376.517C144.152 376.398 160.913 373.189 177.436 374.972C194.672 376.873 211.433 377.943 228.907 377.23C245.073 376.636 261.12 375.804 277.287 376.279C281.447 375.804 285.489 375.447 289.649 375.685C290.6 375.566 291.551 375.328 292.502 375.209C292.978 375.091 293.453 374.972 293.929 374.972C296.663 373.546 299.278 371.763 302.249 370.337C307.242 367.96 312.71 367.247 318.178 366.534C325.667 365.583 333.393 364.513 341.001 362.612C343.26 361.661 345.637 360.829 347.777 359.641C351.343 357.858 354.909 355.838 358.832 354.887C359.188 354.768 359.545 354.649 360.02 354.649C360.852 354.53 361.566 354.412 362.398 354.293C365.132 353.58 367.866 353.223 370.6 352.391C373.572 351.559 376.306 350.608 379.396 350.727C382.606 350.727 385.34 352.51 388.43 352.629C389.262 352.629 389.857 352.867 390.57 353.104C390.927 353.104 391.402 353.223 391.759 353.342C391.996 353.461 392.234 353.461 392.472 353.58C393.542 353.342 394.493 352.985 395.444 352.51C395.444 352.51 395.562 352.51 395.562 352.391C396.395 352.035 397.108 351.559 397.94 351.084C397.94 350.727 398.059 350.49 398.178 350.133C397.346 348.588 398.178 346.092 399.961 345.855C401.387 345.617 402.932 345.498 404.359 345.379C405.31 345.26 406.38 345.023 406.855 344.785C406.855 344.785 406.855 344.785 406.974 344.785C407.093 344.547 407.212 344.31 407.45 344.072C407.568 343.953 407.806 343.834 407.925 343.715C407.925 343.597 408.044 343.478 408.044 343.359C408.044 343.24 408.163 343.24 408.163 343.121C408.4 341.576 410.065 340.15 411.848 340.507C413.512 340.863 415.414 341.576 417.197 340.982C418.504 339.794 419.574 338.249 420.406 336.466C420.406 336.228 420.525 335.872 420.525 335.634C420.644 333.732 420.406 332.069 418.742 330.761C417.672 329.929 416.603 329.216 415.533 328.384C415.414 328.266 415.176 328.028 415.057 327.909C414.344 327.434 413.512 327.077 412.799 326.602C412.68 326.602 412.442 326.602 412.323 326.602C412.323 326.483 412.323 326.364 412.323 326.364C411.491 325.77 410.659 325.294 409.827 324.819C407.687 323.631 407.925 319.709 410.54 319.352C412.68 318.996 414.582 319.352 416.603 320.065C418.148 320.541 419.693 321.016 421.357 321.016C422.189 321.016 423.14 321.016 423.973 320.897C424.448 320.778 424.805 320.778 425.28 320.66C425.518 320.541 425.756 320.541 425.993 320.422C426.35 320.303 426.35 320.303 426.231 320.303C426.469 320.184 426.706 320.065 427.063 319.828C427.182 319.828 427.182 319.709 427.182 319.709C427.182 319.709 427.182 319.59 427.301 319.59C427.42 319.471 427.895 318.877 427.776 318.996C427.895 318.877 428.014 318.639 428.133 318.52C428.133 318.401 428.252 318.283 428.252 318.164C428.252 317.926 428.371 317.688 428.371 317.451C428.371 317.332 428.371 316.975 428.371 316.975C428.133 316.262 428.133 316.025 428.133 315.668ZM341.239 306.873C340.645 308.3 338.743 309.845 337.078 310.32C332.561 311.627 327.807 312.578 323.171 313.41C317.465 314.48 311.64 316.975 306.529 311.152C311.997 307.943 317.821 304.734 323.527 301.288C328.639 298.317 330.303 294.395 327.807 290.711C324.597 286.076 320.674 286.789 316.395 289.403C313.067 291.542 309.619 293.325 306.172 295.346C304.508 287.145 306.885 284.174 314.493 284.768C325.073 285.719 335.652 286.789 347.301 287.977C345.162 294.87 343.497 300.931 341.239 306.873ZM336.603 255.889C338.029 255.176 340.526 256.84 342.546 257.434C341.952 259.335 341.833 262.069 340.526 262.782C331.492 267.773 323.171 275.38 310.808 269.675C319.604 264.921 327.925 260.167 336.603 255.889ZM322.22 254.819C323.408 253.987 326.142 255.176 328.044 255.414C328.044 256.127 328.044 256.959 327.925 257.672C319.604 262.188 311.284 266.704 302.844 271.339L302.012 270.031C308.668 264.802 315.206 259.573 322.22 254.819ZM311.284 257.672C304.389 264.446 298.446 272.646 287.628 273.359C295.236 267.655 301.655 260.048 311.284 257.672ZM299.753 274.31C312.472 273.716 325.31 275.261 338.148 275.974C341.358 276.093 344.567 276.093 347.539 277.043C349.322 277.638 350.511 280.014 351.937 281.559C350.154 282.748 348.371 285.006 346.707 284.887C336.246 284.293 325.786 283.104 315.444 282.035C307.123 281.203 304.033 283.699 302.844 292.137C302.368 295.108 301.298 297.96 300.229 302.12C305.697 298.911 310.57 296.059 315.325 293.325C316.989 292.374 318.654 290.829 320.555 290.592C322.22 290.354 325.191 290.948 325.429 291.899C326.023 293.444 325.548 296.772 324.478 297.366C311.997 304.021 301.298 314.836 285.132 312.578C277.168 311.508 269.085 312.34 260.526 312.34C263.022 300.812 265.4 289.997 267.658 279.777C278.475 277.875 289.055 274.904 299.753 274.31ZM189.085 270.388C214.642 270.863 240.199 270.507 266.826 270.507C263.736 284.768 260.883 298.317 257.792 312.103H167.926C171.611 300.456 175.534 289.403 178.506 277.994C180.17 272.052 182.904 270.269 189.085 270.388ZM203.825 184.701C202.161 186.84 200.497 189.098 198.357 191.831C195.98 187.078 194.196 183.631 192.532 180.185L193.127 178.996C196.693 180.898 200.259 182.799 203.825 184.701ZM266.351 99.4887C265.4 103.411 264.686 106.738 263.498 111.611C261.715 106.263 260.526 102.579 259.1 98.0625C261.834 98.6568 263.736 99.0133 266.351 99.4887ZM260.526 111.373C262.309 115.295 261.477 118.86 258.149 120.643C255.296 122.188 251.254 123.139 248.401 122.307C241.626 120.168 239.486 113.869 237.941 107.57C236.99 103.529 236.514 99.251 235.92 95.0914C235.326 95.2103 234.731 95.2103 234.256 95.3291C234.137 104.005 235.326 112.562 240.912 119.692C246.856 127.536 254.701 127.655 263.26 119.811C264.449 123.139 265.4 126.11 266.945 130.626C261.834 131.22 257.435 131.696 252.443 132.29C251.73 134.786 250.898 137.757 249.828 140.728C248.758 143.699 247.569 146.551 245.667 151.424C240.675 145.719 236.633 140.966 232.473 136.331C233.543 143.699 238.178 148.572 244.954 152.375C240.08 161.407 234.612 169.488 223.795 171.39C212.621 173.292 205.37 166.28 198.595 158.674C196.574 165.091 194.791 170.796 192.889 176.976C191.106 176.263 189.679 175.787 188.015 175.193C199.427 147.859 210.719 120.881 222.25 94.0218C222.725 92.8334 225.34 91.526 226.648 91.7637C235.444 93.1899 244.241 94.8537 252.918 96.8741C254.583 97.2306 256.366 99.3698 257.079 101.034C258.386 104.124 258.981 107.927 260.526 111.373ZM252.324 73.2239C253.394 80.1169 254.464 86.7722 255.652 94.3783C244.716 92.2391 234.731 90.3376 224.627 88.4361C225.459 82.9692 227.48 79.6415 233.305 78.6908C239.486 77.6212 245.43 75.3631 252.324 73.2239ZM132.622 148.096C126.797 123.02 122.637 97.5872 122.637 71.7978C122.637 64.0728 123.469 56.3479 124.539 48.7418C129.056 14.1579 153.662 2.27333 180.051 2.62987C204.657 2.9864 226.648 12.0186 248.401 24.022C227.48 73.937 206.678 123.614 185.638 173.886C169.709 167.587 155.326 171.509 140.229 178.283C137.614 167.943 134.88 158.079 132.622 148.096ZM294.285 370.931C290.719 373.783 283.349 372.119 277.643 372.119C223.795 372.119 169.828 372.238 115.98 372.119C96.1286 372.119 82.3397 355.243 86.9756 337.06C88.0455 333.019 89.5908 329.216 90.8983 325.176C101.716 292.969 112.533 260.643 123.35 228.436C124.063 226.415 124.42 224.395 125.014 222.493C124.539 222.256 123.944 222.137 123.469 221.899C122.756 223.563 121.923 225.108 121.329 226.891C109.442 262.307 97.5551 297.722 85.6681 333.257C81.6265 345.26 83.6473 354.293 93.3946 366.771H3.64765C3.76652 366.058 3.76652 365.226 4.12313 364.632C28.6104 315.311 55.8316 267.773 91.0172 225.346C103.142 210.609 116.337 196.942 132.384 186.365C138.209 182.443 144.628 179.471 150.69 176.025C150.928 176.5 151.284 176.857 151.522 177.332C149.501 179.115 147.599 181.016 145.579 182.799C145.816 183.156 146.054 183.512 146.292 183.869C147.362 183.393 148.432 182.918 149.501 182.324C150.215 181.967 150.69 181.373 151.403 180.898C161.151 174.005 171.611 169.964 183.023 176.025C194.672 182.205 197.287 193.614 196.455 205.617C195.98 213.223 194.196 220.948 191.938 228.198C180.883 263.733 169.472 299.149 158.179 334.564C157.584 336.347 157.228 338.249 156.752 340.15C157.347 340.388 158.06 340.626 158.654 340.863C160.913 334.089 163.29 327.315 165.192 320.422C166.262 316.738 167.688 315.074 172.087 315.074C215.474 315.311 258.862 315.193 302.249 315.193C303.795 315.193 305.34 315.43 307.48 315.549C304.627 328.979 301.893 342.17 298.921 355.243C297.732 360.473 297.851 368.079 294.285 370.931ZM424.686 314.48C423.616 318.877 420.169 317.926 416.959 316.975C404.478 313.291 391.996 309.726 379.515 306.042C379.158 306.398 378.921 306.755 378.564 307.23C380.228 308.418 381.774 309.726 383.438 310.795C393.423 316.975 403.289 323.036 413.274 329.098C415.889 330.761 419.455 332.425 416.959 336.347C414.463 340.269 411.491 337.773 408.757 336.109C399.01 330.167 389.381 324.225 379.634 318.283C379.277 318.639 378.921 319.115 378.564 319.471C379.872 320.541 380.942 321.967 382.368 322.799C389.381 327.196 396.632 331.356 403.527 335.991C405.191 337.179 405.548 340.15 406.617 342.408C404.24 342.527 401.268 343.715 399.485 342.765C392.71 339.199 386.291 334.921 378.802 331.95C379.634 332.901 380.466 333.97 381.417 334.683C385.696 337.536 390.213 340.031 394.255 343.24C395.563 344.31 395.444 347.162 396.038 349.182C393.898 349.42 390.808 350.727 389.976 349.895C382.011 341.814 374.404 344.785 365.726 348.945C346.35 358.215 325.429 362.968 304.151 365.464C302.844 365.583 301.417 365.583 299.515 365.702C299.753 363.919 299.872 362.374 300.11 360.948C302.725 348.588 305.459 336.228 307.955 323.868C308.668 320.184 309.976 318.283 314.136 317.688C335.89 314.836 356.573 308.418 376.424 299.267C378.326 298.317 381.06 298.198 383.2 298.792C395.206 302.001 407.212 305.566 419.099 309.013C422.189 309.726 425.637 310.439 424.686 314.48Z" fill="black"/>
<path d="M158.654 340.625C160.913 333.851 163.29 327.077 165.192 320.184C166.262 316.5 167.689 314.836 172.087 314.836C215.474 315.074 258.862 314.955 302.25 314.955C303.795 314.955 305.34 315.193 307.48 315.311C304.627 328.741 301.893 341.933 298.921 355.006C297.732 360.591 297.851 368.079 294.285 371.05C290.719 373.902 283.349 372.238 277.643 372.238C223.795 372.238 169.828 372.357 115.98 372.238C96.1287 372.238 82.3397 355.362 86.9757 337.179C88.0455 333.138 89.5908 329.335 90.8984 325.294C101.716 293.087 112.533 260.762 123.35 228.554C124.063 226.534 124.42 224.514 125.014 222.612C124.539 222.375 123.944 222.256 123.469 222.018C122.756 223.682 121.924 225.227 121.329 227.01C109.442 262.425 97.5551 297.841 85.6681 333.376C81.6265 345.379 83.6473 354.412 93.3947 366.89C63.3205 366.89 33.603 366.89 3.64771 366.89C3.76658 366.177 3.76657 365.345 4.12319 364.751C28.6104 315.311 55.8317 267.773 91.0173 225.346C103.142 210.609 116.337 196.942 132.384 186.364C138.209 182.443 144.628 179.471 150.69 176.025C150.928 176.5 151.284 176.857 151.522 177.332C149.501 179.115 147.599 181.016 145.579 182.799C145.816 183.156 146.054 183.512 146.292 183.869C147.362 183.393 148.432 182.918 149.501 182.324C150.215 181.967 150.69 181.373 151.403 180.898C161.151 174.005 171.611 169.964 183.023 176.025C194.672 182.205 197.287 193.614 196.455 205.617C195.98 213.223 194.197 220.948 191.938 228.198C180.883 263.733 169.472 299.149 158.179 334.564C157.585 336.347 157.228 338.249 156.752 340.15C157.347 340.15 158.06 340.388 158.654 340.625Z" fill="white"/>
<path d="M185.638 173.886C169.709 167.587 155.326 171.509 140.23 178.283C137.614 167.825 134.88 157.961 132.622 148.096C126.797 123.02 122.637 97.5872 122.637 71.7978C122.637 64.0729 123.469 56.348 124.539 48.7419C129.056 14.1579 153.662 2.27341 180.051 2.62995C204.657 2.98648 226.648 12.0187 248.401 24.0221C227.48 73.937 206.678 123.733 185.638 173.886Z" fill="white"/>
<path d="M378.683 307.23C380.347 308.419 381.892 309.726 383.557 310.796C393.542 316.975 403.408 323.037 413.393 329.098C416.008 330.762 419.574 332.425 417.078 336.347C414.582 340.269 411.61 337.773 408.876 336.11C399.129 330.167 389.5 324.225 379.753 318.283C379.396 318.639 379.04 319.115 378.683 319.471C379.991 320.541 381.06 321.967 382.487 322.799C389.5 327.196 396.751 331.356 403.646 335.991C405.31 337.179 405.666 340.15 406.736 342.408C404.359 342.527 401.387 343.716 399.604 342.765C392.828 339.2 386.409 334.921 378.921 331.95C379.753 332.901 380.585 333.97 381.536 334.683C385.815 337.536 390.332 340.031 394.374 343.24C395.681 344.31 395.562 347.162 396.157 349.183C394.017 349.42 390.927 350.727 390.094 349.896C382.13 341.814 374.522 344.785 365.845 348.945C346.469 358.215 325.548 362.969 304.27 365.464C302.963 365.583 301.536 365.583 299.634 365.702C299.872 363.919 299.991 362.374 300.229 360.948C302.844 348.588 305.578 336.228 308.074 323.868C308.787 320.184 310.095 318.283 314.255 317.689C336.009 314.836 356.692 308.419 376.543 299.268C378.445 298.317 381.179 298.198 383.319 298.792C395.325 302.001 407.331 305.566 419.218 309.013C422.071 309.845 425.637 310.558 424.567 314.599C423.497 318.996 420.05 318.045 416.84 317.094C404.359 313.41 391.878 309.845 379.396 306.161C379.277 306.398 379.04 306.874 378.683 307.23Z" fill="white"/>
<path d="M266.826 270.507C263.735 284.768 260.882 298.317 257.792 312.103C227.955 312.103 198.357 312.103 167.926 312.103C171.611 300.456 175.534 289.403 178.505 277.994C180.17 271.933 182.904 270.269 189.085 270.388C214.642 270.863 240.199 270.507 266.826 270.507Z" fill="white"/>
<path d="M234.018 95.2103C233.899 103.886 235.088 112.443 240.675 119.574C246.618 127.417 254.464 127.536 263.022 119.692C264.211 123.02 265.162 125.991 266.707 130.507C261.596 131.102 257.198 131.577 252.205 132.171C251.492 134.667 250.66 137.638 249.59 140.609C248.52 143.58 247.331 146.433 245.429 151.305C240.437 145.601 236.395 140.847 232.235 136.212C233.305 143.58 237.941 148.453 244.716 152.256C239.842 161.288 234.374 169.37 223.557 171.271C212.383 173.173 205.132 166.161 198.357 158.555C196.336 164.972 194.553 170.677 192.651 176.857C190.868 176.144 189.442 175.668 187.777 175.074C199.189 147.74 210.482 120.762 222.012 93.903C222.487 92.7145 225.103 91.4072 226.41 91.6449C235.207 93.0711 244.003 94.7349 252.68 96.7553C254.345 97.1118 256.128 99.251 256.841 100.915C258.386 104.361 258.981 108.164 260.526 111.611C262.309 115.533 261.477 119.098 258.148 120.881C255.296 122.426 251.254 123.377 248.401 122.545C241.626 120.405 239.486 114.107 237.941 107.808C236.99 103.767 236.514 99.4887 235.92 95.3291C235.207 95.0914 234.612 95.0914 234.018 95.2103ZM247.926 114.344C248.758 114.463 249.59 114.582 250.541 114.701C251.016 111.136 251.373 107.689 251.848 104.124C251.016 104.005 250.303 103.886 249.471 103.767C245.905 106.857 245.786 110.422 247.926 114.344Z" fill="white"/>
<path d="M299.991 302.239C305.459 299.03 310.333 296.177 315.087 293.444C316.752 292.493 318.416 290.948 320.318 290.711C321.982 290.473 324.954 291.067 325.191 292.018C325.786 293.563 325.31 296.891 324.24 297.485C311.759 304.14 301.061 314.955 284.894 312.697C276.93 311.627 268.847 312.459 260.288 312.459C262.785 300.931 265.162 290.116 267.421 279.896C278.475 277.875 289.174 274.785 299.872 274.31C312.591 273.716 325.429 275.261 338.267 275.974C341.477 276.093 344.686 276.093 347.658 277.043C349.441 277.638 350.63 280.014 352.056 281.559C350.273 282.748 348.49 285.006 346.826 284.887C336.365 284.293 325.905 283.104 315.563 282.035C307.242 281.203 304.151 283.699 302.963 292.137C302.249 295.227 301.18 298.079 299.991 302.239Z" fill="white"/>
<path d="M347.301 288.096C345.162 294.989 343.379 301.05 341.12 306.873C340.526 308.3 338.624 309.845 336.96 310.32C332.443 311.627 327.688 312.578 323.052 313.41C317.346 314.48 311.521 317.094 306.41 311.152C311.878 307.943 317.703 304.734 323.408 301.288C328.52 298.317 330.184 294.395 327.688 290.711C324.478 286.076 320.555 286.789 316.276 289.403C312.948 291.542 309.501 293.325 306.053 295.346C304.389 287.145 306.767 284.174 314.374 284.768C325.191 285.719 335.771 286.907 347.301 288.096Z" fill="white"/>
<path d="M252.324 73.2239C253.394 80.1169 254.464 86.7722 255.652 94.3783C244.716 92.2391 234.731 90.3376 224.627 88.4361C225.459 82.9692 227.48 79.6415 233.305 78.6908C239.486 77.6211 245.429 75.3631 252.324 73.2239Z" fill="white"/>
<path d="M310.808 269.794C319.604 265.04 327.925 260.286 336.484 256.008C337.911 255.295 340.407 256.959 342.428 257.553C341.833 259.454 341.714 262.188 340.407 262.901C331.61 267.773 323.171 275.498 310.808 269.794Z" fill="white"/>
<path d="M327.925 257.672C319.604 262.188 311.284 266.704 302.844 271.339C302.606 270.864 302.249 270.507 302.012 270.032C308.668 264.921 315.206 259.573 322.101 254.819C323.289 253.987 326.023 255.176 327.925 255.414C328.044 256.127 327.925 256.84 327.925 257.672Z" fill="white"/>
<path d="M287.628 273.24C295.355 267.655 301.655 260.048 311.284 257.553C304.389 264.446 298.327 272.646 287.628 273.24Z" fill="white"/>
<path d="M198.357 191.831C195.98 187.078 194.197 183.631 192.532 180.185C192.77 179.828 193.008 179.353 193.127 178.996C196.693 180.898 200.259 182.799 203.825 184.701C202.161 186.84 200.497 188.979 198.357 191.831Z" fill="white"/>
<path d="M263.498 111.73C261.715 106.382 260.526 102.698 259.1 98.1814C261.834 98.6568 263.854 99.0133 266.351 99.6075C265.4 103.411 264.687 106.738 263.498 111.73Z" fill="white"/>
<path d="M247.926 114.344C245.667 110.422 245.905 106.857 249.352 103.886C250.184 104.005 250.898 104.124 251.73 104.243C251.254 107.808 250.898 111.254 250.422 114.82C249.709 114.582 248.877 114.463 247.926 114.344Z" fill="black"/>
</svg>
